<?xml version="1.0" standalone="no"?>
<!DOCTYPE svg PUBLIC "-//W3C//DTD SVG 1.1//EN" "http://www.w3.org/Graphics/SVG/1.1/DTD/svg11.dtd" >
<svg xmlns="http://www.w3.org/2000/svg" xmlns:xlink="http://www.w3.org/1999/xlink" version="1.1">
<metadata>
Created by FontForge 20190801 at Mon Jun 15 17:27:59 2020
 By www-data
Copyright 2020 The Kanit Project Authors (https://github.com/cadsondemak/kanit)
</metadata>
<defs>
<font id="KanitRegular" horiz-adv-x="0" >
  <font-face 
    font-family="KanitRegular"
    font-weight="400"
    font-stretch="normal"
    units-per-em="1000"
    panose-1="0 0 0 0 0 0 0 0 0 0"
    ascent="800"
    descent="-200"
    x-height="474"
    cap-height="644"
    bbox="-594 -351 1157 1061"
    underline-thickness="50"
    underline-position="-125"
    unicode-range="U+000D-FB02"
  />
<missing-glyph horiz-adv-x="487" 
d="M37 0v714h411v-714h-411zM88 51h309v612h-309v-612z" />
    <glyph glyph-name="fi" unicode="fi" horiz-adv-x="530" 
d="M92 0v389h-69v85h69v49q0 49 23.5 86.5t66 59t99.5 21.5q35 0 66 -4.5t51 -12.5v-81q-13 6 -38 9t-47 3q-58 0 -85.5 -20t-27.5 -63v-47h267v-474h-109v389h-158v-389h-108z" />
    <glyph glyph-name="fl" unicode="fl" horiz-adv-x="530" 
d="M92 0v389h-69v85h69v51q0 70 45.5 115.5t124.5 49.5q29 1 59.5 -3t55.5 -12h90v-675h-109v389h-158v-389h-108zM200 474h158v123q-13 5 -29.5 7t-32.5 2q-96 0 -96 -84v-48z" />
    <glyph glyph-name="uni0E240E45" unicode="&#xe24;&#xe45;" horiz-adv-x="881" 
d="M440 -160v498q0 69 -32.5 96.5t-109.5 27.5q-50 0 -93 -14t-68 -37v-18l114 -29v-72q-39 -10 -55 -32t-16 -66v-65q0 -23 10 -33t32 -10h55v-86h-108q-45 0 -71 28t-26 73v94q0 44 17 77.5t62 46.5l-108 27v112q40 35 105.5 63.5t153.5 28.5q47 0 85 -7t68 -23
q30 13 72.5 21.5t84.5 8.5q108 0 156.5 -47t48.5 -149v-514h-109v500q0 41 -9 68t-34 40.5t-74 13.5q-32 0 -68 -7q26 -47 26 -120v-495h-109z" />
    <glyph glyph-name="uni0E260E45" unicode="&#xe26;&#xe45;" horiz-adv-x="919" 
d="M475 -160v498q0 69 -31 96.5t-105 27.5q-51 0 -94 -14t-67 -37v-18l117 -29v-72q-38 -11 -50 -32t-12 -66v-72q0 -64 -30.5 -93t-87.5 -29h-67v86h37q21 0 29.5 9.5t8.5 32.5v67q0 44 14 76t57 48l-110 27v112q39 35 105 63.5t153 28.5q94 0 150 -31v1q30 13 72.5 21.5
t85.5 8.5q108 0 156.5 -47t48.5 -149v-514h-109v500q0 41 -9 68t-34 40.5t-74 13.5q-34 0 -72 -7q26 -48 26 -120v-495h-108z" />
    <glyph glyph-name=".notdef" horiz-adv-x="487" 
d="M37 0v714h411v-714h-411zM88 51h309v612h-309v-612z" />
    <glyph glyph-name=".null" horiz-adv-x="500" 
 />
    <glyph glyph-name=".null" horiz-adv-x="500" 
 />
    <glyph glyph-name="nonmarkingreturn" horiz-adv-x="333" 
 />
    <glyph glyph-name="CR" unicode="&#xd;" horiz-adv-x="230" 
 />
    <glyph glyph-name="space" unicode=" " horiz-adv-x="230" 
 />
    <glyph glyph-name="exclam" unicode="!" horiz-adv-x="203" 
d="M53 161l-6 322v161h109v-161l-6 -322h-97zM43 0v82h116v-82h-116z" />
    <glyph glyph-name="quotedbl" unicode="&#x22;" horiz-adv-x="341" 
d="M203 455v189h94l-13 -189h-81zM43 455v189h94l-13 -189h-81z" />
    <glyph glyph-name="numbersign" unicode="#" horiz-adv-x="702" 
d="M73 0l54 172h-84v73h107l48 153h-109v74h132l54 172h94l-54 -172h169l54 172h95l-54 -172h80v-74h-104l-48 -153h106v-73h-129l-54 -172h-94l54 172h-170l-54 -172h-93zM243 245h170l48 153h-170z" />
    <glyph glyph-name="dollar" unicode="$" horiz-adv-x="555" 
d="M239 -86v76q-55 2 -101 9.5t-81 22.5v96q41 -16 88 -25.5t94 -10.5v206q-4 0 -8 2q-104 27 -146 68.5t-42 114.5q0 75 49.5 121.5t146.5 56.5v79h82v-77q47 -2 87 -9.5t65 -15.5v-96q-70 26 -152 29v-198q75 -20 116.5 -47.5t58 -63t16.5 -80.5q0 -73 -48 -120t-143 -58
v-80h-82zM239 386v170q-41 -7 -63.5 -26.5t-22.5 -56.5q0 -34 18.5 -52.5t67.5 -34.5zM321 87q41 7 61 26.5t20 58.5q0 35 -18.5 55.5t-62.5 36.5v-177z" />
    <glyph glyph-name="percent" unicode="%" horiz-adv-x="727" 
d="M185 360q-71 0 -106.5 39.5t-35.5 100.5q0 71 35.5 112.5t106.5 41.5t106 -41.5t35 -112.5q0 -61 -35 -100.5t-106 -39.5zM141 0l341 644h102l-341 -644h-102zM185 426q39 0 56 20t17 56q0 44 -17.5 64.5t-55.5 20.5t-55.5 -20.5t-17.5 -64.5q0 -36 17 -56t56 -20z
M543 -10q-71 0 -106.5 39.5t-35.5 100.5q0 71 35.5 112.5t106.5 41.5t106 -41.5t35 -112.5q0 -61 -35 -100.5t-106 -39.5zM543 56q39 0 56 20t17 56q0 44 -17.5 64.5t-55.5 20.5t-55.5 -20.5t-17.5 -64.5q0 -36 17 -56t56 -20z" />
    <glyph glyph-name="ampersand" unicode="&#x26;" horiz-adv-x="668" 
d="M273 -10q-104 0 -167 45.5t-63 121.5q0 68 40.5 115t110.5 85q-39 35 -62.5 69t-23.5 80q0 63 45 105.5t124 42.5q78 0 122.5 -40.5t44.5 -107.5q0 -52 -25 -89t-80 -73l148 -151q16 34 16 80v17h83v-19q0 -38 -10 -74.5t-27 -63.5l81 -82l-66 -60l-72 72
q-37 -38 -93 -55.5t-126 -17.5zM271 391q43 28 64 50t21 60q0 35 -18.5 55.5t-60.5 20.5q-43 0 -62 -22t-19 -54q0 -31 18.5 -55.5t56.5 -54.5zM273 66q100 0 153 57l-167 169q-56 -23 -83.5 -54.5t-27.5 -78.5q0 -46 35 -69.5t90 -23.5z" />
    <glyph glyph-name="quotesingle" unicode="'" horiz-adv-x="181" 
d="M43 455v189h94l-13 -189h-81z" />
    <glyph glyph-name="parenleft" unicode="(" horiz-adv-x="325" 
d="M178 -72q-49 44 -79 105t-43 131t-13 139t13 138.5t43 131t79 105.5h123q-79 -69 -113.5 -164.5t-34.5 -210.5t34.5 -210.5t113.5 -164.5h-123z" />
    <glyph glyph-name="parenright" unicode=")" horiz-adv-x="325" 
d="M23 -72q80 69 114 164.5t34 210.5t-34 210.5t-114 164.5h124q49 -44 78.5 -105.5t42.5 -131t13 -138.5t-13 -139t-42.5 -131t-78.5 -105h-124z" />
    <glyph glyph-name="asterisk" unicode="*" horiz-adv-x="432" 
d="M134 323l-64 47l89 97l-116 48l34 68l102 -50l-5 111h84l-5 -111l102 50l33 -68l-116 -48l89 -97l-64 -47l-81 107z" />
    <glyph glyph-name="plus" unicode="+" horiz-adv-x="473" 
d="M193 86v141h-147v85h147v146h87v-146h147v-85h-147v-141h-87z" />
    <glyph glyph-name="comma" unicode="," horiz-adv-x="211" 
d="M43 -120l30 189h95l-46 -189h-79z" />
    <glyph glyph-name="hyphen" unicode="-" horiz-adv-x="468" 
d="M43 227v85h382v-85h-382z" />
    <glyph glyph-name="period" unicode="." horiz-adv-x="179" 
d="M43 0v85h92v-85h-92z" />
    <glyph glyph-name="slash" unicode="/" horiz-adv-x="431" 
d="M43 0l234 662h111l-234 -662h-111z" />
    <glyph glyph-name="zero" unicode="0" horiz-adv-x="651" 
d="M326 -18q-102 0 -164 39.5t-90.5 114t-28.5 178.5q0 108 27.5 184t89.5 116t166 40t165.5 -40t89 -116t27.5 -184q0 -104 -28 -178.5t-90 -114t-164 -39.5zM326 75q96 0 134 63.5t38 175.5q0 119 -37 183t-135 64t-135.5 -64t-37.5 -183q0 -112 38 -175.5t135 -63.5z" />
    <glyph glyph-name="one" unicode="1" horiz-adv-x="319" 
d="M147 0v548l-104 -18v91l212 33v-654h-108z" />
    <glyph glyph-name="two" unicode="2" horiz-adv-x="509" 
d="M43 0v54q26 61 72.5 110t99.5 95q40 35 66.5 59.5t41.5 44.5t21 41.5t6 50.5q0 52 -30 79t-100 27q-38 0 -77.5 -8t-75.5 -22v96q35 12 83 19.5t91 7.5q108 0 163 -53t55 -145q0 -46 -16 -81.5t-44 -67t-65 -64.5q-46 -40 -86.5 -77.5t-65.5 -81.5h284v-84h-423z" />
    <glyph glyph-name="three" unicode="3" horiz-adv-x="519" 
d="M226 -10q-29 0 -64 3.5t-66.5 10.5t-52.5 15v95q40 -16 82.5 -23.5t85.5 -7.5q78 0 116 23t38 81q0 52 -34.5 75t-98.5 23h-97l9 81h81q127 0 127 100q0 49 -33.5 72t-107.5 23q-41 0 -82.5 -8t-73.5 -22v93q30 12 78 21t95 9q118 0 175.5 -50t57.5 -128q0 -48 -23.5 -90
t-73.5 -60q58 -15 84.5 -54t26.5 -92q0 -97 -68 -143.5t-181 -46.5z" />
    <glyph glyph-name="four" unicode="4" horiz-adv-x="543" 
d="M345 0v141h-322v77l335 426h95v-415h66v-88h-66v-141h-108zM129 226h233v294z" />
    <glyph glyph-name="five" unicode="5" horiz-adv-x="515" 
d="M225 -10q-43 0 -94 7t-85 22v95q35 -15 80 -23t85 -8q77 0 113.5 26.5t36.5 87.5q0 56 -26 83t-102 27h-190v66l17 271h366l-9 -84h-265l-11 -169h109q115 0 168 -49t53 -147q0 -95 -62 -150t-184 -55z" />
    <glyph glyph-name="six" unicode="6" horiz-adv-x="573" 
d="M287 -10q-121 0 -182.5 60t-61.5 189v145q0 80 33 141t94 95t145 34q49 0 85.5 -6t67.5 -17v-93q-31 11 -66.5 17t-79.5 6q-90 0 -133 -42.5t-43 -113.5v-40q35 26 80.5 38.5t82.5 12.5q113 0 167 -55t54 -156q0 -96 -59 -155.5t-184 -59.5zM288 72q72 0 108 35t36 94
q0 62 -29.5 96.5t-109.5 34.5q-40 0 -78.5 -13.5t-68.5 -35.5v-69q0 -142 142 -142z" />
    <glyph glyph-name="seven" unicode="7" horiz-adv-x="498" 
d="M110 0l237 560h-314v84h431v-70l-243 -574h-111z" />
    <glyph glyph-name="eight" unicode="8" horiz-adv-x="590" 
d="M295 -10q-252 0 -252 184q0 55 29.5 98t84.5 61q-50 19 -73 56.5t-23 80.5q0 83 57.5 133.5t176.5 50.5q122 0 178 -50.5t56 -133.5q0 -46 -22.5 -85.5t-78.5 -60.5q62 -18 90 -55.5t28 -94.5q0 -184 -251 -184zM322 358q55 14 80.5 38t25.5 72q0 100 -133 100
q-65 0 -99 -24t-34 -76q0 -79 89 -96zM295 75q75 0 112.5 24.5t37.5 76.5q0 47 -26.5 68.5t-81.5 32.5l-82 17q-51 -11 -81 -36.5t-30 -79.5t38.5 -78.5t112.5 -24.5z" />
    <glyph glyph-name="nine" unicode="9" horiz-adv-x="573" 
d="M258 -10q-49 0 -85 6t-68 16v94q31 -12 66.5 -18t79.5 -6q90 0 133 43t43 114v40q-35 -25 -80 -38t-83 -13q-112 0 -166.5 55t-54.5 156q0 95 59 155t184 60q121 0 182.5 -60.5t61.5 -188.5v-145q0 -80 -33 -141t-94 -95t-145 -34zM280 311q41 0 79 14t68 35v70
q0 141 -142 141q-72 0 -108 -35t-36 -94q0 -61 29.5 -96t109.5 -35z" />
    <glyph glyph-name="colon" unicode=":" horiz-adv-x="179" 
d="M43 326v86h92v-86h-92zM43 25v86h92v-86h-92z" />
    <glyph glyph-name="semicolon" unicode=";" horiz-adv-x="212" 
d="M76 326v86h91v-86h-91zM43 -112l30 189h95l-46 -189h-79z" />
    <glyph glyph-name="less" unicode="&#x3c;" horiz-adv-x="544" 
d="M501 46l-458 209v89l458 208v-101l-343 -151l343 -152v-102z" />
    <glyph glyph-name="equal" unicode="=" horiz-adv-x="473" 
d="M43 308v77h386v-77h-386zM43 154v78h386v-78h-386z" />
    <glyph glyph-name="greater" unicode="&#x3e;" horiz-adv-x="544" 
d="M43 46v102l344 152l-344 151v101l458 -208v-89z" />
    <glyph glyph-name="question" unicode="?" horiz-adv-x="495" 
d="M154 162v22q0 40 17 69t42.5 52t51.5 44q32 26 54 51.5t22 62.5q0 53 -31 75.5t-109 22.5q-42 0 -84 -10.5t-74 -25.5v92q34 17 82.5 27t103.5 10q110 0 166 -48.5t56 -134.5q0 -56 -26.5 -90.5t-70.5 -70.5q-27 -23 -47.5 -41t-32 -38.5t-11.5 -51.5v-17h-109zM150 0v82
h116v-82h-116z" />
    <glyph glyph-name="at" unicode="@" horiz-adv-x="764" 
d="M390 -132q-99 0 -177.5 31t-124 101.5t-45.5 187.5q0 175 95.5 256t262.5 81q156 0 237.5 -70.5t81.5 -201.5q0 -96 -45 -152.5t-140 -56.5h-31q-25 -25 -61.5 -39t-89.5 -14q-61 0 -100.5 30.5t-39.5 88.5q0 54 34 90t115 36h120v22q0 45 -20 62.5t-82 17.5
q-63 0 -121 -20v56q26 11 63 16.5t76 5.5q80 0 117.5 -34t37.5 -108v-147q45 0 65.5 34.5t20.5 108.5q0 102 -57.5 152.5t-180.5 50.5q-137 0 -206.5 -61.5t-69.5 -204.5q0 -95 34 -149t93.5 -76.5t135.5 -22.5q110 0 173 19v-72q-31 -7 -75 -12.5t-96 -5.5zM371 47
q73 0 111 48v87h-105q-52 0 -70 -19t-18 -53t21 -48.5t61 -14.5z" />
    <glyph glyph-name="A" unicode="A" horiz-adv-x="700" 
d="M44 0l246 644h122l244 -644h-112l-64 166h-259l-64 -166h-113zM238 250h224l-112 295z" />
    <glyph glyph-name="B" unicode="B" horiz-adv-x="631" 
d="M63 0v644h312q96 0 142 -45t46 -127q0 -52 -21 -87.5t-56 -53.5q47 -13 74.5 -46.5t27.5 -98.5q0 -94 -50.5 -140t-148.5 -46h-326zM172 369h188q55 0 78.5 25.5t23.5 68.5q0 50 -24 74.5t-90 24.5h-176v-193zM172 80h194q58 0 85 24.5t27 85.5q0 50 -26.5 74.5
t-96.5 24.5h-183v-209z" />
    <glyph glyph-name="C" unicode="C" horiz-adv-x="597" 
d="M365 -10q-159 0 -240.5 87t-81.5 235q0 106 34.5 182.5t105.5 118t181 41.5q56 0 102.5 -8.5t86.5 -22.5v-95q-40 16 -85.5 24.5t-95.5 8.5q-120 0 -169.5 -64t-49.5 -185q0 -113 54 -171.5t167 -58.5q46 0 92.5 7.5t87.5 23.5v-96q-40 -13 -86.5 -20t-102.5 -7z" />
    <glyph glyph-name="D" unicode="D" horiz-adv-x="649" 
d="M63 0v644h261q143 0 212 -75.5t69 -250.5q0 -165 -68 -241.5t-213 -76.5h-261zM172 84h135q63 0 105 18.5t63 69.5t21 146t-19 147t-60.5 73t-109.5 21h-135v-475z" />
    <glyph glyph-name="E" unicode="E" horiz-adv-x="550" 
d="M63 0v644h449v-85h-340v-195h303v-84h-303v-196h340v-84h-449z" />
    <glyph glyph-name="F" unicode="F" horiz-adv-x="524" 
d="M63 0v644h438v-85h-329v-195h292v-84h-292v-280h-109z" />
    <glyph glyph-name="G" unicode="G" horiz-adv-x="641" 
d="M363 -10q-159 0 -239.5 86t-80.5 233q0 106 35 183.5t106.5 119.5t181.5 42q57 0 103.5 -7.5t87.5 -21.5v-94q-82 30 -182 30q-123 0 -172.5 -65t-49.5 -187q0 -111 52 -169t161 -58q86 0 139 20v180h-161v71h254v-310q-31 -20 -88.5 -36.5t-146.5 -16.5z" />
    <glyph glyph-name="H" unicode="H" horiz-adv-x="654" 
d="M63 0v644h109v-280h310v280h109v-644h-109v280h-310v-280h-109z" />
    <glyph glyph-name="I" unicode="I" horiz-adv-x="235" 
d="M63 0v644h109v-644h-109z" />
    <glyph glyph-name="J" unicode="J" horiz-adv-x="431" 
d="M163 -10q-82 0 -140 23v92q24 -10 56.5 -16.5t64.5 -6.5q67 0 93.5 27.5t26.5 88.5v446h109v-464q0 -92 -52.5 -141t-157.5 -49z" />
    <glyph glyph-name="K" unicode="K" horiz-adv-x="625" 
d="M63 0v644h109v-296l274 296h126l-237 -260l247 -384h-116l-199 315l-95 -102v-213h-109z" />
    <glyph glyph-name="L" unicode="L" horiz-adv-x="525" 
d="M63 0v644h109v-560h330v-84h-439z" />
    <glyph glyph-name="M" unicode="M" horiz-adv-x="757" 
d="M63 0v644h112l204 -417l203 417h112v-644h-108v467l-174 -356h-66l-175 356v-467h-108z" />
    <glyph glyph-name="N" unicode="N" horiz-adv-x="667" 
d="M63 0v644h96l336 -474v474h108v-644h-96l-335 473v-473h-109z" />
    <glyph glyph-name="O" unicode="O" horiz-adv-x="696" 
d="M348 -10q-153 0 -229 80.5t-76 249.5q0 176 76 255t229 79q154 0 229.5 -79t75.5 -255q0 -169 -75.5 -249.5t-229.5 -80.5zM348 82q101 0 148.5 55.5t47.5 182.5q0 134 -47.5 187.5t-148.5 53.5q-100 0 -147.5 -53.5t-47.5 -187.5q0 -127 47.5 -182.5t147.5 -55.5z" />
    <glyph glyph-name="P" unicode="P" horiz-adv-x="590" 
d="M63 0v644h287q74 0 122 -28t71 -76.5t23 -110.5q0 -96 -59.5 -154t-160.5 -58h-174v-217h-109zM172 303h154q65 0 98 34t33 92q0 62 -31.5 96t-94.5 34h-159v-256z" />
    <glyph glyph-name="Q" unicode="Q" horiz-adv-x="697" 
d="M441 -172q-76 0 -111 43t-37 122q-125 14 -187.5 93.5t-62.5 233.5q0 176 76 255t229 79q154 0 229.5 -79t75.5 -255q0 -157 -65.5 -237t-197.5 -91q1 -46 17.5 -63.5t56.5 -17.5q36 0 71 10v-81q-16 -5 -42 -8.5t-52 -3.5zM348 82q101 0 148.5 55.5t47.5 182.5
q0 134 -47.5 187.5t-148.5 53.5q-100 0 -147.5 -53.5t-47.5 -187.5q0 -127 47.5 -182.5t147.5 -55.5z" />
    <glyph glyph-name="R" unicode="R" horiz-adv-x="610" 
d="M63 0v644h296q108 0 157.5 -55.5t49.5 -150.5q0 -68 -34 -116t-98 -67q18 -13 28 -28t20 -40l81 -187h-112l-79 180q-11 26 -26.5 37t-52.5 11h-121v-228h-109zM172 316h158q59 0 93 29t34 93q0 121 -117 121h-168v-243z" />
    <glyph glyph-name="S" unicode="S" horiz-adv-x="555" 
d="M258 -10q-125 0 -201 32v96q43 -16 92.5 -26t98.5 -10q77 0 115.5 18t38.5 72q0 33 -16 53t-53 34.5t-102 30.5q-104 27 -146 68.5t-42 114.5q0 85 62 133t185 48q56 0 105.5 -8t77.5 -18v-96q-76 29 -168 29q-72 0 -112 -19t-40 -69q0 -29 14 -47t48.5 -31t95.5 -29
q79 -20 122.5 -47.5t61 -64t17.5 -82.5q0 -85 -63 -133.5t-191 -48.5z" />
    <glyph glyph-name="T" unicode="T" horiz-adv-x="568" 
d="M230 0v559h-206v85h520v-85h-205v-559h-109z" />
    <glyph glyph-name="U" unicode="U" horiz-adv-x="674" 
d="M338 -10q-133 0 -206.5 64t-73.5 185v405h109v-401q0 -81 44.5 -121t126.5 -40q81 0 125.5 40t44.5 121v401h108v-405q0 -121 -73 -185t-205 -64z" />
    <glyph glyph-name="V" unicode="V" horiz-adv-x="700" 
d="M290 0l-246 644h113l193 -527l193 527h113l-244 -644h-122z" />
    <glyph glyph-name="W" unicode="W" horiz-adv-x="869" 
d="M194 0l-150 644h107l109 -483l122 405v78h89l137 -483l111 483h106l-149 -644h-107l-129 451l-137 -451h-109z" />
    <glyph glyph-name="X" unicode="X" horiz-adv-x="677" 
d="M43 0l230 321l-225 323h126l164 -239l164 239h127l-226 -323l230 -321h-128l-167 236l-167 -236h-128z" />
    <glyph glyph-name="Y" unicode="Y" horiz-adv-x="656" 
d="M274 0v239l-231 405h113l172 -313l172 313h113l-231 -405v-239h-108z" />
    <glyph glyph-name="Z" unicode="Z" horiz-adv-x="575" 
d="M43 0v58l346 497h-329v89h469v-67l-343 -493h348v-84h-491z" />
    <glyph glyph-name="bracketleft" unicode="[" horiz-adv-x="351" 
d="M43 -99v805h271l3 -85h-165v-636h166l-4 -84h-271z" />
    <glyph glyph-name="backslash" unicode="\" horiz-adv-x="451" 
d="M296 -54l-253 716h112l252 -716h-111z" />
    <glyph glyph-name="bracketright" unicode="]" horiz-adv-x="351" 
d="M37 -99l-4 84h166v636h-165l3 85h271v-805h-271z" />
    <glyph glyph-name="asciicircum" unicode="^" horiz-adv-x="476" 
d="M43 387l153 237h79l157 -237h-101l-93 158l-93 -158h-102z" />
    <glyph glyph-name="underscore" unicode="_" horiz-adv-x="541" 
d="M43 -77v77h454v-77h-454z" />
    <glyph glyph-name="grave" unicode="`" horiz-adv-x="261" 
d="M128 522l-84 177h96l75 -177h-87z" />
    <glyph glyph-name="a" unicode="a" horiz-adv-x="547" 
d="M211 -10q-45 0 -83.5 16t-61.5 48.5t-23 80.5q0 68 46.5 109.5t143.5 41.5h152v21q0 34 -10.5 54t-38 29t-80.5 9q-84 0 -157 -25v81q32 13 78 21t99 8q104 0 158.5 -42t54.5 -137v-305h-93l-7 48q-29 -28 -71.5 -43t-106.5 -15zM240 68q49 0 85.5 16.5t59.5 44.5v83
h-150q-48 0 -69.5 -18.5t-21.5 -56.5q0 -37 25 -53t71 -16z" />
    <glyph glyph-name="b" unicode="b" horiz-adv-x="582" 
d="M323 -10q-52 0 -90 14t-70 43l-6 -47h-94v674h109v-231q62 41 149 41q101 0 159.5 -57.5t58.5 -185.5q0 -129 -58 -190t-158 -61zM294 72q74 0 104.5 42t30.5 127q0 88 -33 124t-104 36q-74 0 -120 -41v-238q47 -50 122 -50z" />
    <glyph glyph-name="c" unicode="c" horiz-adv-x="474" 
d="M296 -10q-125 0 -189 63.5t-64 183.5q0 125 70.5 186t188.5 61q49 0 82.5 -7t64.5 -22v-81q-52 26 -126 26q-82 0 -126 -36.5t-44 -126.5q0 -85 39 -124.5t129 -39.5q71 0 129 27v-83q-33 -13 -70.5 -20t-83.5 -7z" />
    <glyph glyph-name="d" unicode="d" horiz-adv-x="582" 
d="M259 -10q-64 0 -113 22t-76 73t-27 137q0 85 29 143.5t80.5 88.5t116.5 30q43 0 76.5 -10t64.5 -31v231h109v-674h-93l-7 47q-32 -29 -70 -43t-90 -14zM288 72q73 0 122 50v237q-47 42 -118 42q-69 0 -104 -46t-35 -134q0 -85 32.5 -117t102.5 -32z" />
    <glyph glyph-name="e" unicode="e" horiz-adv-x="537" 
d="M303 -10q-124 0 -192 61t-68 187q0 114 58 180t176 66q108 0 162.5 -56.5t54.5 -145.5v-88h-347q8 -69 50 -95t128 -26q36 0 74 7t66 18v-80q-32 -14 -73.5 -21t-88.5 -7zM147 265h251v33q0 49 -27 76.5t-91 27.5q-76 0 -104.5 -33t-28.5 -104z" />
    <glyph glyph-name="f" unicode="f" horiz-adv-x="360" 
d="M92 0v389h-69v85h69v58q0 71 39.5 114.5t117.5 43.5q29 0 53 -4.5t44 -12.5v-78q-31 11 -63 11q-47 0 -65 -17t-18 -58v-57h124l-5 -85h-119v-389h-108z" />
    <glyph glyph-name="g" unicode="g" horiz-adv-x="554" 
d="M255 -176q-53 0 -106 6.5t-90 19.5v84q40 -13 92 -20t99 -7q72 0 105 8t33 36q0 21 -16 29.5t-61 8.5h-128q-129 0 -129 91q0 29 17 54t54 38q-41 20 -60.5 55t-19.5 84q0 91 54.5 132t163.5 41q23 0 48 -3.5t39 -6.5h174l-3 -71h-80q19 -16 28 -40t9 -52
q0 -76 -46 -119.5t-139 -43.5q-16 0 -29.5 1.5t-29.5 3.5q-30 -3 -54 -16t-24 -35q0 -15 12 -21.5t40 -6.5h133q71 0 109.5 -30.5t38.5 -88.5q0 -70 -60.5 -100.5t-173.5 -30.5zM263 217q65 0 90.5 22t25.5 75t-25.5 77t-90.5 24q-61 0 -89 -23t-28 -78q0 -51 26.5 -74
t90.5 -23z" />
    <glyph glyph-name="h" unicode="h" horiz-adv-x="578" 
d="M63 0v674h109v-246q31 25 74 40.5t97 15.5q90 0 133 -43t43 -134v-307h-108v302q0 55 -23.5 77t-81.5 22q-36 0 -73 -15.5t-61 -40.5v-345h-109z" />
    <glyph glyph-name="i" unicode="i" horiz-adv-x="285" 
d="M103 573v90h119v-90h-119zM112 0v391h-72l10 83h171v-474h-109z" />
    <glyph glyph-name="j" unicode="j" horiz-adv-x="308" 
d="M126 573v90h119v-90h-119zM91 -234q-58 0 -99 16v79q17 -5 32.5 -7.5t28.5 -2.5q47 0 65.5 17t18.5 56v467h-72l10 83h170v-560q0 -67 -38.5 -107.5t-115.5 -40.5z" />
    <glyph glyph-name="k" unicode="k" horiz-adv-x="537" 
d="M63 0v674h109v-390l199 190h125l-193 -191l204 -283h-115l-157 225l-63 -60v-165h-109z" />
    <glyph glyph-name="l" unicode="l" horiz-adv-x="280" 
d="M181 -10q-58 0 -88 28.5t-30 94.5v561h109v-551q0 -28 10 -38t30 -10q24 0 46 6v-79q-19 -7 -36.5 -9.5t-40.5 -2.5z" />
    <glyph glyph-name="m" unicode="m" horiz-adv-x="856" 
d="M63 0v474h100l5 -50q35 28 77 44t90 16q51 0 79.5 -16.5t43.5 -45.5q33 27 76 44.5t103 17.5q82 0 121 -42t39 -129v-313h-107v302q0 55 -23 77t-75 22q-34 0 -64.5 -12t-52.5 -36q3 -11 4 -23t1 -26v-304h-101v301q0 52 -18 76t-68 24q-35 0 -66.5 -16.5t-56.5 -39.5
v-345h-107z" />
    <glyph glyph-name="n" unicode="n" horiz-adv-x="578" 
d="M63 0v474h100l5 -50q32 25 76.5 42.5t98.5 17.5q92 0 134 -43t42 -134v-307h-108v302q0 55 -22.5 77t-84.5 22q-37 0 -72.5 -15t-59.5 -39v-347h-109z" />
    <glyph glyph-name="o" unicode="o" horiz-adv-x="581" 
d="M290 -10q-128 0 -187.5 64t-59.5 183t60 183t187 64q128 0 188 -64t60 -183t-59.5 -183t-188.5 -64zM290 82q75 0 106.5 36.5t31.5 118.5t-31.5 118t-106.5 36q-74 0 -105.5 -36t-31.5 -118t31.5 -118.5t105.5 -36.5z" />
    <glyph glyph-name="p" unicode="p" horiz-adv-x="582" 
d="M63 -216v690h94l6 -47q32 29 70 43t90 14q102 0 159 -55.5t57 -183.5t-59 -191.5t-161 -63.5q-86 0 -147 40v-246h-109zM291 72q138 0 138 174q0 84 -31 119.5t-104 35.5t-122 -50v-237q23 -19 51.5 -30.5t67.5 -11.5z" />
    <glyph glyph-name="q" unicode="q" horiz-adv-x="582" 
d="M537 -242q-63 0 -95 32t-32 100v140q-61 -40 -147 -40q-102 0 -161 55.5t-59 183.5t58.5 191.5t158.5 63.5q52 0 89.5 -14t69.5 -43l7 47h93v-576q0 -31 10.5 -43t40.5 -12q10 0 21.5 2t20.5 4v-79q-17 -6 -34 -9t-41 -3zM291 72q39 0 68 11.5t51 30.5v237
q-49 50 -121 50q-73 0 -104.5 -43.5t-31.5 -127.5q0 -88 34 -123t104 -35z" />
    <glyph glyph-name="r" unicode="r" horiz-adv-x="359" 
d="M63 0v474h100l6 -55q34 22 81 40t93 25v-83q-28 -5 -60.5 -14.5t-61.5 -21t-49 -23.5v-342h-109z" />
    <glyph glyph-name="s" unicode="s" horiz-adv-x="464" 
d="M221 -10q-49 0 -93.5 7t-73.5 17v92q34 -13 75 -20t78 -7q56 0 80 10t24 39q0 21 -14.5 33t-43 22t-72.5 24q-42 14 -73 30.5t-48 42.5t-17 68q0 65 47 100.5t151 35.5q41 0 78 -6t63 -15v-91q-28 11 -61.5 17t-62.5 6q-52 0 -78.5 -9t-26.5 -36q0 -28 27.5 -39.5
t88.5 -31.5q56 -17 89 -36t47.5 -45.5t14.5 -68.5q0 -70 -51 -104.5t-148 -34.5z" />
    <glyph glyph-name="t" unicode="t" horiz-adv-x="359" 
d="M244 -10q-76 0 -113.5 40.5t-37.5 110.5v248h-70v85h70v109l108 33v-142h126l-7 -85h-119v-242q0 -41 19 -57.5t62 -16.5q27 0 57 10v-77q-39 -16 -95 -16z" />
    <glyph glyph-name="u" unicode="u" horiz-adv-x="578" 
d="M234 -10q-85 0 -130.5 47t-45.5 138v299h109v-299q0 -53 26 -78t80 -25q40 0 74 15t59 40v347h108v-474h-99l-5 49q-32 -25 -76 -42t-100 -17z" />
    <glyph glyph-name="v" unicode="v" horiz-adv-x="578" 
d="M230 0l-187 474h113l133 -368l133 368h112l-186 -474h-118z" />
    <glyph glyph-name="w" unicode="w" horiz-adv-x="746" 
d="M168 0l-125 474h109l82 -345l93 287v58h83l103 -345l82 345h108l-124 -474h-103l-101 310l-103 -310h-104z" />
    <glyph glyph-name="x" unicode="x" horiz-adv-x="540" 
d="M30 0l181 241l-174 233h117l116 -158l116 158h117l-173 -233l180 -241h-118l-122 165l-122 -165h-118z" />
    <glyph glyph-name="y" unicode="y" horiz-adv-x="598" 
d="M170 -176q-54 0 -92 14v81q17 -6 31.5 -8t29.5 -2q31 0 50 10t33.5 31.5t31.5 55.5l-211 468h113l152 -352l154 352h112l-193 -447q-25 -60 -53.5 -105.5t-66 -71.5t-91.5 -26z" />
    <glyph glyph-name="z" unicode="z" horiz-adv-x="487" 
d="M43 0v57l259 328h-247v89h381v-67l-254 -323h261v-84h-400z" />
    <glyph glyph-name="braceleft" unicode="{" horiz-adv-x="304" 
d="M195 -104q-58 0 -82.5 28.5t-24.5 87.5v160q0 43 -13 65.5t-52 26.5v68q42 5 53.5 29.5t11.5 71.5v157q0 59 24.5 84.5t91.5 25.5h66v-84h-29q-26 0 -35.5 -11t-9.5 -40v-174q0 -28 -12.5 -55t-42.5 -38q30 -12 42.5 -38t12.5 -55v-174q0 -29 9.5 -40t35.5 -11h29v-84
h-75z" />
    <glyph glyph-name="bar" unicode="|" horiz-adv-x="196" 
d="M43 -120v855h109v-855h-109z" />
    <glyph glyph-name="braceright" unicode="}" horiz-adv-x="304" 
d="M33 -104v84h29q26 0 35.5 11t9.5 40v174q0 29 12.5 55t42.5 38q-30 11 -42.5 38t-12.5 55v174q0 29 -9.5 40t-35.5 11h-29v84h66q67 0 91.5 -25.5t24.5 -84.5v-157q0 -47 11.5 -71.5t53.5 -29.5v-68q-39 -4 -52 -26.5t-13 -65.5v-160q0 -59 -24 -87.5t-83 -28.5h-75z" />
    <glyph glyph-name="asciitilde" unicode="~" horiz-adv-x="562" 
d="M401 217q-31 0 -61 10.5t-59 24.5t-58.5 24.5t-60.5 10.5q-38 0 -66.5 -14.5t-52.5 -45.5v108q17 23 49.5 37.5t69.5 14.5q35 0 65 -10.5t58.5 -24.5t56.5 -24.5t59 -10.5q38 0 65.5 14t51.5 45v-108q-17 -24 -48 -37.5t-69 -13.5z" />
    <glyph glyph-name="uni00A0" unicode="&#xa0;" horiz-adv-x="230" 
 />
    <glyph glyph-name="exclamdown" unicode="&#xa1;" horiz-adv-x="203" 
d="M43 392v82h116v-82h-116zM47 -170v161l6 322h97l6 -322v-161h-109z" />
    <glyph glyph-name="cent" unicode="&#xa2;" horiz-adv-x="493" 
d="M260 -86v78q-107 8 -162 71t-55 174q0 113 58.5 174t158.5 71v78h80v-77q33 -2 58.5 -9t50.5 -19v-81q-44 22 -109 25v-326q59 3 110 27v-83q-48 -20 -110 -25v-78h-80zM260 78v316q-52 -12 -79.5 -49t-27.5 -108q0 -69 25 -108t82 -51z" />
    <glyph glyph-name="sterling" unicode="&#xa3;" horiz-adv-x="498" 
d="M43 0v84h25q29 0 42.5 17.5t13.5 47.5v150h-68v84h68v106q0 77 49 121t126 44q36 0 65.5 -5.5t51.5 -15.5v-78q-14 8 -38.5 11.5t-45.5 3.5q-50 0 -75 -20t-25 -67v-100h182l-4 -84h-178v-145q0 -24 -5 -41t-20 -29h247v-84h-411z" />
    <glyph glyph-name="currency" unicode="&#xa4;" horiz-adv-x="572" 
d="M92 54l-49 60l82 60q-29 41 -29 95q0 53 29 93l-81 62l48 59l83 -65q23 17 51 27.5t59 10.5q32 0 60.5 -10.5t50.5 -28.5l84 66l48 -59l-82 -62q14 -19 22 -43t8 -50t-8 -50.5t-22 -44.5l82 -61l-48 -59l-84 64q-22 -17 -50 -27t-60 -10q-31 0 -59 10t-51 27zM285 159
q46 0 78 32t32 78q0 31 -15 55.5t-40 39.5t-55 15q-46 0 -77 -32t-31 -78t31.5 -78t76.5 -32z" />
    <glyph glyph-name="yen" unicode="&#xa5;" horiz-adv-x="656" 
d="M274 0v90h-151v68h151v54h-151v68h127l-207 364h113l172 -313l172 313h113l-208 -364h128v-68h-151v-54h151v-68h-151v-90h-108z" />
    <glyph glyph-name="brokenbar" unicode="&#xa6;" horiz-adv-x="196" 
d="M43 414v321h109v-321h-109zM43 -120v320h109v-320h-109z" />
    <glyph glyph-name="section" unicode="&#xa7;" horiz-adv-x="555" 
d="M258 -10q-125 0 -201 32v96q43 -16 92.5 -26t98.5 -10q74 0 114 18t40 72q0 33 -19 53t-57 34t-96 29q-69 19 -110 40.5t-59 51t-18 72.5q0 40 19 67q-8 14 -13 32t-5 40q0 82 60.5 128t185.5 46q53 0 104 -8.5t79 -17.5v-96q-37 14 -80 21.5t-90 7.5q-39 0 -73.5 -7
t-55.5 -26t-21 -55q0 -29 14.5 -47.5t49 -32t94.5 -28.5q81 -20 124.5 -41.5t60 -50t16.5 -70.5q0 -16 -5.5 -38t-13.5 -36q19 -32 19 -71q0 -88 -65 -133.5t-189 -45.5zM414 301q5 13 5 25q0 16 -13 27.5t-45.5 23t-89.5 25.5q-45 12 -75 24t-47 28q-1 -4 -2.5 -9t-1.5 -12
q0 -25 30.5 -38.5t106.5 -33.5q49 -13 82.5 -27.5t49.5 -32.5z" />
    <glyph glyph-name="dieresis" unicode="&#xa8;" horiz-adv-x="365" 
d="M229 559v86h92v-86h-92zM43 559v86h92v-86h-92z" />
    <glyph glyph-name="copyright" unicode="&#xa9;" horiz-adv-x="751" 
d="M375 -10q-69 0 -129 26t-105.5 71.5t-71.5 105.5t-26 129t26 129t71.5 105.5t105.5 71.5t129 26t129 -26t105.5 -71.5t71.5 -105.5t26 -129t-26 -129t-71.5 -105.5t-105.5 -71.5t-129 -26zM375 57q75 0 134.5 34t93.5 94t34 137q0 76 -34 135.5t-93.5 94t-134.5 34.5
q-74 0 -133 -34.5t-93 -94t-34 -135.5q0 -77 34 -137t93 -94t133 -34zM375 99q-100 0 -158 59.5t-58 162.5q0 74 30 123t80.5 74t111.5 25q42 0 73 -9t55 -24v-61q-26 14 -53.5 20.5t-57.5 6.5q-46 0 -82.5 -15t-57.5 -49t-21 -91q0 -85 40.5 -120.5t116.5 -35.5
q29 0 60.5 8t55.5 22v-64q-27 -15 -62 -23.5t-73 -8.5z" />
    <glyph glyph-name="ordfeminine" unicode="&#xaa;" horiz-adv-x="343" 
d="M138 380q-39 0 -67 18.5t-28 60.5q0 87 107 87h82v9q0 26 -13.5 36t-56.5 10t-85 -14v51q19 7 45 11.5t54 4.5q57 0 90 -23.5t33 -76.5v-168h-60l-4 26q-19 -16 -41.5 -24t-55.5 -8zM158 427q23 0 42 8t32 27v39h-70q-29 0 -42 -8t-13 -31q0 -19 13.5 -27t37.5 -8z" />
    <glyph glyph-name="guillemotleft" unicode="&#xab;" horiz-adv-x="620" 
d="M301 73l-258 190v46l258 190l43 -62l-204 -152l204 -151zM534 73l-258 190v46l258 190l42 -62l-203 -152l203 -151z" />
    <glyph glyph-name="logicalnot" unicode="&#xac;" horiz-adv-x="524" 
d="M393 141v145h-350v85h437v-230h-87z" />
    <glyph glyph-name="uni00AD" unicode="&#xad;" horiz-adv-x="468" 
d="M43 227v85h382v-85h-382z" />
    <glyph glyph-name="registered" unicode="&#xae;" horiz-adv-x="751" 
d="M375 -10q-69 0 -129 26t-105.5 71.5t-71.5 105.5t-26 129t26 129t71.5 105.5t105.5 71.5t129 26t129 -26t105.5 -71.5t71.5 -105.5t26 -129t-26 -129t-71.5 -105.5t-105.5 -71.5t-129 -26zM375 57q75 0 134.5 34t93.5 94t34 137q0 76 -34 135.5t-93.5 94t-134.5 34.5
q-74 0 -133 -34.5t-93 -94t-34 -135.5q0 -77 34 -137t93 -94t133 -34zM226 120v407h187q67 0 101 -34.5t34 -92.5q0 -46 -23.5 -76.5t-67.5 -41.5q12 -8 18.5 -18.5t13.5 -26.5l48 -117h-67l-49 121q-8 17 -19 22.5t-42 5.5h-65v-149h-69zM295 324h81q48 0 75.5 13t27.5 63
q0 41 -18.5 56.5t-59.5 15.5h-106v-148z" />
    <glyph glyph-name="macron" unicode="&#xaf;" horiz-adv-x="365" 
d="M33 563v71h298v-71h-298z" />
    <glyph glyph-name="degree" unicode="&#xb0;" horiz-adv-x="312" 
d="M155 500q-46 0 -79.5 31.5t-33.5 80.5q0 50 33.5 80.5t79.5 30.5q47 0 80.5 -30.5t33.5 -80.5q0 -49 -33.5 -80.5t-80.5 -31.5zM155 562q22 0 36.5 14t14.5 36q0 21 -14.5 35.5t-36.5 14.5q-21 0 -35 -14.5t-14 -35.5q0 -22 14 -36t35 -14z" />
    <glyph glyph-name="plusminus" unicode="&#xb1;" horiz-adv-x="473" 
d="M193 126v141h-147v85h147v146h87v-146h147v-85h-147v-141h-87zM46 0v85h381v-85h-381z" />
    <glyph glyph-name="uni00B2" unicode="&#xb2;" horiz-adv-x="301" 
d="M43 370v38q15 23 34 40.5t42 36.5q34 28 47 42.5t13 31.5q0 19 -12.5 27t-42.5 8q-17 0 -36.5 -4t-36.5 -11v59q16 5 42.5 10.5t54.5 5.5q52 0 79.5 -25t27.5 -60q0 -28 -12 -47t-40 -45q-16 -15 -27.5 -24t-25.5 -24h107v-59h-214z" />
    <glyph glyph-name="uni00B3" unicode="&#xb3;" horiz-adv-x="304" 
d="M134 362q-22 0 -49.5 3.5t-41.5 9.5v54q18 -7 36.5 -10.5t36.5 -3.5q36 0 51 8t15 27q0 35 -59 35h-39l4 48h32q56 0 56 37q0 17 -15 23t-44 6q-36 0 -69 -13v55q14 5 38.5 9t49.5 4q65 0 92 -22.5t27 -57.5q0 -21 -9.5 -39t-31.5 -26q25 -7 36 -23t11 -39
q0 -85 -127 -85z" />
    <glyph glyph-name="acute" unicode="&#xb4;" horiz-adv-x="261" 
d="M44 522l76 177h95l-83 -177h-88z" />
    <glyph glyph-name="uni00B5" unicode="&#xb5;" horiz-adv-x="583" 
d="M63 -143v617h109v-299q0 -53 26 -78t80 -25q40 0 74 15t59 40v347h108v-474h-99l-5 49q-32 -25 -76 -42t-100 -17q-40 0 -67 15v-148h-109z" />
    <glyph glyph-name="paragraph" unicode="&#xb6;" horiz-adv-x="632" 
d="M296 -77v330q-71 0 -128.5 20.5t-91 69.5t-33.5 134q0 84 33.5 135t92 74.5t134.5 23.5h295v-787h-109v703h-85v-703h-108z" />
    <glyph glyph-name="periodcentered" unicode="&#xb7;" horiz-adv-x="179" 
d="M43 242v85h92v-85h-92z" />
    <glyph glyph-name="cedilla" unicode="&#xb8;" horiz-adv-x="293" 
d="M111 -240q-16 0 -39 2.5t-34 5.5v59q29 -8 62 -8q45 0 65 8.5t20 36.5t-21 34.5t-60 6.5h-40l29 95h73l-16 -47q54 0 81.5 -24t27.5 -66q0 -49 -35.5 -76t-112.5 -27z" />
    <glyph glyph-name="uni00B9" unicode="&#xb9;" horiz-adv-x="203" 
d="M104 370v211l-72 -15v59l147 29v-284h-75z" />
    <glyph glyph-name="ordmasculine" unicode="&#xba;" horiz-adv-x="363" 
d="M181 380q-138 0 -138 137q0 67 34.5 102t103.5 35q70 0 104 -35t34 -102q0 -137 -138 -137zM181 432q38 0 53.5 21t15.5 64q0 42 -15.5 63t-53.5 21q-37 0 -53.5 -21t-16.5 -63q0 -43 16 -64t54 -21z" />
    <glyph glyph-name="guillemotright" unicode="&#xbb;" horiz-adv-x="620" 
d="M86 73l-43 61l204 151l-204 152l43 62l258 -190v-46zM318 73l-42 61l203 151l-203 152l42 62l258 -190v-46z" />
    <glyph glyph-name="onequarter" unicode="&#xbc;" horiz-adv-x="644" 
d="M115 370v211l-72 -15v59l147 29v-284h-75zM94 0l341 644h102l-341 -644h-102zM495 0v54h-144v52l139 178h80v-177h30v-53h-30v-54h-75zM424 108h87v114z" />
    <glyph glyph-name="onehalf" unicode="&#xbd;" horiz-adv-x="651" 
d="M115 370v211l-72 -15v59l147 29v-284h-75zM94 0l341 644h102l-341 -644h-102zM383 0v38q15 23 34 40.5t42 36.5q34 28 47 42.5t13 31.5q0 19 -12.5 27t-42.5 8q-17 0 -36.5 -4t-36.5 -11v59q16 5 42.5 10.5t54.5 5.5q52 0 79.5 -25t27.5 -60q0 -28 -12 -47t-40 -45
q-16 -15 -27.5 -24t-25.5 -24h107v-59h-214z" />
    <glyph glyph-name="threequarters" unicode="&#xbe;" horiz-adv-x="660" 
d="M134 362q-22 0 -49.5 3.5t-41.5 9.5v53q18 -7 36.5 -10.5t36.5 -3.5q36 0 51 8.5t15 27.5q0 35 -59 35h-39l4 48h32q56 0 56 37q0 30 -59 30q-36 0 -69 -13v54q14 5 38.5 9t49.5 4q65 0 92 -22.5t27 -57.5q0 -21 -9.5 -39t-31.5 -26q25 -7 36 -23t11 -39q0 -85 -127 -85z
M99 0l340 644h103l-341 -644h-102zM500 0v54h-145v52l140 178h79v-177h31v-53h-31v-54h-74zM428 108h88v114z" />
    <glyph glyph-name="questiondown" unicode="&#xbf;" horiz-adv-x="495" 
d="M229 392v82h116v-82h-116zM266 -180q-109 0 -165.5 49t-56.5 134q0 56 27 90t70 71q28 23 48 41t31.5 39t11.5 51v17h109v-22q0 -39 -17 -68.5t-42.5 -52.5t-51.5 -44q-31 -25 -53.5 -51t-22.5 -63q0 -52 31 -75t109 -23q42 0 84.5 10.5t73.5 25.5v-92q-34 -16 -82 -26.5
t-104 -10.5z" />
    <glyph glyph-name="Agrave" unicode="&#xc0;" horiz-adv-x="700" 
d="M298 688l-83 177h95l76 -177h-88zM44 0l246 644h122l244 -644h-112l-64 166h-259l-64 -166h-113zM238 250h224l-112 295z" />
    <glyph glyph-name="Aacute" unicode="&#xc1;" horiz-adv-x="700" 
d="M310 688l75 177h96l-84 -177h-87zM44 0l246 644h122l244 -644h-112l-64 166h-259l-64 -166h-113zM238 250h224l-112 295z" />
    <glyph glyph-name="Acircumflex" unicode="&#xc2;" horiz-adv-x="700" 
d="M186 687l125 161h76l125 -161h-87l-76 101l-74 -101h-89zM44 0l246 644h122l244 -644h-112l-64 166h-259l-64 -166h-113zM238 250h224l-112 295z" />
    <glyph glyph-name="Atilde" unicode="&#xc3;" horiz-adv-x="700" 
d="M430 695q-27 0 -53.5 10t-51 19.5t-47.5 9.5q-26 0 -48 -8t-39 -28v80q13 14 36.5 22t48.5 8q29 0 54 -9.5t49 -19.5t50 -10q52 0 80 37v-80q-10 -13 -31 -22t-48 -9zM44 0l246 644h122l244 -644h-112l-64 166h-259l-64 -166h-113zM238 250h224l-112 295z" />
    <glyph glyph-name="Adieresis" unicode="&#xc4;" horiz-adv-x="700" 
d="M210 711v86h92v-86h-92zM396 711v86h92v-86h-92zM44 0l246 644h122l244 -644h-112l-64 166h-259l-64 -166h-113zM238 250h224l-112 295z" />
    <glyph glyph-name="Aring" unicode="&#xc5;" horiz-adv-x="700" 
d="M44 0l237 621q-48 32 -48 93q0 48 32 81t84 33q54 0 86 -33t32 -81q0 -60 -47 -92l236 -622h-112l-64 166h-259l-64 -166h-113zM349 655q28 0 44.5 17t16.5 42t-16.5 42t-44.5 17q-26 0 -42.5 -17t-16.5 -42t16.5 -42t42.5 -17zM238 250h224l-112 295z" />
    <glyph glyph-name="AE" unicode="&#xc6;" horiz-adv-x="845" 
d="M44 0l246 644h512v-85h-287v-195h250v-84h-250v-196h287v-84h-395v167h-182l-64 -167h-117zM253 251h154v310h-39z" />
    <glyph glyph-name="Ccedilla" unicode="&#xc7;" horiz-adv-x="597" 
d="M336 -240q-16 0 -39 2.5t-34 5.5v59q29 -8 62 -8q45 0 65 8.5t20 36.5t-21 34.5t-60 6.5h-40l27 87q-135 14 -204 99t-69 221q0 106 34.5 182.5t105.5 118t181 41.5q56 0 102.5 -8.5t86.5 -22.5v-95q-40 16 -85.5 24.5t-95.5 8.5q-120 0 -169.5 -64t-49.5 -185
q0 -113 54 -171.5t167 -58.5q46 0 92.5 7.5t87.5 23.5v-96q-36 -11 -77 -18t-89 -9l-13 -37q54 0 81.5 -24t27.5 -66q0 -49 -35.5 -76t-112.5 -27z" />
    <glyph glyph-name="Egrave" unicode="&#xc8;" horiz-adv-x="550" 
d="M252 688l-83 177h95l76 -177h-88zM63 0v644h449v-85h-340v-195h303v-84h-303v-196h340v-84h-449z" />
    <glyph glyph-name="Eacute" unicode="&#xc9;" horiz-adv-x="550" 
d="M230 688l75 177h96l-84 -177h-87zM63 0v644h449v-85h-340v-195h303v-84h-303v-196h340v-84h-449z" />
    <glyph glyph-name="Ecircumflex" unicode="&#xca;" horiz-adv-x="550" 
d="M117 687l125 161h76l125 -161h-87l-76 101l-74 -101h-89zM63 0v644h449v-85h-340v-195h303v-84h-303v-196h340v-84h-449z" />
    <glyph glyph-name="Edieresis" unicode="&#xcb;" horiz-adv-x="550" 
d="M146 712v86h92v-86h-92zM332 712v86h92v-86h-92zM63 0v644h449v-85h-340v-195h303v-84h-303v-196h340v-84h-449z" />
    <glyph glyph-name="Igrave" unicode="&#xcc;" horiz-adv-x="235" 
d="M74 688l-83 177h95l76 -177h-88zM63 0v644h109v-644h-109z" />
    <glyph glyph-name="Iacute" unicode="&#xcd;" horiz-adv-x="236" 
d="M70 688l75 177h96l-84 -177h-87zM63 0v644h109v-644h-109z" />
    <glyph glyph-name="Icircumflex" unicode="&#xce;" horiz-adv-x="235" 
d="M-46 687l125 161h76l125 -161h-87l-76 101l-74 -101h-89zM63 0v644h109v-644h-109z" />
    <glyph glyph-name="Idieresis" unicode="&#xcf;" horiz-adv-x="235" 
d="M-22 715v86h92v-86h-92zM164 715v86h92v-86h-92zM63 0v644h109v-644h-109z" />
    <glyph glyph-name="Eth" unicode="&#xd0;" horiz-adv-x="689" 
d="M103 0v274h-70v84h70v286h261q143 0 212 -75.5t69 -250.5q0 -165 -68 -241.5t-213 -76.5h-261zM212 84h135q63 0 105 18.5t63 69.5t21 146t-19 147t-60.5 73t-109.5 21h-135v-201h165v-84h-165v-190z" />
    <glyph glyph-name="Ntilde" unicode="&#xd1;" horiz-adv-x="667" 
d="M416 703q-27 0 -53.5 10t-51 19.5t-47.5 9.5q-26 0 -48 -8t-39 -28v80q13 14 36.5 22t48.5 8q29 0 54 -9.5t49 -19.5t50 -10q52 0 80 37v-80q-10 -13 -31 -22t-48 -9zM63 0v644h96l336 -474v474h108v-644h-96l-335 473v-473h-109z" />
    <glyph glyph-name="Ograve" unicode="&#xd2;" horiz-adv-x="697" 
d="M310 688l-83 177h95l76 -177h-88zM348 -10q-153 0 -229 80.5t-76 249.5q0 176 76 255t229 79q154 0 229.5 -79t75.5 -255q0 -169 -75.5 -249.5t-229.5 -80.5zM348 82q101 0 148.5 55.5t47.5 182.5q0 134 -47.5 187.5t-148.5 53.5q-100 0 -147.5 -53.5t-47.5 -187.5
q0 -127 47.5 -182.5t147.5 -55.5z" />
    <glyph glyph-name="Oacute" unicode="&#xd3;" horiz-adv-x="697" 
d="M300 688l75 177h96l-84 -177h-87zM348 -10q-153 0 -229 80.5t-76 249.5q0 176 76 255t229 79q154 0 229.5 -79t75.5 -255q0 -169 -75.5 -249.5t-229.5 -80.5zM348 82q101 0 148.5 55.5t47.5 182.5q0 134 -47.5 187.5t-148.5 53.5q-100 0 -147.5 -53.5t-47.5 -187.5
q0 -127 47.5 -182.5t147.5 -55.5z" />
    <glyph glyph-name="Ocircumflex" unicode="&#xd4;" horiz-adv-x="697" 
d="M185 687l125 161h76l125 -161h-87l-76 101l-74 -101h-89zM348 -10q-153 0 -229 80.5t-76 249.5q0 176 76 255t229 79q154 0 229.5 -79t75.5 -255q0 -169 -75.5 -249.5t-229.5 -80.5zM348 82q101 0 148.5 55.5t47.5 182.5q0 134 -47.5 187.5t-148.5 53.5
q-100 0 -147.5 -53.5t-47.5 -187.5q0 -127 47.5 -182.5t147.5 -55.5z" />
    <glyph glyph-name="Otilde" unicode="&#xd5;" horiz-adv-x="697" 
d="M428 695q-27 0 -53.5 10t-51 19.5t-47.5 9.5q-26 0 -48 -8t-39 -28v80q13 14 36.5 22t48.5 8q29 0 54 -9.5t49 -19.5t50 -10q52 0 80 37v-80q-10 -13 -31 -22t-48 -9zM348 -10q-153 0 -229 80.5t-76 249.5q0 176 76 255t229 79q154 0 229.5 -79t75.5 -255
q0 -169 -75.5 -249.5t-229.5 -80.5zM348 82q101 0 148.5 55.5t47.5 182.5q0 134 -47.5 187.5t-148.5 53.5q-100 0 -147.5 -53.5t-47.5 -187.5q0 -127 47.5 -182.5t147.5 -55.5z" />
    <glyph glyph-name="Odieresis" unicode="&#xd6;" horiz-adv-x="697" 
d="M209 712v86h92v-86h-92zM395 712v86h92v-86h-92zM348 -10q-153 0 -229 80.5t-76 249.5q0 176 76 255t229 79q154 0 229.5 -79t75.5 -255q0 -169 -75.5 -249.5t-229.5 -80.5zM348 82q101 0 148.5 55.5t47.5 182.5q0 134 -47.5 187.5t-148.5 53.5q-100 0 -147.5 -53.5
t-47.5 -187.5q0 -127 47.5 -182.5t147.5 -55.5z" />
    <glyph glyph-name="multiply" unicode="&#xd7;" horiz-adv-x="414" 
d="M317 90l-109 109l-105 -104l-55 55l104 105l-109 108l55 55l107 -109l110 108l55 -55l-109 -109l109 -109z" />
    <glyph glyph-name="Oslash" unicode="&#xd8;" horiz-adv-x="697" 
d="M165 -53l27 71q-149 67 -149 302q0 176 76 255t229 79q42 0 79 -6l17 45h74l-24 -63q80 -31 119.5 -107t39.5 -203q0 -169 -75.5 -249.5t-229.5 -80.5q-25 0 -47.5 2t-42.5 6l-19 -51h-74zM227 113l166 445q-21 3 -45 3q-100 0 -147.5 -53.5t-47.5 -187.5q0 -155 74 -207
zM348 82q101 0 148.5 55.5t47.5 182.5q0 88 -21 140.5t-64 76.5l-168 -450q13 -2 27 -3.5t30 -1.5z" />
    <glyph glyph-name="Ugrave" unicode="&#xd9;" horiz-adv-x="674" 
d="M307 688l-83 177h95l76 -177h-88zM338 -10q-133 0 -206.5 64t-73.5 185v405h109v-401q0 -81 44.5 -121t126.5 -40q81 0 125.5 40t44.5 121v401h108v-405q0 -121 -73 -185t-205 -64z" />
    <glyph glyph-name="Uacute" unicode="&#xda;" horiz-adv-x="674" 
d="M288 688l75 177h96l-84 -177h-87zM338 -10q-133 0 -206.5 64t-73.5 185v405h109v-401q0 -81 44.5 -121t126.5 -40q81 0 125.5 40t44.5 121v401h108v-405q0 -121 -73 -185t-205 -64z" />
    <glyph glyph-name="Ucircumflex" unicode="&#xdb;" horiz-adv-x="674" 
d="M174 687l125 161h76l125 -161h-87l-76 101l-74 -101h-89zM338 -10q-133 0 -206.5 64t-73.5 185v405h109v-401q0 -81 44.5 -121t126.5 -40q81 0 125.5 40t44.5 121v401h108v-405q0 -121 -73 -185t-205 -64z" />
    <glyph glyph-name="Udieresis" unicode="&#xdc;" horiz-adv-x="674" 
d="M192 712v86h92v-86h-92zM378 712v86h92v-86h-92zM338 -10q-133 0 -206.5 64t-73.5 185v405h109v-401q0 -81 44.5 -121t126.5 -40q81 0 125.5 40t44.5 121v401h108v-405q0 -121 -73 -185t-205 -64z" />
    <glyph glyph-name="Yacute" unicode="&#xdd;" horiz-adv-x="656" 
d="M274 688l75 177h96l-84 -177h-87zM274 0v239l-231 405h113l172 -313l172 313h113l-231 -405v-239h-108z" />
    <glyph glyph-name="Thorn" unicode="&#xde;" horiz-adv-x="590" 
d="M63 0v644h109v-110h178q74 0 122 -27.5t71 -76t23 -110.5q0 -64 -27 -112t-76 -74.5t-117 -26.5h-174v-107h-109zM172 193h154q65 0 98 34.5t33 92.5q0 62 -31.5 95t-94.5 33h-159v-255z" />
    <glyph glyph-name="germandbls" unicode="&#xdf;" horiz-adv-x="630" 
d="M382 -10q-85 0 -144 22v92q26 -11 58 -16.5t66 -5.5q53 0 84 28.5t31 82.5q0 56 -29 84t-95 28h-78v83h77q58 0 83 30.5t25 79.5t-31.5 79t-116.5 30q-70 0 -109.5 -37t-39.5 -115v-455h-105v458q0 71 31 125.5t88 85.5t135 31q84 0 139.5 -28t83 -74t27.5 -100
q0 -55 -22.5 -94t-57.5 -57q48 -15 76.5 -56.5t28.5 -103.5q0 -93 -53 -145t-152 -52z" />
    <glyph glyph-name="agrave" unicode="&#xe0;" horiz-adv-x="547" 
d="M251 522l-83 177h95l76 -177h-88zM211 -10q-45 0 -83.5 16t-61.5 48.5t-23 80.5q0 68 46.5 109.5t143.5 41.5h152v21q0 34 -10.5 54t-38 29t-80.5 9q-84 0 -157 -25v81q32 13 78 21t99 8q104 0 158.5 -42t54.5 -137v-305h-93l-7 48q-29 -28 -71.5 -43t-106.5 -15zM240 68
q49 0 85.5 16.5t59.5 44.5v83h-150q-48 0 -69.5 -18.5t-21.5 -56.5q0 -37 25 -53t71 -16z" />
    <glyph glyph-name="aacute" unicode="&#xe1;" horiz-adv-x="549" 
d="M236 522l75 177h96l-84 -177h-87zM211 -10q-45 0 -83.5 16t-61.5 48.5t-23 80.5q0 68 46.5 109.5t143.5 41.5h152v21q0 34 -10.5 54t-38 29t-80.5 9q-84 0 -157 -25v81q32 13 78 21t99 8q104 0 158.5 -42t54.5 -137v-305h-93l-7 48q-29 -28 -71.5 -43t-106.5 -15zM240 68
q49 0 85.5 16.5t59.5 44.5v83h-150q-48 0 -69.5 -18.5t-21.5 -56.5q0 -37 25 -53t71 -16z" />
    <glyph glyph-name="acircumflex" unicode="&#xe2;" horiz-adv-x="547" 
d="M122 521l125 161h76l125 -161h-87l-76 101l-74 -101h-89zM211 -10q-45 0 -83.5 16t-61.5 48.5t-23 80.5q0 68 46.5 109.5t143.5 41.5h152v21q0 34 -10.5 54t-38 29t-80.5 9q-84 0 -157 -25v81q32 13 78 21t99 8q104 0 158.5 -42t54.5 -137v-305h-93l-7 48
q-29 -28 -71.5 -43t-106.5 -15zM240 68q49 0 85.5 16.5t59.5 44.5v83h-150q-48 0 -69.5 -18.5t-21.5 -56.5q0 -37 25 -53t71 -16z" />
    <glyph glyph-name="atilde" unicode="&#xe3;" horiz-adv-x="547" 
d="M368 537q-27 0 -53.5 10t-51 19.5t-47.5 9.5q-26 0 -48 -8t-39 -28v80q13 14 36.5 22t48.5 8q29 0 54 -9.5t49 -19.5t50 -10q52 0 80 37v-80q-10 -13 -31 -22t-48 -9zM211 -10q-45 0 -83.5 16t-61.5 48.5t-23 80.5q0 68 46.5 109.5t143.5 41.5h152v21q0 34 -10.5 54
t-38 29t-80.5 9q-84 0 -157 -25v81q32 13 78 21t99 8q104 0 158.5 -42t54.5 -137v-305h-93l-7 48q-29 -28 -71.5 -43t-106.5 -15zM240 68q49 0 85.5 16.5t59.5 44.5v83h-150q-48 0 -69.5 -18.5t-21.5 -56.5q0 -37 25 -53t71 -16z" />
    <glyph glyph-name="adieresis" unicode="&#xe4;" horiz-adv-x="547" 
d="M152 546v86h92v-86h-92zM338 546v86h92v-86h-92zM211 -10q-45 0 -83.5 16t-61.5 48.5t-23 80.5q0 68 46.5 109.5t143.5 41.5h152v21q0 34 -10.5 54t-38 29t-80.5 9q-84 0 -157 -25v81q32 13 78 21t99 8q104 0 158.5 -42t54.5 -137v-305h-93l-7 48q-29 -28 -71.5 -43
t-106.5 -15zM240 68q49 0 85.5 16.5t59.5 44.5v83h-150q-48 0 -69.5 -18.5t-21.5 -56.5q0 -37 25 -53t71 -16z" />
    <glyph glyph-name="aring" unicode="&#xe5;" horiz-adv-x="547" 
d="M291 521q-52 0 -84 33t-32 80q0 48 32 81t84 33q54 0 86 -33t32 -81q0 -47 -32 -80t-86 -33zM291 575q28 0 44.5 17t16.5 42t-16.5 42t-44.5 17q-26 0 -42.5 -17t-16.5 -42t16.5 -42t42.5 -17zM211 -10q-45 0 -83.5 16t-61.5 48.5t-23 80.5q0 68 46.5 109.5t143.5 41.5
h152v21q0 34 -10.5 54t-38 29t-80.5 9q-84 0 -157 -25v81q32 13 78 21t99 8q104 0 158.5 -42t54.5 -137v-305h-93l-7 48q-29 -28 -71.5 -43t-106.5 -15zM240 68q49 0 85.5 16.5t59.5 44.5v83h-150q-48 0 -69.5 -18.5t-21.5 -56.5q0 -37 25 -53t71 -16z" />
    <glyph glyph-name="ae" unicode="&#xe6;" horiz-adv-x="881" 
d="M217 -10q-47 0 -87 16t-63.5 48.5t-23.5 80.5q0 68 46.5 109.5t143.5 41.5h152v21q0 34 -10.5 54t-38 29t-80.5 9q-84 0 -157 -25v81q32 13 78 21t99 8q122 0 173 -63q29 29 72.5 46t99.5 17q108 0 162.5 -56.5t54.5 -145.5v-88h-347q8 -69 50 -95.5t128 -26.5
q36 0 74 6.5t66 18.5v-79q-32 -14 -73.5 -21t-88.5 -7q-65 0 -117.5 20.5t-83.5 62.5q-24 -23 -54 -42t-72 -30t-103 -11zM491 265h251v33q0 49 -27 76.5t-91 27.5q-76 0 -104.5 -33t-28.5 -104zM240 68q52 0 86 15.5t59 43.5v85h-150q-48 0 -69.5 -18.5t-21.5 -56.5
q0 -37 25 -53t71 -16z" />
    <glyph glyph-name="ccedilla" unicode="&#xe7;" horiz-adv-x="493" 
d="M266 -240q-16 0 -39 2.5t-34 5.5v59q29 -8 62 -8q45 0 65 8.5t20 36.5t-21 34.5t-60 6.5h-40l27 88q-101 12 -152 74.5t-51 169.5q0 125 70.5 186t188.5 61q49 0 82.5 -7t64.5 -22v-81q-52 26 -126 26q-82 0 -126 -36.5t-44 -126.5q0 -85 39 -124.5t129 -39.5
q71 0 129 27v-83q-58 -24 -132 -27l-13 -37q54 0 81.5 -24t27.5 -66q0 -49 -35.5 -76t-112.5 -27z" />
    <glyph glyph-name="egrave" unicode="&#xe8;" horiz-adv-x="537" 
d="M229 522l-83 177h95l76 -177h-88zM303 -10q-124 0 -192 61t-68 187q0 114 58 180t176 66q108 0 162.5 -56.5t54.5 -145.5v-88h-347q8 -69 50 -95t128 -26q36 0 74 7t66 18v-80q-32 -14 -73.5 -21t-88.5 -7zM147 265h251v33q0 49 -27 76.5t-91 27.5q-76 0 -104.5 -33
t-28.5 -104z" />
    <glyph glyph-name="eacute" unicode="&#xe9;" horiz-adv-x="537" 
d="M225 522l75 177h96l-84 -177h-87zM303 -10q-124 0 -192 61t-68 187q0 114 58 180t176 66q108 0 162.5 -56.5t54.5 -145.5v-88h-347q8 -69 50 -95t128 -26q36 0 74 7t66 18v-80q-32 -14 -73.5 -21t-88.5 -7zM147 265h251v33q0 49 -27 76.5t-91 27.5q-76 0 -104.5 -33
t-28.5 -104z" />
    <glyph glyph-name="ecircumflex" unicode="&#xea;" horiz-adv-x="537" 
d="M109 521l125 161h76l125 -161h-87l-76 101l-74 -101h-89zM303 -10q-124 0 -192 61t-68 187q0 114 58 180t176 66q108 0 162.5 -56.5t54.5 -145.5v-88h-347q8 -69 50 -95t128 -26q36 0 74 7t66 18v-80q-32 -14 -73.5 -21t-88.5 -7zM147 265h251v33q0 49 -27 76.5t-91 27.5
q-76 0 -104.5 -33t-28.5 -104z" />
    <glyph glyph-name="edieresis" unicode="&#xeb;" horiz-adv-x="537" 
d="M132 546v86h92v-86h-92zM318 546v86h92v-86h-92zM303 -10q-124 0 -192 61t-68 187q0 114 58 180t176 66q108 0 162.5 -56.5t54.5 -145.5v-88h-347q8 -69 50 -95t128 -26q36 0 74 7t66 18v-80q-32 -14 -73.5 -21t-88.5 -7zM147 265h251v33q0 49 -27 76.5t-91 27.5
q-76 0 -104.5 -33t-28.5 -104z" />
    <glyph glyph-name="igrave" unicode="&#xec;" horiz-adv-x="308" 
d="M145 522l-83 177h95l76 -177h-88zM135 0v391h-72l10 83h171v-474h-109z" />
    <glyph glyph-name="iacute" unicode="&#xed;" horiz-adv-x="308" 
d="M133 522l75 177h96l-84 -177h-87zM135 0v391h-72l10 83h171v-474h-109z" />
    <glyph glyph-name="icircumflex" unicode="&#xee;" horiz-adv-x="308" 
d="M5 521l125 161h76l125 -161h-87l-76 101l-74 -101h-89zM135 0v391h-72l10 83h171v-474h-109z" />
    <glyph glyph-name="idieresis" unicode="&#xef;" horiz-adv-x="328" 
d="M40 546v86h92v-86h-92zM226 546v86h92v-86h-92zM155 0v391h-72l10 83h171v-474h-109z" />
    <glyph glyph-name="eth" unicode="&#xf0;" horiz-adv-x="573" 
d="M286 -10q-125 0 -184 56t-59 151q0 101 58.5 153.5t164.5 52.5q38 0 82 -12.5t79 -38.5v41q0 37 -4.5 67t-15.5 52l-128 -56v56l95 41q-36 27 -100 27q-43 0 -77.5 -7t-65.5 -18v75q32 11 72 17.5t86 6.5q57 0 100 -16.5t72 -45.5l92 40v-57l-60 -26q37 -67 37 -167v-143
q0 -129 -61.5 -189t-182.5 -60zM285 66q71 0 106.5 35t35.5 109v72q-30 21 -67 35t-74 14q-80 0 -112.5 -36t-32.5 -98q0 -61 36 -96t108 -35z" />
    <glyph glyph-name="ntilde" unicode="&#xf1;" horiz-adv-x="578" 
d="M372 537q-27 0 -53.5 10t-51 19.5t-47.5 9.5q-26 0 -48 -8t-39 -28v80q13 14 36.5 22t48.5 8q29 0 54 -9.5t49 -19.5t50 -10q52 0 80 37v-80q-10 -13 -31 -22t-48 -9zM63 0v474h100l5 -50q32 25 76.5 42.5t98.5 17.5q92 0 134 -43t42 -134v-307h-108v302q0 55 -22.5 77
t-84.5 22q-37 0 -72.5 -15t-59.5 -39v-347h-109z" />
    <glyph glyph-name="ograve" unicode="&#xf2;" horiz-adv-x="581" 
d="M251 522l-83 177h95l76 -177h-88zM290 -10q-128 0 -187.5 64t-59.5 183t60 183t187 64q128 0 188 -64t60 -183t-59.5 -183t-188.5 -64zM290 82q75 0 106.5 36.5t31.5 118.5t-31.5 118t-106.5 36q-74 0 -105.5 -36t-31.5 -118t31.5 -118.5t105.5 -36.5z" />
    <glyph glyph-name="oacute" unicode="&#xf3;" horiz-adv-x="581" 
d="M242 522l75 177h96l-84 -177h-87zM290 -10q-128 0 -187.5 64t-59.5 183t60 183t187 64q128 0 188 -64t60 -183t-59.5 -183t-188.5 -64zM290 82q75 0 106.5 36.5t31.5 118.5t-31.5 118t-106.5 36q-74 0 -105.5 -36t-31.5 -118t31.5 -118.5t105.5 -36.5z" />
    <glyph glyph-name="ocircumflex" unicode="&#xf4;" horiz-adv-x="581" 
d="M127 521l125 161h76l125 -161h-87l-76 101l-74 -101h-89zM290 -10q-128 0 -187.5 64t-59.5 183t60 183t187 64q128 0 188 -64t60 -183t-59.5 -183t-188.5 -64zM290 82q75 0 106.5 36.5t31.5 118.5t-31.5 118t-106.5 36q-74 0 -105.5 -36t-31.5 -118t31.5 -118.5
t105.5 -36.5z" />
    <glyph glyph-name="otilde" unicode="&#xf5;" horiz-adv-x="581" 
d="M370 545q-27 0 -53.5 10t-51 19.5t-47.5 9.5q-26 0 -48 -8t-39 -28v80q13 14 36.5 22t48.5 8q29 0 54 -9.5t49 -19.5t50 -10q52 0 80 37v-80q-10 -13 -31 -22t-48 -9zM290 -10q-128 0 -187.5 64t-59.5 183t60 183t187 64q128 0 188 -64t60 -183t-59.5 -183t-188.5 -64z
M290 82q75 0 106.5 36.5t31.5 118.5t-31.5 118t-106.5 36q-74 0 -105.5 -36t-31.5 -118t31.5 -118.5t105.5 -36.5z" />
    <glyph glyph-name="odieresis" unicode="&#xf6;" horiz-adv-x="581" 
d="M151 546v86h92v-86h-92zM337 546v86h92v-86h-92zM290 -10q-128 0 -187.5 64t-59.5 183t60 183t187 64q128 0 188 -64t60 -183t-59.5 -183t-188.5 -64zM290 82q75 0 106.5 36.5t31.5 118.5t-31.5 118t-106.5 36q-74 0 -105.5 -36t-31.5 -118t31.5 -118.5t105.5 -36.5z" />
    <glyph glyph-name="divide" unicode="&#xf7;" horiz-adv-x="468" 
d="M192 397v81h88v-81h-88zM46 227v85h381v-85h-381zM192 66v81h88v-81h-88z" />
    <glyph glyph-name="oslash" unicode="&#xf8;" horiz-adv-x="581" 
d="M144 -54l24 64q-64 26 -94.5 83.5t-30.5 143.5q0 119 60 183t187 64q29 0 53 -3l18 47h74l-24 -65q65 -25 96 -82.5t31 -143.5q0 -119 -59.5 -183t-188.5 -64q-15 0 -28.5 1.5t-26.5 2.5l-17 -48h-74zM202 102l107 288q-4 0 -9 0.5t-10 0.5q-74 0 -105.5 -36t-31.5 -118
q0 -52 11.5 -85t37.5 -50zM290 82q75 0 106.5 36.5t31.5 118.5q0 102 -52 134l-107 -288q5 -1 10.5 -1h10.5z" />
    <glyph glyph-name="ugrave" unicode="&#xf9;" horiz-adv-x="578" 
d="M253 522l-83 177h95l76 -177h-88zM234 -10q-85 0 -130.5 47t-45.5 138v299h109v-299q0 -53 26 -78t80 -25q40 0 74 15t59 40v347h108v-474h-99l-5 49q-32 -25 -76 -42t-100 -17z" />
    <glyph glyph-name="uacute" unicode="&#xfa;" horiz-adv-x="578" 
d="M227 522l75 177h96l-84 -177h-87zM234 -10q-85 0 -130.5 47t-45.5 138v299h109v-299q0 -53 26 -78t80 -25q40 0 74 15t59 40v347h108v-474h-99l-5 49q-32 -25 -76 -42t-100 -17z" />
    <glyph glyph-name="ucircumflex" unicode="&#xfb;" horiz-adv-x="578" 
d="M122 521l125 161h76l125 -161h-87l-76 101l-74 -101h-89zM234 -10q-85 0 -130.5 47t-45.5 138v299h109v-299q0 -53 26 -78t80 -25q40 0 74 15t59 40v347h108v-474h-99l-5 49q-32 -25 -76 -42t-100 -17z" />
    <glyph glyph-name="udieresis" unicode="&#xfc;" horiz-adv-x="578" 
d="M145 544v86h92v-86h-92zM331 544v86h92v-86h-92zM234 -10q-85 0 -130.5 47t-45.5 138v299h109v-299q0 -53 26 -78t80 -25q40 0 74 15t59 40v347h108v-474h-99l-5 49q-32 -25 -76 -42t-100 -17z" />
    <glyph glyph-name="yacute" unicode="&#xfd;" horiz-adv-x="598" 
d="M256 522l75 177h96l-84 -177h-87zM170 -176q-54 0 -92 14v81q17 -6 31.5 -8t29.5 -2q31 0 50 10t33.5 31.5t31.5 55.5l-211 468h113l152 -352l154 352h112l-193 -447q-25 -60 -53.5 -105.5t-66 -71.5t-91.5 -26z" />
    <glyph glyph-name="thorn" unicode="&#xfe;" horiz-adv-x="582" 
d="M63 -216v916h109v-257q31 21 69 31t81 10q101 0 159 -59.5t58 -187.5t-59 -187.5t-161 -59.5q-86 0 -147 40v-246h-109zM291 72q70 0 104 39t34 127q0 84 -31 123.5t-104 39.5t-122 -50v-237q23 -19 51.5 -30.5t67.5 -11.5z" />
    <glyph glyph-name="ydieresis" unicode="&#xff;" horiz-adv-x="598" 
d="M172 556v86h92v-86h-92zM358 556v86h92v-86h-92zM170 -176q-54 0 -92 14v81q17 -6 31.5 -8t29.5 -2q31 0 50 10t33.5 31.5t31.5 55.5l-211 468h113l152 -352l154 352h112l-193 -447q-25 -60 -53.5 -105.5t-66 -71.5t-91.5 -26z" />
    <glyph glyph-name="Amacron" unicode="&#x100;" horiz-adv-x="700" 
d="M200 709v71h298v-71h-298zM44 0l246 644h122l244 -644h-112l-64 166h-259l-64 -166h-113zM238 250h224l-112 295z" />
    <glyph glyph-name="amacron" unicode="&#x101;" horiz-adv-x="547" 
d="M138 543v71h298v-71h-298zM211 -10q-45 0 -83.5 16t-61.5 48.5t-23 80.5q0 68 46.5 109.5t143.5 41.5h152v21q0 34 -10.5 54t-38 29t-80.5 9q-84 0 -157 -25v81q32 13 78 21t99 8q104 0 158.5 -42t54.5 -137v-305h-93l-7 48q-29 -28 -71.5 -43t-106.5 -15zM240 68
q49 0 85.5 16.5t59.5 44.5v83h-150q-48 0 -69.5 -18.5t-21.5 -56.5q0 -37 25 -53t71 -16z" />
    <glyph glyph-name="Abreve" unicode="&#x102;" horiz-adv-x="700" 
d="M349 688q-66 0 -103.5 38.5t-37.5 102.5h74q0 -34 17.5 -55t49.5 -21q34 0 52 21t18 55h74q0 -64 -38.5 -102.5t-105.5 -38.5zM44 0l246 644h122l244 -644h-112l-64 166h-259l-64 -166h-113zM238 250h224l-112 295z" />
    <glyph glyph-name="abreve" unicode="&#x103;" horiz-adv-x="547" 
d="M291 522q-66 0 -103.5 38.5t-37.5 102.5h74q0 -34 17.5 -55t49.5 -21q34 0 52 21t18 55h74q0 -64 -38.5 -102.5t-105.5 -38.5zM211 -10q-45 0 -83.5 16t-61.5 48.5t-23 80.5q0 68 46.5 109.5t143.5 41.5h152v21q0 34 -10.5 54t-38 29t-80.5 9q-84 0 -157 -25v81
q32 13 78 21t99 8q104 0 158.5 -42t54.5 -137v-305h-93l-7 48q-29 -28 -71.5 -43t-106.5 -15zM240 68q49 0 85.5 16.5t59.5 44.5v83h-150q-48 0 -69.5 -18.5t-21.5 -56.5q0 -37 25 -53t71 -16z" />
    <glyph glyph-name="Aogonek" unicode="&#x104;" horiz-adv-x="700" 
d="M44 0l246 644h122l244 -644h-19q-32 -25 -50.5 -53.5t-18.5 -58.5q0 -23 12.5 -31.5t34.5 -8.5q13 0 27 3t23 8v-66q-13 -6 -34 -9.5t-43 -3.5q-43 0 -75 21.5t-32 67.5q0 38 20 73t54 58h-11l-64 166h-259l-64 -166h-113zM238 250h224l-112 295z" />
    <glyph glyph-name="aogonek" unicode="&#x105;" horiz-adv-x="556" 
d="M211 -10q-45 0 -83.5 16t-61.5 48.5t-23 80.5q0 68 46.5 109.5t143.5 41.5h152v21q0 34 -10.5 54t-38 29t-80.5 9q-84 0 -157 -25v81q32 13 78 21t99 8q104 0 158.5 -42t54.5 -137v-305h-11q-32 -25 -50.5 -53.5t-18.5 -58.5q0 -23 12.5 -31.5t34.5 -8.5q13 0 27 3t23 8
v-66q-13 -6 -34 -9.5t-43 -3.5q-43 0 -75 21.5t-32 67.5q0 38 20 73t54 58l-7 48q-29 -28 -71.5 -43t-106.5 -15zM240 68q49 0 85.5 16.5t59.5 44.5v83h-150q-48 0 -69.5 -18.5t-21.5 -56.5q0 -37 25 -53t71 -16z" />
    <glyph glyph-name="Cacute" unicode="&#x106;" horiz-adv-x="597" 
d="M302 688l75 177h96l-84 -177h-87zM365 -10q-159 0 -240.5 87t-81.5 235q0 106 34.5 182.5t105.5 118t181 41.5q56 0 102.5 -8.5t86.5 -22.5v-95q-40 16 -85.5 24.5t-95.5 8.5q-120 0 -169.5 -64t-49.5 -185q0 -113 54 -171.5t167 -58.5q46 0 92.5 7.5t87.5 23.5v-96
q-40 -13 -86.5 -20t-102.5 -7z" />
    <glyph glyph-name="cacute" unicode="&#x107;" horiz-adv-x="493" 
d="M227 522l75 177h96l-84 -177h-87zM296 -10q-125 0 -189 63.5t-64 183.5q0 125 70.5 186t188.5 61q49 0 82.5 -7t64.5 -22v-81q-52 26 -126 26q-82 0 -126 -36.5t-44 -126.5q0 -85 39 -124.5t129 -39.5q71 0 129 27v-83q-33 -13 -70.5 -20t-83.5 -7z" />
    <glyph glyph-name="Ccircumflex" unicode="&#x108;" horiz-adv-x="597" 
d="M173 687l125 161h76l125 -161h-87l-76 101l-74 -101h-89zM365 -10q-159 0 -240.5 87t-81.5 235q0 106 34.5 182.5t105.5 118t181 41.5q56 0 102.5 -8.5t86.5 -22.5v-95q-40 16 -85.5 24.5t-95.5 8.5q-120 0 -169.5 -64t-49.5 -185q0 -113 54 -171.5t167 -58.5
q46 0 92.5 7.5t87.5 23.5v-96q-40 -13 -86.5 -20t-102.5 -7z" />
    <glyph glyph-name="ccircumflex" unicode="&#x109;" horiz-adv-x="493" 
d="M111 521l125 161h76l125 -161h-87l-76 101l-74 -101h-89zM296 -10q-125 0 -189 63.5t-64 183.5q0 125 70.5 186t188.5 61q49 0 82.5 -7t64.5 -22v-81q-52 26 -126 26q-82 0 -126 -36.5t-44 -126.5q0 -85 39 -124.5t129 -39.5q71 0 129 27v-83q-33 -13 -70.5 -20t-83.5 -7
z" />
    <glyph glyph-name="Cdotaccent" unicode="&#x10a;" horiz-adv-x="597" 
d="M308 711v88h92v-88h-92zM365 -10q-159 0 -240.5 87t-81.5 235q0 106 34.5 182.5t105.5 118t181 41.5q56 0 102.5 -8.5t86.5 -22.5v-95q-40 16 -85.5 24.5t-95.5 8.5q-120 0 -169.5 -64t-49.5 -185q0 -113 54 -171.5t167 -58.5q46 0 92.5 7.5t87.5 23.5v-96
q-40 -13 -86.5 -20t-102.5 -7z" />
    <glyph glyph-name="cdotaccent" unicode="&#x10b;" horiz-adv-x="493" 
d="M235 545v88h92v-88h-92zM296 -10q-125 0 -189 63.5t-64 183.5q0 125 70.5 186t188.5 61q49 0 82.5 -7t64.5 -22v-81q-52 26 -126 26q-82 0 -126 -36.5t-44 -126.5q0 -85 39 -124.5t129 -39.5q71 0 129 27v-83q-33 -13 -70.5 -20t-83.5 -7z" />
    <glyph glyph-name="Ccaron" unicode="&#x10c;" horiz-adv-x="597" 
d="M326 687l-125 161h89l74 -101l76 101h87l-125 -161h-76zM365 -10q-159 0 -240.5 87t-81.5 235q0 106 34.5 182.5t105.5 118t181 41.5q56 0 102.5 -8.5t86.5 -22.5v-95q-40 16 -85.5 24.5t-95.5 8.5q-120 0 -169.5 -64t-49.5 -185q0 -113 54 -171.5t167 -58.5
q46 0 92.5 7.5t87.5 23.5v-96q-40 -13 -86.5 -20t-102.5 -7z" />
    <glyph glyph-name="ccaron" unicode="&#x10d;" horiz-adv-x="494" 
d="M238 521l-125 161h89l74 -101l76 101h87l-125 -161h-76zM296 -10q-125 0 -189 63.5t-64 183.5q0 125 70.5 186t188.5 61q49 0 82.5 -7t64.5 -22v-81q-52 26 -126 26q-82 0 -126 -36.5t-44 -126.5q0 -85 39 -124.5t129 -39.5q71 0 129 27v-83q-33 -13 -70.5 -20t-83.5 -7z
" />
    <glyph glyph-name="Dcaron" unicode="&#x10e;" horiz-adv-x="649" 
d="M264 698l-125 161h89l74 -101l76 101h87l-125 -161h-76zM63 0v644h261q143 0 212 -75.5t69 -250.5q0 -165 -68 -241.5t-213 -76.5h-261zM172 84h135q63 0 105 18.5t63 69.5t21 146t-19 147t-60.5 73t-109.5 21h-135v-475z" />
    <glyph glyph-name="dcaron" unicode="&#x10f;" horiz-adv-x="696" 
d="M259 -10q-97 0 -156.5 58t-59.5 187q0 128 61.5 188.5t159.5 60.5q86 0 146 -41v231h109v-674h-93l-7 47q-32 -29 -70 -43t-90 -14zM577 485l29 189h90l-46 -189h-73zM288 72q73 0 122 50v237q-47 42 -118 42q-69 0 -104 -39.5t-35 -127.5q0 -85 32.5 -123.5t102.5 -38.5
z" />
    <glyph glyph-name="Dcroat" unicode="&#x110;" horiz-adv-x="679" 
d="M93 0v274h-70v84h70v286h261q143 0 212 -75.5t69 -250.5q0 -165 -68 -241.5t-213 -76.5h-261zM202 84h135q63 0 105 18.5t63 69.5t21 146t-19 147t-60.5 73t-109.5 21h-135v-201h165v-84h-165v-190z" />
    <glyph glyph-name="dcroat" unicode="&#x111;" horiz-adv-x="582" 
d="M259 -10q-97 0 -156.5 58t-59.5 187q0 128 61.5 188.5t159.5 60.5q86 0 146 -41v92h-162v78h162v61h109v-61h49v-78h-49v-535h-93l-7 47q-32 -29 -70 -43t-90 -14zM288 72q73 0 122 50v237q-47 42 -118 42q-69 0 -104 -39.5t-35 -127.5q0 -85 32.5 -123.5t102.5 -38.5z
" />
    <glyph glyph-name="Emacron" unicode="&#x112;" horiz-adv-x="550" 
d="M128 721v71h298v-71h-298zM63 0v644h449v-85h-340v-195h303v-84h-303v-196h340v-84h-449z" />
    <glyph glyph-name="emacron" unicode="&#x113;" horiz-adv-x="537" 
d="M134 555v71h298v-71h-298zM303 -10q-124 0 -192 61t-68 187q0 114 58 180t176 66q108 0 162.5 -56.5t54.5 -145.5v-88h-347q8 -69 50 -95t128 -26q36 0 74 7t66 18v-80q-32 -14 -73.5 -21t-88.5 -7zM147 265h251v33q0 49 -27 76.5t-91 27.5q-76 0 -104.5 -33t-28.5 -104z
" />
    <glyph glyph-name="Ebreve" unicode="&#x114;" horiz-adv-x="550" 
d="M289 688q-66 0 -103.5 38.5t-37.5 102.5h74q0 -34 17.5 -55t49.5 -21q34 0 52 21t18 55h74q0 -64 -38.5 -102.5t-105.5 -38.5zM63 0v644h449v-85h-340v-195h303v-84h-303v-196h340v-84h-449z" />
    <glyph glyph-name="ebreve" unicode="&#x115;" horiz-adv-x="537" 
d="M275 522q-66 0 -103.5 38.5t-37.5 102.5h74q0 -34 17.5 -55t49.5 -21q34 0 52 21t18 55h74q0 -64 -38.5 -102.5t-105.5 -38.5zM303 -10q-124 0 -192 61t-68 187q0 114 58 180t176 66q108 0 162.5 -56.5t54.5 -145.5v-88h-347q8 -69 50 -95t128 -26q36 0 74 7t66 18v-80
q-32 -14 -73.5 -21t-88.5 -7zM147 265h251v33q0 49 -27 76.5t-91 27.5q-76 0 -104.5 -33t-28.5 -104z" />
    <glyph glyph-name="Edotaccent" unicode="&#x116;" horiz-adv-x="550" 
d="M237 711v88h92v-88h-92zM63 0v644h449v-85h-340v-195h303v-84h-303v-196h340v-84h-449z" />
    <glyph glyph-name="edotaccent" unicode="&#x117;" horiz-adv-x="537" 
d="M228 545v88h92v-88h-92zM303 -10q-124 0 -192 61t-68 187q0 114 58 180t176 66q108 0 162.5 -56.5t54.5 -145.5v-88h-347q8 -69 50 -95t128 -26q36 0 74 7t66 18v-80q-32 -14 -73.5 -21t-88.5 -7zM147 265h251v33q0 49 -27 76.5t-91 27.5q-76 0 -104.5 -33t-28.5 -104z
" />
    <glyph glyph-name="Eogonek" unicode="&#x118;" horiz-adv-x="550" 
d="M63 0v644h449v-85h-340v-195h303v-84h-303v-196h340v-84h-41q-32 -25 -50.5 -53.5t-18.5 -58.5q0 -23 12.5 -31.5t34.5 -8.5q13 0 27 3t23 8v-66q-13 -6 -34 -9.5t-43 -3.5q-43 0 -75 21.5t-32 67.5q0 38 20 73t54 58h-326z" />
    <glyph glyph-name="eogonek" unicode="&#x119;" horiz-adv-x="537" 
d="M303 -10q-124 0 -192 61t-68 187q0 114 58 180t176 66q108 0 162.5 -56.5t54.5 -145.5v-88h-347q8 -69 50 -95t128 -26q36 0 74 7t66 18v-80q-28 -12 -64 -19q-31 -25 -49 -53t-18 -58q0 -23 12.5 -31.5t34.5 -8.5q13 0 27 3t23 8v-66q-13 -6 -34 -9.5t-43 -3.5
q-43 0 -75 21.5t-32 67.5q0 34 16.5 66t44.5 55h-5zM147 265h251v33q0 49 -27 76.5t-91 27.5q-76 0 -104.5 -33t-28.5 -104z" />
    <glyph glyph-name="Ecaron" unicode="&#x11a;" horiz-adv-x="550" 
d="M253 687l-125 161h89l74 -101l76 101h87l-125 -161h-76zM63 0v644h449v-85h-340v-195h303v-84h-303v-196h340v-84h-449z" />
    <glyph glyph-name="ecaron" unicode="&#x11b;" horiz-adv-x="537" 
d="M243 521l-125 161h89l74 -101l76 101h87l-125 -161h-76zM303 -10q-124 0 -192 61t-68 187q0 114 58 180t176 66q108 0 162.5 -56.5t54.5 -145.5v-88h-347q8 -69 50 -95t128 -26q36 0 74 7t66 18v-80q-32 -14 -73.5 -21t-88.5 -7zM147 265h251v33q0 49 -27 76.5t-91 27.5
q-76 0 -104.5 -33t-28.5 -104z" />
    <glyph glyph-name="Gcircumflex" unicode="&#x11c;" horiz-adv-x="641" 
d="M194 687l125 161h76l125 -161h-87l-76 101l-74 -101h-89zM363 -10q-159 0 -239.5 86t-80.5 233q0 106 35 183.5t106.5 119.5t181.5 42q57 0 103.5 -7.5t87.5 -21.5v-94q-82 30 -182 30q-123 0 -172.5 -65t-49.5 -187q0 -111 52 -169t161 -58q86 0 139 20v180h-161v71h254
v-310q-31 -20 -88.5 -36.5t-146.5 -16.5z" />
    <glyph glyph-name="gcircumflex" unicode="&#x11d;" horiz-adv-x="554" 
d="M106 521l125 161h76l125 -161h-87l-76 101l-74 -101h-89zM255 -176q-53 0 -106 6.5t-90 19.5v84q40 -13 92 -20t99 -7q72 0 105 8t33 36q0 21 -16 29.5t-61 8.5h-128q-129 0 -129 91q0 29 17 54t54 38q-41 20 -60.5 55t-19.5 84q0 91 54.5 132t163.5 41q23 0 48 -3.5
t39 -6.5h174l-3 -71h-80q19 -16 28 -40t9 -52q0 -76 -46 -119.5t-139 -43.5q-16 0 -29.5 1.5t-29.5 3.5q-30 -3 -54 -16t-24 -35q0 -15 12 -21.5t40 -6.5h133q71 0 109.5 -30.5t38.5 -88.5q0 -70 -60.5 -100.5t-173.5 -30.5zM263 217q65 0 90.5 22t25.5 75t-25.5 77
t-90.5 24q-61 0 -89 -23t-28 -78q0 -51 26.5 -74t90.5 -23z" />
    <glyph glyph-name="Gbreve" unicode="&#x11e;" horiz-adv-x="641" 
d="M358 688q-66 0 -103.5 38.5t-37.5 102.5h74q0 -34 17.5 -55t49.5 -21q34 0 52 21t18 55h74q0 -64 -38.5 -102.5t-105.5 -38.5zM363 -10q-159 0 -239.5 86t-80.5 233q0 106 35 183.5t106.5 119.5t181.5 42q57 0 103.5 -7.5t87.5 -21.5v-94q-82 30 -182 30
q-123 0 -172.5 -65t-49.5 -187q0 -111 52 -169t161 -58q86 0 139 20v180h-161v71h254v-310q-31 -20 -88.5 -36.5t-146.5 -16.5z" />
    <glyph glyph-name="gbreve" unicode="&#x11f;" horiz-adv-x="554" 
d="M267 522q-66 0 -103.5 38.5t-37.5 102.5h74q0 -34 17.5 -55t49.5 -21q34 0 52 21t18 55h74q0 -64 -38.5 -102.5t-105.5 -38.5zM255 -176q-53 0 -106 6.5t-90 19.5v84q40 -13 92 -20t99 -7q72 0 105 8t33 36q0 21 -16 29.5t-61 8.5h-128q-129 0 -129 91q0 29 17 54t54 38
q-41 20 -60.5 55t-19.5 84q0 91 54.5 132t163.5 41q23 0 48 -3.5t39 -6.5h174l-3 -71h-80q19 -16 28 -40t9 -52q0 -76 -46 -119.5t-139 -43.5q-16 0 -29.5 1.5t-29.5 3.5q-30 -3 -54 -16t-24 -35q0 -15 12 -21.5t40 -6.5h133q71 0 109.5 -30.5t38.5 -88.5
q0 -70 -60.5 -100.5t-173.5 -30.5zM263 217q65 0 90.5 22t25.5 75t-25.5 77t-90.5 24q-61 0 -89 -23t-28 -78q0 -51 26.5 -74t90.5 -23z" />
    <glyph glyph-name="Gdotaccent" unicode="&#x120;" horiz-adv-x="641" 
d="M317 711v88h92v-88h-92zM363 -10q-159 0 -239.5 86t-80.5 233q0 106 35 183.5t106.5 119.5t181.5 42q57 0 103.5 -7.5t87.5 -21.5v-94q-82 30 -182 30q-123 0 -172.5 -65t-49.5 -187q0 -111 52 -169t161 -58q86 0 139 20v180h-161v71h254v-310q-31 -20 -88.5 -36.5
t-146.5 -16.5z" />
    <glyph glyph-name="gdotaccent" unicode="&#x121;" horiz-adv-x="554" 
d="M215 537v88h92v-88h-92zM255 -176q-53 0 -106 6.5t-90 19.5v84q40 -13 92 -20t99 -7q72 0 105 8t33 36q0 21 -16 29.5t-61 8.5h-128q-129 0 -129 91q0 29 17 54t54 38q-41 20 -60.5 55t-19.5 84q0 91 54.5 132t163.5 41q23 0 48 -3.5t39 -6.5h174l-3 -71h-80
q19 -16 28 -40t9 -52q0 -76 -46 -119.5t-139 -43.5q-16 0 -29.5 1.5t-29.5 3.5q-30 -3 -54 -16t-24 -35q0 -15 12 -21.5t40 -6.5h133q71 0 109.5 -30.5t38.5 -88.5q0 -70 -60.5 -100.5t-173.5 -30.5zM263 217q65 0 90.5 22t25.5 75t-25.5 77t-90.5 24q-61 0 -89 -23t-28 -78
q0 -51 26.5 -74t90.5 -23z" />
    <glyph glyph-name="uni0122" unicode="&#x122;" horiz-adv-x="641" 
d="M363 -10q-159 0 -239.5 86t-80.5 233q0 106 35 183.5t106.5 119.5t181.5 42q57 0 103.5 -7.5t87.5 -21.5v-94q-82 30 -182 30q-123 0 -172.5 -65t-49.5 -187q0 -111 52 -169t161 -58q86 0 139 20v180h-161v71h254v-310q-31 -20 -88.5 -36.5t-146.5 -16.5zM301 -231
l29 189h90l-46 -189h-73z" />
    <glyph glyph-name="uni0123" unicode="&#x123;" horiz-adv-x="554" 
d="M215 522l46 189h73l-29 -189h-90zM255 -176q-53 0 -106 6.5t-90 19.5v84q40 -13 92 -20t99 -7q72 0 105 8t33 36q0 21 -16 29.5t-61 8.5h-128q-129 0 -129 91q0 29 17 54t54 38q-41 20 -60.5 55t-19.5 84q0 91 54.5 132t163.5 41q23 0 48 -3.5t39 -6.5h174l-3 -71h-80
q19 -16 28 -40t9 -52q0 -76 -46 -119.5t-139 -43.5q-16 0 -29.5 1.5t-29.5 3.5q-30 -3 -54 -16t-24 -35q0 -15 12 -21.5t40 -6.5h133q71 0 109.5 -30.5t38.5 -88.5q0 -70 -60.5 -100.5t-173.5 -30.5zM263 217q65 0 90.5 22t25.5 75t-25.5 77t-90.5 24q-61 0 -89 -23t-28 -78
q0 -51 26.5 -74t90.5 -23z" />
    <glyph glyph-name="Hcircumflex" unicode="&#x124;" horiz-adv-x="654" 
d="M163 687l125 161h76l125 -161h-87l-76 101l-74 -101h-89zM63 0v644h109v-280h310v280h109v-644h-109v280h-310v-280h-109z" />
    <glyph glyph-name="hcircumflex" unicode="&#x125;" horiz-adv-x="578" 
d="M68 702l125 161h76l125 -161h-87l-76 101l-74 -101h-89zM63 0v674h109v-246q31 25 74 40.5t97 15.5q90 0 133 -43t43 -134v-307h-108v302q0 55 -23.5 77t-81.5 22q-36 0 -73 -15.5t-61 -40.5v-345h-109z" />
    <glyph glyph-name="Hbar" unicode="&#x126;" horiz-adv-x="654" 
d="M63 0v457h-50v85h50v102h109v-102h310v102h109v-102h50v-85h-50v-457h-109v280h-310v-280h-109zM172 364h310v93h-310v-93z" />
    <glyph glyph-name="hbar" unicode="&#x127;" horiz-adv-x="587" 
d="M72 0v536h-54v79h54v59h108v-59h150v-79h-150v-108q32 25 74.5 40.5t97.5 15.5q90 0 133 -43t43 -134v-307h-109v302q0 55 -23.5 77t-81.5 22q-36 0 -72.5 -15.5t-61.5 -40.5v-345h-108z" />
    <glyph glyph-name="Itilde" unicode="&#x128;" horiz-adv-x="235" 
d="M197 696q-27 0 -53.5 10t-51 19.5t-47.5 9.5q-26 0 -48 -8t-39 -28v80q13 14 36.5 22t48.5 8q29 0 54 -9.5t49 -19.5t50 -10q52 0 80 37v-80q-10 -13 -31 -22t-48 -9zM63 0v644h109v-644h-109z" />
    <glyph glyph-name="itilde" unicode="&#x129;" horiz-adv-x="308" 
d="M235 529q-27 0 -53.5 10t-51 19.5t-47.5 9.5q-26 0 -48 -8t-39 -28v80q13 14 36.5 22t48.5 8q29 0 54 -9.5t49 -19.5t50 -10q52 0 80 37v-80q-10 -13 -31 -22t-48 -9zM135 0v391h-72l10 83h171v-474h-109z" />
    <glyph glyph-name="Imacron" unicode="&#x12a;" horiz-adv-x="235" 
d="M-32 721v71h298v-71h-298zM63 0v644h109v-644h-109z" />
    <glyph glyph-name="imacron" unicode="&#x12b;" horiz-adv-x="308" 
d="M6 565v71h298v-71h-298zM135 0v391h-72l10 83h171v-474h-109z" />
    <glyph glyph-name="Ibreve" unicode="&#x12c;" horiz-adv-x="235" 
d="M116 698q-66 0 -103.5 38.5t-37.5 102.5h74q0 -34 17.5 -55t49.5 -21q34 0 52 21t18 55h74q0 -64 -38.5 -102.5t-105.5 -38.5zM63 0v644h109v-644h-109z" />
    <glyph glyph-name="ibreve" unicode="&#x12d;" horiz-adv-x="308" 
d="M162 521q-66 0 -103.5 38.5t-37.5 103.5h74q0 -35 17.5 -56t49.5 -21q34 0 52 21t18 56h74q0 -65 -38.5 -103.5t-105.5 -38.5zM135 0v391h-72l10 83h171v-474h-109z" />
    <glyph glyph-name="Iogonek" unicode="&#x12e;" horiz-adv-x="235" 
d="M63 0v644h109v-644h-10q-32 -25 -50.5 -53.5t-18.5 -58.5q0 -23 12.5 -31.5t34.5 -8.5q13 0 27 3t23 8v-66q-13 -6 -34 -9.5t-43 -3.5q-43 0 -75 21.5t-32 67.5q0 38 20 73t54 58h-17z" />
    <glyph glyph-name="iogonek" unicode="&#x12f;" horiz-adv-x="285" 
d="M103 573v90h119v-90h-119zM112 0v391h-72l10 83h171v-474h-14q-32 -25 -50.5 -53.5t-18.5 -58.5q0 -23 12.5 -31.5t34.5 -8.5q13 0 27 3t23 8v-66q-13 -6 -34 -9.5t-43 -3.5q-43 0 -75 21.5t-32 67.5q0 38 20 73t54 58h-13z" />
    <glyph glyph-name="Idotaccent" unicode="&#x130;" horiz-adv-x="235" 
d="M71 714v88h92v-88h-92zM63 0v644h109v-644h-109z" />
    <glyph glyph-name="dotlessi" unicode="&#x131;" horiz-adv-x="285" 
d="M112 0v391h-72l10 83h171v-474h-109z" />
    <glyph glyph-name="IJ" unicode="&#x132;" horiz-adv-x="651" 
d="M382 -10q-82 0 -140 23v92q24 -10 56.5 -16.5t64.5 -6.5q67 0 93.5 27.5t26.5 88.5v446h109v-464q0 -92 -52.5 -141t-157.5 -49zM63 0v644h109v-644h-109z" />
    <glyph glyph-name="ij" unicode="&#x133;" horiz-adv-x="521" 
d="M103 573v90h119v-90h-119zM338 573v90h119v-90h-119zM303 -234q-58 0 -99 16v79q17 -5 32.5 -7.5t28.5 -2.5q47 0 65.5 17t18.5 56v467h-72l10 83h170v-560q0 -67 -38.5 -107.5t-115.5 -40.5zM112 0v391h-72l10 83h171v-474h-109z" />
    <glyph glyph-name="Jcircumflex" unicode="&#x134;" horiz-adv-x="431" 
d="M155 687l125 161h76l125 -161h-87l-76 101l-74 -101h-89zM163 -10q-82 0 -140 23v92q24 -10 56.5 -16.5t64.5 -6.5q67 0 93.5 27.5t26.5 88.5v446h109v-464q0 -92 -52.5 -141t-157.5 -49z" />
    <glyph glyph-name="jcircumflex" unicode="&#x135;" horiz-adv-x="306" 
d="M7 521l125 161h76l125 -161h-87l-76 101l-74 -101h-89zM89 -234q-58 0 -99 16v79q17 -5 32.5 -7.5t28.5 -2.5q47 0 65.5 17t18.5 56v467h-72l10 83h170v-560q0 -67 -38.5 -107.5t-115.5 -40.5z" />
    <glyph glyph-name="uni0136" unicode="&#x136;" horiz-adv-x="625" 
d="M63 0v644h109v-296l274 296h126l-237 -260l247 -384h-116l-199 315l-95 -102v-213h-109zM244 -226l29 189h90l-46 -189h-73z" />
    <glyph glyph-name="uni0137" unicode="&#x137;" horiz-adv-x="550" 
d="M63 0v674h109v-390l199 190h125l-193 -191l204 -283h-115l-157 225l-63 -60v-165h-109zM198 -226l29 189h90l-46 -189h-73z" />
    <glyph glyph-name="kgreenlandic" unicode="&#x138;" horiz-adv-x="550" 
d="M63 0v474h109v-208l199 208h125l-193 -204l204 -270h-115l-156 211l-64 -66v-145h-109z" />
    <glyph glyph-name="Lacute" unicode="&#x139;" horiz-adv-x="525" 
d="M71 688l75 177h96l-84 -177h-87zM63 0v644h109v-560h330v-84h-439z" />
    <glyph glyph-name="lacute" unicode="&#x13a;" horiz-adv-x="280" 
d="M71 732l75 177h96l-84 -177h-87zM181 -10q-58 0 -88 28.5t-30 94.5v561h109v-551q0 -28 10 -38t30 -10q24 0 46 6v-79q-19 -7 -36.5 -9.5t-40.5 -2.5z" />
    <glyph glyph-name="uni013B" unicode="&#x13b;" horiz-adv-x="525" 
d="M63 0v644h109v-560h330v-84h-439zM218 -226l29 189h90l-46 -189h-73z" />
    <glyph glyph-name="uni013C" unicode="&#x13c;" horiz-adv-x="280" 
d="M181 -10q-58 0 -88 28.5t-30 94.5v561h109v-551q0 -28 10 -38t30 -10q24 0 46 6v-79q-19 -7 -36.5 -9.5t-40.5 -2.5zM104 -226l29 189h90l-46 -189h-73z" />
    <glyph glyph-name="Lcaron" unicode="&#x13d;" horiz-adv-x="525" 
d="M63 0v644h109v-560h330v-84h-439zM311 455l29 189h90l-46 -189h-73z" />
    <glyph glyph-name="lcaron" unicode="&#x13e;" horiz-adv-x="348" 
d="M181 -10q-58 0 -88 28.5t-30 94.5v561h109v-551q0 -28 10 -38t30 -10q24 0 46 6v-79q-19 -7 -36.5 -9.5t-40.5 -2.5zM229 485l29 189h90l-46 -189h-73z" />
    <glyph glyph-name="Ldot" unicode="&#x13f;" horiz-adv-x="525" 
d="M63 0v644h109v-560h330v-84h-439zM346 267v88h92v-88h-92z" />
    <glyph glyph-name="ldot" unicode="&#x140;" horiz-adv-x="325" 
d="M181 -10q-58 0 -88 28.5t-30 94.5v561h109v-551q0 -28 10 -38t30 -10q24 0 46 6v-79q-19 -7 -36.5 -9.5t-40.5 -2.5zM236 273v88h92v-88h-92z" />
    <glyph glyph-name="Lslash" unicode="&#x141;" horiz-adv-x="525" 
d="M63 0v267l-87 -38v84l87 38v293h109v-245l129 57v-84l-129 -57v-231h330v-84h-439z" />
    <glyph glyph-name="lslash" unicode="&#x142;" horiz-adv-x="280" 
d="M181 -10q-58 0 -88 28.5t-30 94.5v161l-97 -42v84l97 42v316h109v-268l109 48v-84l-109 -48v-199q0 -28 10 -38t30 -10q24 0 46 6v-79q-19 -7 -36.5 -9.5t-40.5 -2.5z" />
    <glyph glyph-name="Nacute" unicode="&#x143;" horiz-adv-x="667" 
d="M283 688l75 177h96l-84 -177h-87zM63 0v644h96l336 -474v474h108v-644h-96l-335 473v-473h-109z" />
    <glyph glyph-name="nacute" unicode="&#x144;" horiz-adv-x="578" 
d="M230 522l75 177h96l-84 -177h-87zM63 0v474h100l5 -50q32 25 76.5 42.5t98.5 17.5q92 0 134 -43t42 -134v-307h-108v302q0 55 -22.5 77t-84.5 22q-37 0 -72.5 -15t-59.5 -39v-347h-109z" />
    <glyph glyph-name="uni0145" unicode="&#x145;" horiz-adv-x="667" 
d="M63 0v644h96l336 -474v474h108v-644h-96l-335 473v-473h-109zM269 -226l29 189h90l-46 -189h-73z" />
    <glyph glyph-name="uni0146" unicode="&#x146;" horiz-adv-x="578" 
d="M63 0v474h100l5 -50q32 25 76.5 42.5t98.5 17.5q92 0 134 -43t42 -134v-307h-108v302q0 55 -22.5 77t-84.5 22q-37 0 -72.5 -15t-59.5 -39v-347h-109zM228 -226l29 189h90l-46 -189h-73z" />
    <glyph glyph-name="Ncaron" unicode="&#x147;" horiz-adv-x="667" 
d="M303 687l-125 161h89l74 -101l76 101h87l-125 -161h-76zM63 0v644h96l336 -474v474h108v-644h-96l-335 473v-473h-109z" />
    <glyph glyph-name="ncaron" unicode="&#x148;" horiz-adv-x="578" 
d="M241 521l-125 161h89l74 -101l76 101h87l-125 -161h-76zM63 0v474h100l5 -50q32 25 76.5 42.5t98.5 17.5q92 0 134 -43t42 -134v-307h-108v302q0 55 -22.5 77t-84.5 22q-37 0 -72.5 -15t-59.5 -39v-347h-109z" />
    <glyph glyph-name="napostrophe" unicode="&#x149;" horiz-adv-x="634" 
d="M-17 458l29 189h90l-46 -189h-73zM119 0v474h100l5 -50q32 25 76.5 42.5t98.5 17.5q92 0 134 -43t42 -134v-307h-108v302q0 55 -22.5 77t-84.5 22q-37 0 -72.5 -15t-59.5 -39v-347h-109z" />
    <glyph glyph-name="Eng" unicode="&#x14a;" horiz-adv-x="667" 
d="M449 -234q-58 0 -99 16v79q17 -5 32.5 -7.5t28.5 -2.5q47 0 65.5 17t18.5 56v93l-323 456v-473h-109v644h96l336 -474v474h108v-730q0 -67 -38.5 -107.5t-115.5 -40.5z" />
    <glyph glyph-name="eng" unicode="&#x14b;" horiz-adv-x="578" 
d="M365 -234q-58 0 -99 16v79q17 -5 32.5 -7.5t28.5 -2.5q47 0 65.5 17t18.5 56v378q0 55 -22.5 77t-84.5 22q-37 0 -72.5 -15t-59.5 -39v-347h-109v474h100l5 -50q32 25 76.5 42.5t98.5 17.5q92 0 134 -43t42 -134v-393q0 -67 -38.5 -107.5t-115.5 -40.5z" />
    <glyph glyph-name="Omacron" unicode="&#x14c;" horiz-adv-x="697" 
d="M197 721v71h298v-71h-298zM348 -10q-153 0 -229 80.5t-76 249.5q0 176 76 255t229 79q154 0 229.5 -79t75.5 -255q0 -169 -75.5 -249.5t-229.5 -80.5zM348 82q101 0 148.5 55.5t47.5 182.5q0 134 -47.5 187.5t-148.5 53.5q-100 0 -147.5 -53.5t-47.5 -187.5
q0 -127 47.5 -182.5t147.5 -55.5z" />
    <glyph glyph-name="omacron" unicode="&#x14d;" horiz-adv-x="581" 
d="M138 555v71h298v-71h-298zM290 -10q-128 0 -187.5 64t-59.5 183t60 183t187 64q128 0 188 -64t60 -183t-59.5 -183t-188.5 -64zM290 82q75 0 106.5 36.5t31.5 118.5t-31.5 118t-106.5 36q-74 0 -105.5 -36t-31.5 -118t31.5 -118.5t105.5 -36.5z" />
    <glyph glyph-name="Obreve" unicode="&#x14e;" horiz-adv-x="697" 
d="M347 688q-66 0 -103.5 38.5t-37.5 102.5h74q0 -34 17.5 -55t49.5 -21q34 0 52 21t18 55h74q0 -64 -38.5 -102.5t-105.5 -38.5zM348 -10q-153 0 -229 80.5t-76 249.5q0 176 76 255t229 79q154 0 229.5 -79t75.5 -255q0 -169 -75.5 -249.5t-229.5 -80.5zM348 82
q101 0 148.5 55.5t47.5 182.5q0 134 -47.5 187.5t-148.5 53.5q-100 0 -147.5 -53.5t-47.5 -187.5q0 -127 47.5 -182.5t147.5 -55.5z" />
    <glyph glyph-name="obreve" unicode="&#x14f;" horiz-adv-x="581" 
d="M289 522q-66 0 -103.5 38.5t-37.5 102.5h74q0 -34 17.5 -55t49.5 -21q34 0 52 21t18 55h74q0 -64 -38.5 -102.5t-105.5 -38.5zM290 -10q-128 0 -187.5 64t-59.5 183t60 183t187 64q128 0 188 -64t60 -183t-59.5 -183t-188.5 -64zM290 82q75 0 106.5 36.5t31.5 118.5
t-31.5 118t-106.5 36q-74 0 -105.5 -36t-31.5 -118t31.5 -118.5t105.5 -36.5z" />
    <glyph glyph-name="Ohungarumlaut" unicode="&#x150;" horiz-adv-x="697" 
d="M170 687l75 164h99l-86 -164h-88zM387 687l75 164h99l-86 -164h-88zM348 -10q-153 0 -229 80.5t-76 249.5q0 176 76 255t229 79q154 0 229.5 -79t75.5 -255q0 -169 -75.5 -249.5t-229.5 -80.5zM348 82q101 0 148.5 55.5t47.5 182.5q0 134 -47.5 187.5t-148.5 53.5
q-100 0 -147.5 -53.5t-47.5 -187.5q0 -127 47.5 -182.5t147.5 -55.5z" />
    <glyph glyph-name="ohungarumlaut" unicode="&#x151;" horiz-adv-x="581" 
d="M135 521l75 164h99l-86 -164h-88zM352 521l75 164h99l-86 -164h-88zM290 -10q-128 0 -187.5 64t-59.5 183t60 183t187 64q128 0 188 -64t60 -183t-59.5 -183t-188.5 -64zM290 82q75 0 106.5 36.5t31.5 118.5t-31.5 118t-106.5 36q-74 0 -105.5 -36t-31.5 -118
t31.5 -118.5t105.5 -36.5z" />
    <glyph glyph-name="OE" unicode="&#x152;" horiz-adv-x="1037" 
d="M348 -10q-153 0 -229 80.5t-76 249.5q0 176 76 255t229 79q124 0 196 -50v40h449v-85h-340v-195h303v-84h-303v-196h340v-84h-449v41q-72 -51 -196 -51zM348 82q101 0 148.5 55.5t47.5 182.5q0 134 -47.5 187.5t-148.5 53.5q-100 0 -147.5 -53.5t-47.5 -187.5
q0 -127 47.5 -182.5t147.5 -55.5z" />
    <glyph glyph-name="oe" unicode="&#x153;" horiz-adv-x="927" 
d="M290 -10q-128 0 -187.5 64t-59.5 183t60 183t187 64q68 0 116.5 -18.5t78.5 -53.5q29 35 74.5 53.5t107.5 18.5q108 0 162.5 -56.5t54.5 -145.5v-88h-347q8 -69 50 -95t128 -26q36 0 74 7t66 18v-80q-32 -14 -73.5 -21t-88.5 -7q-140 0 -205 74q-30 -36 -79 -55t-119 -19
zM670 402q-76 0 -104.5 -33t-28.5 -102v-2h251v33q0 49 -27 76.5t-91 27.5zM290 82q75 0 106.5 36.5t31.5 118.5t-31.5 118t-106.5 36q-74 0 -105.5 -36t-31.5 -118t31.5 -118.5t105.5 -36.5z" />
    <glyph glyph-name="Racute" unicode="&#x154;" horiz-adv-x="610" 
d="M239 688l75 177h96l-84 -177h-87zM63 0v644h296q108 0 157.5 -55.5t49.5 -150.5q0 -68 -34 -116t-98 -67q18 -13 28 -28t20 -40l81 -187h-112l-79 180q-11 26 -26.5 37t-52.5 11h-121v-228h-109zM172 316h158q59 0 93 29t34 93q0 121 -117 121h-168v-243z" />
    <glyph glyph-name="racute" unicode="&#x155;" horiz-adv-x="367" 
d="M69 522l75 177h96l-84 -177h-87zM63 0v474h100l6 -55q34 22 81 40t93 25v-83q-28 -5 -60.5 -14.5t-61.5 -21t-49 -23.5v-342h-109z" />
    <glyph glyph-name="uni0156" unicode="&#x156;" horiz-adv-x="610" 
d="M63 0v644h296q108 0 157.5 -55.5t49.5 -150.5q0 -68 -34 -116t-98 -67q18 -13 28 -28t20 -40l81 -187h-112l-79 180q-11 26 -26.5 37t-52.5 11h-121v-228h-109zM172 316h158q59 0 93 29t34 93q0 121 -117 121h-168v-243zM218 -226l29 189h90l-46 -189h-73z" />
    <glyph glyph-name="uni0157" unicode="&#x157;" horiz-adv-x="367" 
d="M63 0v474h100l6 -55q34 22 81 40t93 25v-83q-28 -5 -60.5 -14.5t-61.5 -21t-49 -23.5v-342h-109zM41 -226l29 189h90l-46 -189h-73z" />
    <glyph glyph-name="Rcaron" unicode="&#x158;" horiz-adv-x="610" 
d="M256 687l-125 161h89l74 -101l76 101h87l-125 -161h-76zM63 0v644h296q108 0 157.5 -55.5t49.5 -150.5q0 -68 -34 -116t-98 -67q18 -13 28 -28t20 -40l81 -187h-112l-79 180q-11 26 -26.5 37t-52.5 11h-121v-228h-109zM172 316h158q59 0 93 29t34 93q0 121 -117 121h-168
v-243z" />
    <glyph glyph-name="rcaron" unicode="&#x159;" horiz-adv-x="367" 
d="M158 521l-125 161h89l74 -101l76 101h87l-125 -161h-76zM63 0v474h100l6 -55q34 22 81 40t93 25v-83q-28 -5 -60.5 -14.5t-61.5 -21t-49 -23.5v-342h-109z" />
    <glyph glyph-name="Sacute" unicode="&#x15a;" horiz-adv-x="555" 
d="M217 691l75 177h96l-84 -177h-87zM258 -10q-125 0 -201 32v96q43 -16 92.5 -26t98.5 -10q77 0 115.5 18t38.5 72q0 33 -16 53t-53 34.5t-102 30.5q-104 27 -146 68.5t-42 114.5q0 85 62 133t185 48q56 0 105.5 -8t77.5 -18v-96q-76 29 -168 29q-72 0 -112 -19t-40 -69
q0 -29 14 -47t48.5 -31t95.5 -29q79 -20 122.5 -47.5t61 -64t17.5 -82.5q0 -85 -63 -133.5t-191 -48.5z" />
    <glyph glyph-name="sacute" unicode="&#x15b;" horiz-adv-x="464" 
d="M177 522l75 177h96l-84 -177h-87zM221 -10q-49 0 -93.5 7t-73.5 17v92q34 -13 75 -20t78 -7q56 0 80 10t24 39q0 21 -14.5 33t-43 22t-72.5 24q-42 14 -73 30.5t-48 42.5t-17 68q0 65 47 100.5t151 35.5q41 0 78 -6t63 -15v-91q-28 11 -61.5 17t-62.5 6q-52 0 -78.5 -9
t-26.5 -36q0 -28 27.5 -39.5t88.5 -31.5q56 -17 89 -36t47.5 -45.5t14.5 -68.5q0 -70 -51 -104.5t-148 -34.5z" />
    <glyph glyph-name="Scircumflex" unicode="&#x15c;" horiz-adv-x="555" 
d="M112 695l125 161h76l125 -161h-87l-76 101l-74 -101h-89zM258 -10q-125 0 -201 32v96q43 -16 92.5 -26t98.5 -10q77 0 115.5 18t38.5 72q0 33 -16 53t-53 34.5t-102 30.5q-104 27 -146 68.5t-42 114.5q0 85 62 133t185 48q56 0 105.5 -8t77.5 -18v-96q-76 29 -168 29
q-72 0 -112 -19t-40 -69q0 -29 14 -47t48.5 -31t95.5 -29q79 -20 122.5 -47.5t61 -64t17.5 -82.5q0 -85 -63 -133.5t-191 -48.5z" />
    <glyph glyph-name="scircumflex" unicode="&#x15d;" horiz-adv-x="464" 
d="M73 526l125 161h76l125 -161h-87l-76 101l-74 -101h-89zM221 -10q-49 0 -93.5 7t-73.5 17v92q34 -13 75 -20t78 -7q56 0 80 10t24 39q0 21 -14.5 33t-43 22t-72.5 24q-42 14 -73 30.5t-48 42.5t-17 68q0 65 47 100.5t151 35.5q41 0 78 -6t63 -15v-91q-28 11 -61.5 17
t-62.5 6q-52 0 -78.5 -9t-26.5 -36q0 -28 27.5 -39.5t88.5 -31.5q56 -17 89 -36t47.5 -45.5t14.5 -68.5q0 -70 -51 -104.5t-148 -34.5z" />
    <glyph glyph-name="Scedilla" unicode="&#x15e;" horiz-adv-x="555" 
d="M244 -240q-16 0 -39 2.5t-34 5.5v59q29 -8 62 -8q45 0 65 8.5t20 36.5t-21 34.5t-60 6.5h-40l26 86q-101 4 -166 31v96q43 -16 92.5 -26t98.5 -10q77 0 115.5 18t38.5 72q0 33 -16 53t-53 34.5t-102 30.5q-104 27 -146 68.5t-42 114.5q0 85 62 133t185 48q56 0 105.5 -8
t77.5 -18v-96q-76 29 -168 29q-72 0 -112 -19t-40 -69q0 -29 14 -47t48.5 -31t95.5 -29q79 -20 122.5 -47.5t61 -64t17.5 -82.5q0 -78 -54 -125.5t-162 -55.5l-13 -38q54 0 81.5 -24t27.5 -66q0 -49 -35.5 -76t-112.5 -27z" />
    <glyph glyph-name="scedilla" unicode="&#x15f;" horiz-adv-x="464" 
d="M209 -240q-16 0 -39 2.5t-34 5.5v59q29 -8 62 -8q45 0 65 8.5t20 36.5t-21 34.5t-60 6.5h-40l26 86q-40 2 -75 8t-59 15v92q34 -13 75 -20t78 -7q56 0 80 10t24 39q0 21 -14.5 33t-43 22t-72.5 24q-42 14 -73 30.5t-48 42.5t-17 68q0 65 47 100.5t151 35.5q41 0 78 -6
t63 -15v-91q-28 11 -61.5 17t-62.5 6q-52 0 -78.5 -9t-26.5 -36q0 -28 27.5 -39.5t88.5 -31.5q56 -17 89 -36t47.5 -45.5t14.5 -68.5q0 -63 -40.5 -97t-118.5 -40l-13 -39q54 0 81.5 -24t27.5 -66q0 -49 -35.5 -76t-112.5 -27z" />
    <glyph glyph-name="Scaron" unicode="&#x160;" horiz-adv-x="555" 
d="M252 687l-125 161h89l74 -101l76 101h87l-125 -161h-76zM258 -10q-125 0 -201 32v96q43 -16 92.5 -26t98.5 -10q77 0 115.5 18t38.5 72q0 33 -16 53t-53 34.5t-102 30.5q-104 27 -146 68.5t-42 114.5q0 85 62 133t185 48q56 0 105.5 -8t77.5 -18v-96q-76 29 -168 29
q-72 0 -112 -19t-40 -69q0 -29 14 -47t48.5 -31t95.5 -29q79 -20 122.5 -47.5t61 -64t17.5 -82.5q0 -85 -63 -133.5t-191 -48.5z" />
    <glyph glyph-name="scaron" unicode="&#x161;" horiz-adv-x="464" 
d="M196 521l-125 161h89l74 -101l76 101h87l-125 -161h-76zM221 -10q-49 0 -93.5 7t-73.5 17v92q34 -13 75 -20t78 -7q56 0 80 10t24 39q0 21 -14.5 33t-43 22t-72.5 24q-42 14 -73 30.5t-48 42.5t-17 68q0 65 47 100.5t151 35.5q41 0 78 -6t63 -15v-91q-28 11 -61.5 17
t-62.5 6q-52 0 -78.5 -9t-26.5 -36q0 -28 27.5 -39.5t88.5 -31.5q56 -17 89 -36t47.5 -45.5t14.5 -68.5q0 -70 -51 -104.5t-148 -34.5z" />
    <glyph glyph-name="uni0162" unicode="&#x162;" horiz-adv-x="568" 
d="M230 0v559h-206v85h520v-85h-205v-559h-20l-16 -47q54 0 81.5 -24t27.5 -66q0 -49 -35.5 -76t-112.5 -27q-16 0 -39 2.5t-34 5.5v59q29 -8 62 -8q45 0 65 8.5t20 36.5t-21 34.5t-60 6.5h-40l29 95h-16z" />
    <glyph glyph-name="uni0163" unicode="&#x163;" horiz-adv-x="374" 
d="M212 -240q-16 0 -39 2.5t-34 5.5v59q29 -8 62 -8q45 0 65 8.5t20 36.5t-21 34.5t-60 6.5h-40l28 91q-51 12 -75.5 50t-24.5 95v248h-70v85h70v109l108 33v-142h126l-7 -85h-119v-242q0 -41 19 -57.5t62 -16.5q27 0 57 10v-77q-33 -13 -75 -15l-13 -38q54 0 81.5 -24
t27.5 -66q0 -49 -35.5 -76t-112.5 -27z" />
    <glyph glyph-name="Tcaron" unicode="&#x164;" horiz-adv-x="568" 
d="M246 695l-125 161h89l74 -101l76 101h87l-125 -161h-76zM230 0v559h-206v85h520v-85h-205v-559h-109z" />
    <glyph glyph-name="tcaron" unicode="&#x165;" horiz-adv-x="372" 
d="M309 559l29 189h90l-46 -189h-73zM244 -10q-76 0 -113.5 40.5t-37.5 110.5v248h-70v85h70v109l108 33v-142h126l-7 -85h-119v-242q0 -41 19 -57.5t62 -16.5q27 0 57 10v-77q-39 -16 -95 -16z" />
    <glyph glyph-name="Tbar" unicode="&#x166;" horiz-adv-x="568" 
d="M230 0v306h-138v81h138v172h-206v85h520v-85h-205v-172h119v-81h-119v-306h-109z" />
    <glyph glyph-name="tbar" unicode="&#x167;" horiz-adv-x="369" 
d="M250 -10q-76 0 -113.5 40.5t-37.5 110.5v66h-67v75h67v107h-70v85h70v109l108 33v-142h126l-7 -85h-119v-107h129v-75h-129v-60q0 -41 19 -57.5t62 -16.5q27 0 57 10v-77q-39 -16 -95 -16z" />
    <glyph glyph-name="Utilde" unicode="&#x168;" horiz-adv-x="674" 
d="M411 703q-27 0 -53.5 10t-51 19.5t-47.5 9.5q-26 0 -48 -8t-39 -28v80q13 14 36.5 22t48.5 8q29 0 54 -9.5t49 -19.5t50 -10q52 0 80 37v-80q-10 -13 -31 -22t-48 -9zM338 -10q-133 0 -206.5 64t-73.5 185v405h109v-401q0 -81 44.5 -121t126.5 -40q81 0 125.5 40
t44.5 121v401h108v-405q0 -121 -73 -185t-205 -64z" />
    <glyph glyph-name="utilde" unicode="&#x169;" horiz-adv-x="578" 
d="M366 537q-27 0 -53.5 10t-51 19.5t-47.5 9.5q-26 0 -48 -8t-39 -28v80q13 14 36.5 22t48.5 8q29 0 54 -9.5t49 -19.5t50 -10q52 0 80 37v-80q-10 -13 -31 -22t-48 -9zM234 -10q-85 0 -130.5 47t-45.5 138v299h109v-299q0 -53 26 -78t80 -25q40 0 74 15t59 40v347h108
v-474h-99l-5 49q-32 -25 -76 -42t-100 -17z" />
    <glyph glyph-name="Umacron" unicode="&#x16a;" horiz-adv-x="674" 
d="M182 721v71h298v-71h-298zM338 -10q-133 0 -206.5 64t-73.5 185v405h109v-401q0 -81 44.5 -121t126.5 -40q81 0 125.5 40t44.5 121v401h108v-405q0 -121 -73 -185t-205 -64z" />
    <glyph glyph-name="umacron" unicode="&#x16b;" horiz-adv-x="578" 
d="M137 555v71h298v-71h-298zM234 -10q-85 0 -130.5 47t-45.5 138v299h109v-299q0 -53 26 -78t80 -25q40 0 74 15t59 40v347h108v-474h-99l-5 49q-32 -25 -76 -42t-100 -17z" />
    <glyph glyph-name="Ubreve" unicode="&#x16c;" horiz-adv-x="674" 
d="M324 688q-66 0 -103.5 38.5t-37.5 102.5h74q0 -34 17.5 -55t49.5 -21q34 0 52 21t18 55h74q0 -64 -38.5 -102.5t-105.5 -38.5zM338 -10q-133 0 -206.5 64t-73.5 185v405h109v-401q0 -81 44.5 -121t126.5 -40q81 0 125.5 40t44.5 121v401h108v-405q0 -121 -73 -185
t-205 -64z" />
    <glyph glyph-name="ubreve" unicode="&#x16d;" horiz-adv-x="578" 
d="M288 522q-66 0 -103.5 38.5t-37.5 102.5h74q0 -34 17.5 -55t49.5 -21q34 0 52 21t18 55h74q0 -64 -38.5 -102.5t-105.5 -38.5zM234 -10q-85 0 -130.5 47t-45.5 138v299h109v-299q0 -53 26 -78t80 -25q40 0 74 15t59 40v347h108v-474h-99l-5 49q-32 -25 -76 -42t-100 -17z
" />
    <glyph glyph-name="Uring" unicode="&#x16e;" horiz-adv-x="674" 
d="M330 687q-52 0 -84 33t-32 80q0 48 32 81t84 33q54 0 86 -33t32 -81q0 -47 -32 -80t-86 -33zM330 741q28 0 44.5 17t16.5 42t-16.5 42t-44.5 17q-26 0 -42.5 -17t-16.5 -42t16.5 -42t42.5 -17zM338 -10q-133 0 -206.5 64t-73.5 185v405h109v-401q0 -81 44.5 -121
t126.5 -40q81 0 125.5 40t44.5 121v401h108v-405q0 -121 -73 -185t-205 -64z" />
    <glyph glyph-name="uring" unicode="&#x16f;" horiz-adv-x="578" 
d="M281 521q-52 0 -84 33t-32 80q0 48 32 81t84 33q54 0 86 -33t32 -81q0 -47 -32 -80t-86 -33zM281 575q28 0 44.5 17t16.5 42t-16.5 42t-44.5 17q-26 0 -42.5 -17t-16.5 -42t16.5 -42t42.5 -17zM234 -10q-85 0 -130.5 47t-45.5 138v299h109v-299q0 -53 26 -78t80 -25
q40 0 74 15t59 40v347h108v-474h-99l-5 49q-32 -25 -76 -42t-100 -17z" />
    <glyph glyph-name="Uhungarumlaut" unicode="&#x170;" horiz-adv-x="674" 
d="M154 687l75 164h99l-86 -164h-88zM371 687l75 164h99l-86 -164h-88zM338 -10q-133 0 -206.5 64t-73.5 185v405h109v-401q0 -81 44.5 -121t126.5 -40q81 0 125.5 40t44.5 121v401h108v-405q0 -121 -73 -185t-205 -64z" />
    <glyph glyph-name="uhungarumlaut" unicode="&#x171;" horiz-adv-x="578" 
d="M105 521l75 164h99l-86 -164h-88zM322 521l75 164h99l-86 -164h-88zM234 -10q-85 0 -130.5 47t-45.5 138v299h109v-299q0 -53 26 -78t80 -25q40 0 74 15t59 40v347h108v-474h-99l-5 49q-32 -25 -76 -42t-100 -17z" />
    <glyph glyph-name="Uogonek" unicode="&#x172;" horiz-adv-x="674" 
d="M358 -220q-43 0 -75 21.5t-32 67.5q0 35 16.5 66.5t45.5 55.5q-121 6 -188 69t-67 179v405h109v-401q0 -81 44.5 -121t126.5 -40q81 0 125.5 40t44.5 121v401h108v-405q0 -107 -56.5 -169t-160.5 -76q-28 -24 -44.5 -51t-16.5 -55q0 -23 12.5 -31.5t34.5 -8.5q13 0 27 3
t23 8v-66q-13 -6 -34 -9.5t-43 -3.5z" />
    <glyph glyph-name="uogonek" unicode="&#x173;" horiz-adv-x="579" 
d="M234 -10q-85 0 -130.5 47t-45.5 138v299h109v-299q0 -53 26 -78t80 -25q40 0 74 15t59 40v347h108v-474h-17q-32 -25 -50.5 -53.5t-18.5 -58.5q0 -23 12.5 -31.5t34.5 -8.5q13 0 27 3t23 8v-66q-13 -6 -34 -9.5t-43 -3.5q-43 0 -75 21.5t-32 67.5q0 38 20 73t54 58l-5 49
q-32 -25 -76 -42t-100 -17z" />
    <glyph glyph-name="Wcircumflex" unicode="&#x174;" horiz-adv-x="869" 
d="M276 687l125 161h76l125 -161h-87l-76 101l-74 -101h-89zM194 0l-150 644h107l109 -483l122 405v78h89l137 -483l111 483h106l-149 -644h-107l-129 451l-137 -451h-109z" />
    <glyph glyph-name="wcircumflex" unicode="&#x175;" horiz-adv-x="746" 
d="M211 521l125 161h76l125 -161h-87l-76 101l-74 -101h-89zM168 0l-125 474h109l82 -345l93 287v58h83l103 -345l82 345h108l-124 -474h-103l-101 310l-103 -310h-104z" />
    <glyph glyph-name="Ycircumflex" unicode="&#x176;" horiz-adv-x="656" 
d="M165 687l125 161h76l125 -161h-87l-76 101l-74 -101h-89zM274 0v239l-231 405h113l172 -313l172 313h113l-231 -405v-239h-108z" />
    <glyph glyph-name="ycircumflex" unicode="&#x177;" horiz-adv-x="598" 
d="M146 521l125 161h76l125 -161h-87l-76 101l-74 -101h-89zM170 -176q-54 0 -92 14v81q17 -6 31.5 -8t29.5 -2q31 0 50 10t33.5 31.5t31.5 55.5l-211 468h113l152 -352l154 352h112l-193 -447q-25 -60 -53.5 -105.5t-66 -71.5t-91.5 -26z" />
    <glyph glyph-name="Ydieresis" unicode="&#x178;" horiz-adv-x="656" 
d="M189 712v86h92v-86h-92zM375 712v86h92v-86h-92zM274 0v239l-231 405h113l172 -313l172 313h113l-231 -405v-239h-108z" />
    <glyph glyph-name="Zacute" unicode="&#x179;" horiz-adv-x="575" 
d="M250 688l75 177h96l-84 -177h-87zM43 0v58l346 497h-329v89h469v-67l-343 -493h348v-84h-491z" />
    <glyph glyph-name="zacute" unicode="&#x17a;" horiz-adv-x="487" 
d="M199 522l75 177h96l-84 -177h-87zM43 0v57l259 328h-247v89h381v-67l-254 -323h261v-84h-400z" />
    <glyph glyph-name="Zdotaccent" unicode="&#x17b;" horiz-adv-x="575" 
d="M253 711v88h92v-88h-92zM43 0v58l346 497h-329v89h469v-67l-343 -493h348v-84h-491z" />
    <glyph glyph-name="zdotaccent" unicode="&#x17c;" horiz-adv-x="487" 
d="M200 545v88h92v-88h-92zM43 0v57l259 328h-247v89h381v-67l-254 -323h261v-84h-400z" />
    <glyph glyph-name="Zcaron" unicode="&#x17d;" horiz-adv-x="575" 
d="M269 687l-125 161h89l74 -101l76 101h87l-125 -161h-76zM43 0v58l346 497h-329v89h469v-67l-343 -493h348v-84h-491z" />
    <glyph glyph-name="zcaron" unicode="&#x17e;" horiz-adv-x="487" 
d="M200 521l-125 161h89l74 -101l76 101h87l-125 -161h-76zM43 0v57l259 328h-247v89h381v-67l-254 -323h261v-84h-400z" />
    <glyph glyph-name="uni018F" unicode="&#x18f;" horiz-adv-x="674" 
d="M325 -10q-95 0 -157.5 34t-93.5 94.5t-31 140.5v111h488q-4 72 -30.5 116t-82 64t-146.5 20q-45 0 -98 -10.5t-92 -27.5v83q43 17 99 28t114 11q170 0 253 -86.5t83 -253.5q0 -100 -31.5 -172.5t-99 -112t-175.5 -39.5zM325 71q105 0 155.5 55.5t50.5 165.5h-392v-54
q0 -81 49 -124t137 -43z" />
    <glyph glyph-name="florin" unicode="&#x192;" horiz-adv-x="517" 
d="M16 -123q-51 0 -81 17v77q28 -11 60 -11q45 0 67.5 16.5t32.5 62.5l73 350h-68l18 85h68l13 58q17 77 63.5 117.5t126.5 40.5q30 0 49 -4.5t38 -12.5v-78q-13 5 -33 8t-37 3q-45 0 -67.5 -17t-31.5 -58l-12 -57h124l-23 -85h-119l-75 -355q-16 -76 -60.5 -116.5
t-125.5 -40.5z" />
    <glyph glyph-name="Ohorn" unicode="&#x1a0;" horiz-adv-x="770" 
d="M348 -10q-153 0 -229 80.5t-76 249.5q0 176 76 255t229 79q151 0 225 -77q55 1 75.5 24.5t20.5 86.5h84q0 -92 -33 -133.5t-98 -51.5q31 -71 31 -183q0 -169 -75.5 -249.5t-229.5 -80.5zM348 82q101 0 148.5 55.5t47.5 182.5q0 134 -47.5 187.5t-148.5 53.5
q-100 0 -147.5 -53.5t-47.5 -187.5q0 -127 47.5 -182.5t147.5 -55.5z" />
    <glyph glyph-name="ohorn" unicode="&#x1a1;" horiz-adv-x="676" 
d="M290 -10q-128 0 -187.5 64t-59.5 183t60 183t187 64q65 0 111 -16.5t77 -48.5q57 1 77 27t20 90h84q0 -94 -34.5 -137t-103.5 -53q17 -48 17 -109q0 -119 -59.5 -183t-188.5 -64zM290 82q75 0 106.5 36.5t31.5 118.5t-31.5 118t-106.5 36q-74 0 -105.5 -36t-31.5 -118
t31.5 -118.5t105.5 -36.5z" />
    <glyph glyph-name="Uhorn" unicode="&#x1af;" horiz-adv-x="781" 
d="M338 -10q-133 0 -206.5 64t-73.5 185v405h109v-401q0 -81 44.5 -121t126.5 -40q81 0 125.5 40t44.5 121v401h108v-70q55 2 76 26t21 88h84q0 -107 -44 -148t-137 -43v-258q0 -121 -73 -185t-205 -64z" />
    <glyph glyph-name="uhorn" unicode="&#x1b0;" horiz-adv-x="702" 
d="M234 -10q-85 0 -130.5 47t-45.5 138v299h109v-299q0 -53 26 -78t80 -25q40 0 74 15t59 40v347h108v-55q48 4 65 31t17 86h84q0 -100 -41 -144.5t-125 -47.5v-344h-99l-5 49q-32 -25 -76 -42t-100 -17z" />
    <glyph glyph-name="uni01CD" unicode="&#x1cd;" horiz-adv-x="700" 
d="M311 687l-125 161h89l74 -101l76 101h87l-125 -161h-76zM44 0l246 644h122l244 -644h-112l-64 166h-259l-64 -166h-113zM238 250h224l-112 295z" />
    <glyph glyph-name="uni01CE" unicode="&#x1ce;" horiz-adv-x="547" 
d="M245 521l-125 161h89l74 -101l76 101h87l-125 -161h-76zM211 -10q-45 0 -83.5 16t-61.5 48.5t-23 80.5q0 68 46.5 109.5t143.5 41.5h152v21q0 34 -10.5 54t-38 29t-80.5 9q-84 0 -157 -25v81q32 13 78 21t99 8q104 0 158.5 -42t54.5 -137v-305h-93l-7 48
q-29 -28 -71.5 -43t-106.5 -15zM240 68q49 0 85.5 16.5t59.5 44.5v83h-150q-48 0 -69.5 -18.5t-21.5 -56.5q0 -37 25 -53t71 -16z" />
    <glyph glyph-name="uni01CF" unicode="&#x1cf;" horiz-adv-x="235" 
d="M80 687l-125 161h89l74 -101l76 101h87l-125 -161h-76zM63 0v644h109v-644h-109z" />
    <glyph glyph-name="uni01D0" unicode="&#x1d0;" horiz-adv-x="308" 
d="M127 521l-125 161h89l74 -101l76 101h87l-125 -161h-76zM135 0v391h-72l10 83h171v-474h-109z" />
    <glyph glyph-name="uni01D1" unicode="&#x1d1;" horiz-adv-x="697" 
d="M310 687l-125 161h89l74 -101l76 101h87l-125 -161h-76zM348 -10q-153 0 -229 80.5t-76 249.5q0 176 76 255t229 79q154 0 229.5 -79t75.5 -255q0 -169 -75.5 -249.5t-229.5 -80.5zM348 82q101 0 148.5 55.5t47.5 182.5q0 134 -47.5 187.5t-148.5 53.5
q-100 0 -147.5 -53.5t-47.5 -187.5q0 -127 47.5 -182.5t147.5 -55.5z" />
    <glyph glyph-name="uni01D2" unicode="&#x1d2;" horiz-adv-x="581" 
d="M252 521l-125 161h89l74 -101l76 101h87l-125 -161h-76zM290 -10q-128 0 -187.5 64t-59.5 183t60 183t187 64q128 0 188 -64t60 -183t-59.5 -183t-188.5 -64zM290 82q75 0 106.5 36.5t31.5 118.5t-31.5 118t-106.5 36q-74 0 -105.5 -36t-31.5 -118t31.5 -118.5
t105.5 -36.5z" />
    <glyph glyph-name="uni01D3" unicode="&#x1d3;" horiz-adv-x="674" 
d="M299 687l-125 161h89l74 -101l76 101h87l-125 -161h-76zM338 -10q-133 0 -206.5 64t-73.5 185v405h109v-401q0 -81 44.5 -121t126.5 -40q81 0 125.5 40t44.5 121v401h108v-405q0 -121 -73 -185t-205 -64z" />
    <glyph glyph-name="uni01D4" unicode="&#x1d4;" horiz-adv-x="578" 
d="M248 521l-125 161h89l74 -101l76 101h87l-125 -161h-76zM234 -10q-85 0 -130.5 47t-45.5 138v299h109v-299q0 -53 26 -78t80 -25q40 0 74 15t59 40v347h108v-474h-99l-5 49q-32 -25 -76 -42t-100 -17z" />
    <glyph glyph-name="uni01D5" unicode="&#x1d5;" horiz-adv-x="674" 
d="M188 853v71h298v-71h-298zM198 703v86h92v-86h-92zM384 703v86h92v-86h-92zM338 -10q-133 0 -206.5 64t-73.5 185v405h109v-401q0 -81 44.5 -121t126.5 -40q81 0 125.5 40t44.5 121v401h108v-405q0 -121 -73 -185t-205 -64z" />
    <glyph glyph-name="uni01D6" unicode="&#x1d6;" horiz-adv-x="578" 
d="M142 672v71h298v-71h-298zM151 538v86h92v-86h-92zM337 538v86h92v-86h-92zM234 -10q-85 0 -130.5 47t-45.5 138v299h109v-299q0 -53 26 -78t80 -25q40 0 74 15t59 40v347h108v-474h-99l-5 49q-32 -25 -76 -42t-100 -17z" />
    <glyph glyph-name="uni01D7" unicode="&#x1d7;" horiz-adv-x="674" 
d="M296 786l61 127h83l-67 -127h-77zM193 688v84h90v-84h-90zM392 688v84h89v-84h-89zM338 -10q-133 0 -206.5 64t-73.5 185v405h109v-401q0 -81 44.5 -121t126.5 -40q81 0 125.5 40t44.5 121v401h108v-405q0 -121 -73 -185t-205 -64z" />
    <glyph glyph-name="uni01D8" unicode="&#x1d8;" horiz-adv-x="578" 
d="M241 620l61 127h83l-67 -127h-77zM138 522v84h90v-84h-90zM337 522v84h89v-84h-89zM234 -10q-85 0 -130.5 47t-45.5 138v299h109v-299q0 -53 26 -78t80 -25q40 0 74 15t59 40v347h108v-474h-99l-5 49q-32 -25 -76 -42t-100 -17z" />
    <glyph glyph-name="uni01D9" unicode="&#x1d9;" horiz-adv-x="674" 
d="M298 784l-112 120h85l67 -78l68 78h83l-112 -120h-79zM191 688v84h90v-84h-90zM390 688v84h89v-84h-89zM338 -10q-133 0 -206.5 64t-73.5 185v405h109v-401q0 -81 44.5 -121t126.5 -40q81 0 125.5 40t44.5 121v401h108v-405q0 -121 -73 -185t-205 -64z" />
    <glyph glyph-name="uni01DA" unicode="&#x1da;" horiz-adv-x="578" 
d="M249 617l-112 120h85l67 -78l68 78h83l-112 -120h-79zM142 521v84h90v-84h-90zM341 521v84h89v-84h-89zM234 -10q-85 0 -130.5 47t-45.5 138v299h109v-299q0 -53 26 -78t80 -25q40 0 74 15t59 40v347h108v-474h-99l-5 49q-32 -25 -76 -42t-100 -17z" />
    <glyph glyph-name="uni01DB" unicode="&#x1db;" horiz-adv-x="674" 
d="M299 786l-67 127h84l60 -127h-77zM191 688v84h90v-84h-90zM390 688v84h89v-84h-89zM338 -10q-133 0 -206.5 64t-73.5 185v405h109v-401q0 -81 44.5 -121t126.5 -40q81 0 125.5 40t44.5 121v401h108v-405q0 -121 -73 -185t-205 -64z" />
    <glyph glyph-name="uni01DC" unicode="&#x1dc;" horiz-adv-x="578" 
d="M253 620l-67 127h84l60 -127h-77zM145 522v84h90v-84h-90zM344 522v84h89v-84h-89zM234 -10q-85 0 -130.5 47t-45.5 138v299h109v-299q0 -53 26 -78t80 -25q40 0 74 15t59 40v347h108v-474h-99l-5 49q-32 -25 -76 -42t-100 -17z" />
    <glyph glyph-name="Gcaron" unicode="&#x1e6;" horiz-adv-x="641" 
d="M320 686l-125 161h89l74 -101l76 101h87l-125 -161h-76zM363 -10q-159 0 -239.5 86t-80.5 233q0 106 35 183.5t106.5 119.5t181.5 42q57 0 103.5 -7.5t87.5 -21.5v-94q-82 30 -182 30q-123 0 -172.5 -65t-49.5 -187q0 -111 52 -169t161 -58q86 0 139 20v180h-161v71h254
v-310q-31 -20 -88.5 -36.5t-146.5 -16.5z" />
    <glyph glyph-name="gcaron" unicode="&#x1e7;" horiz-adv-x="554" 
d="M248 521l-125 161h89l74 -101l76 101h87l-125 -161h-76zM255 -176q-53 0 -106 6.5t-90 19.5v84q40 -13 92 -20t99 -7q72 0 105 8t33 36q0 21 -16 29.5t-61 8.5h-128q-129 0 -129 91q0 29 17 54t54 38q-41 20 -60.5 55t-19.5 84q0 91 54.5 132t163.5 41q23 0 48 -3.5
t39 -6.5h174l-3 -71h-80q19 -16 28 -40t9 -52q0 -76 -46 -119.5t-139 -43.5q-16 0 -29.5 1.5t-29.5 3.5q-30 -3 -54 -16t-24 -35q0 -15 12 -21.5t40 -6.5h133q71 0 109.5 -30.5t38.5 -88.5q0 -70 -60.5 -100.5t-173.5 -30.5zM263 217q65 0 90.5 22t25.5 75t-25.5 77
t-90.5 24q-61 0 -89 -23t-28 -78q0 -51 26.5 -74t90.5 -23z" />
    <glyph glyph-name="Aringacute" unicode="&#x1fa;" horiz-adv-x="700" 
d="M293 853l75 177h96l-84 -177h-87zM44 0l237 621q-48 32 -48 93q0 48 32 81t84 33q54 0 86 -33t32 -81q0 -60 -47 -92l236 -622h-112l-64 166h-259l-64 -166h-113zM349 655q28 0 44.5 17t16.5 42t-16.5 42t-44.5 17q-26 0 -42.5 -17t-16.5 -42t16.5 -42t42.5 -17zM238 250
h224l-112 295z" />
    <glyph glyph-name="aringacute" unicode="&#x1fb;" horiz-adv-x="547" 
d="M235 784l75 141h96l-84 -141h-87zM282 517q-52 0 -84 33t-32 80q0 48 32 81t84 33q54 0 86 -33t32 -81q0 -47 -32 -80t-86 -33zM282 571q28 0 44.5 17t16.5 42t-16.5 42t-44.5 17q-26 0 -42.5 -17t-16.5 -42t16.5 -42t42.5 -17zM211 -10q-45 0 -83.5 16t-61.5 48.5
t-23 80.5q0 68 46.5 109.5t143.5 41.5h152v21q0 34 -10.5 54t-38 29t-80.5 9q-84 0 -157 -25v81q32 13 78 21t99 8q104 0 158.5 -42t54.5 -137v-305h-93l-7 48q-29 -28 -71.5 -43t-106.5 -15zM240 68q49 0 85.5 16.5t59.5 44.5v83h-150q-48 0 -69.5 -18.5t-21.5 -56.5
q0 -37 25 -53t71 -16z" />
    <glyph glyph-name="AEacute" unicode="&#x1fc;" horiz-adv-x="845" 
d="M427 688l75 177h96l-84 -177h-87zM44 0l246 644h512v-85h-287v-195h250v-84h-250v-196h287v-84h-395v167h-182l-64 -167h-117zM253 251h154v310h-39z" />
    <glyph glyph-name="aeacute" unicode="&#x1fd;" horiz-adv-x="881" 
d="M392 522l75 177h96l-84 -177h-87zM217 -10q-47 0 -87 16t-63.5 48.5t-23.5 80.5q0 68 46.5 109.5t143.5 41.5h152v21q0 34 -10.5 54t-38 29t-80.5 9q-84 0 -157 -25v81q32 13 78 21t99 8q122 0 173 -63q29 29 72.5 46t99.5 17q108 0 162.5 -56.5t54.5 -145.5v-88h-347
q8 -69 50 -95.5t128 -26.5q36 0 74 6.5t66 18.5v-79q-32 -14 -73.5 -21t-88.5 -7q-65 0 -117.5 20.5t-83.5 62.5q-24 -23 -54 -42t-72 -30t-103 -11zM491 265h251v33q0 49 -27 76.5t-91 27.5q-76 0 -104.5 -33t-28.5 -104zM240 68q52 0 86 15.5t59 43.5v85h-150
q-48 0 -69.5 -18.5t-21.5 -56.5q0 -37 25 -53t71 -16z" />
    <glyph glyph-name="Oslashacute" unicode="&#x1fe;" horiz-adv-x="697" 
d="M285 688l75 177h96l-84 -177h-87zM165 -53l27 71q-149 67 -149 302q0 176 76 255t229 79q42 0 79 -6l17 45h74l-24 -63q80 -31 119.5 -107t39.5 -203q0 -169 -75.5 -249.5t-229.5 -80.5q-25 0 -47.5 2t-42.5 6l-19 -51h-74zM227 113l166 445q-21 3 -45 3
q-100 0 -147.5 -53.5t-47.5 -187.5q0 -155 74 -207zM348 82q101 0 148.5 55.5t47.5 182.5q0 88 -21 140.5t-64 76.5l-168 -450q13 -2 27 -3.5t30 -1.5z" />
    <glyph glyph-name="oslashacute" unicode="&#x1ff;" horiz-adv-x="581" 
d="M227 522l75 177h96l-84 -177h-87zM144 -54l24 64q-64 26 -94.5 83.5t-30.5 143.5q0 119 60 183t187 64q29 0 53 -3l18 47h74l-24 -65q65 -25 96 -82.5t31 -143.5q0 -119 -59.5 -183t-188.5 -64q-15 0 -28.5 1.5t-26.5 2.5l-17 -48h-74zM202 102l107 288q-4 0 -9 0.5
t-10 0.5q-74 0 -105.5 -36t-31.5 -118q0 -52 11.5 -85t37.5 -50zM290 82q75 0 106.5 36.5t31.5 118.5q0 102 -52 134l-107 -288q5 -1 10.5 -1h10.5z" />
    <glyph glyph-name="uni0218" unicode="&#x218;" horiz-adv-x="555" 
d="M258 -10q-125 0 -201 32v96q43 -16 92.5 -26t98.5 -10q77 0 115.5 18t38.5 72q0 33 -16 53t-53 34.5t-102 30.5q-104 27 -146 68.5t-42 114.5q0 85 62 133t185 48q56 0 105.5 -8t77.5 -18v-96q-76 29 -168 29q-72 0 -112 -19t-40 -69q0 -29 14 -47t48.5 -31t95.5 -29
q79 -20 122.5 -47.5t61 -64t17.5 -82.5q0 -85 -63 -133.5t-191 -48.5zM200 -223l28 173h96l-41 -173h-83z" />
    <glyph glyph-name="uni0219" unicode="&#x219;" horiz-adv-x="464" 
d="M221 -10q-49 0 -93.5 7t-73.5 17v92q34 -13 75 -20t78 -7q56 0 80 10t24 39q0 21 -14.5 33t-43 22t-72.5 24q-42 14 -73 30.5t-48 42.5t-17 68q0 65 47 100.5t151 35.5q41 0 78 -6t63 -15v-91q-28 11 -61.5 17t-62.5 6q-52 0 -78.5 -9t-26.5 -36q0 -28 27.5 -39.5
t88.5 -31.5q56 -17 89 -36t47.5 -45.5t14.5 -68.5q0 -70 -51 -104.5t-148 -34.5zM158 -223l28 173h96l-41 -173h-83z" />
    <glyph glyph-name="uni021A" unicode="&#x21a;" horiz-adv-x="568" 
d="M230 0v559h-206v85h520v-85h-205v-559h-109zM213 -234l29 189h90l-46 -189h-73z" />
    <glyph glyph-name="uni021B" unicode="&#x21b;" horiz-adv-x="363" 
d="M244 -10q-76 0 -113.5 40.5t-37.5 110.5v248h-70v85h70v109l108 33v-142h126l-7 -85h-119v-242q0 -41 19 -57.5t62 -16.5q27 0 57 10v-77q-39 -16 -95 -16zM158 -234l29 189h90l-46 -189h-73z" />
    <glyph glyph-name="uni0237" unicode="&#x237;" horiz-adv-x="306" 
d="M89 -234q-58 0 -99 16v79q17 -5 32.5 -7.5t28.5 -2.5q47 0 65.5 17t18.5 56v467h-72l10 83h170v-560q0 -67 -38.5 -107.5t-115.5 -40.5z" />
    <glyph glyph-name="uni0251" unicode="&#x251;" horiz-adv-x="583" 
d="M259 -10q-64 0 -113 21.5t-76 71.5t-27 135q0 83 30.5 142.5t82.5 91.5t116 32q43 0 75 -10t63 -33v33h109v-474h-93l-7 47q-32 -29 -70 -43t-90 -14zM288 72q73 0 122 50v235q-22 21 -47.5 32.5t-61.5 11.5q-74 0 -111 -47.5t-37 -136.5q0 -84 32.5 -114.5t102.5 -30.5z
" />
    <glyph glyph-name="uni0259" unicode="&#x259;" horiz-adv-x="537" 
d="M260 -10q-108 0 -162.5 57t-54.5 145v87h347q-8 69 -50 95t-128 26q-36 0 -73.5 -6.5t-66.5 -18.5v80q66 29 162 29q125 0 192.5 -61t67.5 -188q0 -113 -57.5 -179t-176.5 -66zM257 71q76 0 104.5 33.5t28.5 103.5h-251v-32q0 -49 27 -77t91 -28z" />
    <glyph glyph-name="uni02BB" unicode="&#x2bb;" horiz-adv-x="235" 
d="M43 459l66 195h82l-52 -195h-96z" />
    <glyph glyph-name="uni02BC" unicode="&#x2bc;" horiz-adv-x="235" 
d="M43 459l53 195h95l-66 -195h-82z" />
    <glyph glyph-name="uni02BE" unicode="&#x2be;" 
d="M-380 464v68q39 0 59.5 21.5t20.5 58.5t-20.5 58t-59.5 21v68q72 0 110.5 -41t38.5 -106t-38.5 -106.5t-110.5 -41.5z" />
    <glyph glyph-name="uni02BF" unicode="&#x2bf;" 
d="M-231 464q-71 0 -110 41.5t-39 106.5t39 106t110 41v-68q-39 0 -59 -21t-20 -58t20 -58.5t59 -21.5v-68z" />
    <glyph glyph-name="circumflex" unicode="&#x2c6;" horiz-adv-x="345" 
d="M9 534l125 161h76l125 -161h-87l-76 101l-74 -101h-89z" />
    <glyph glyph-name="caron" unicode="&#x2c7;" horiz-adv-x="345" 
d="M134 534l-125 161h89l74 -101l76 101h87l-125 -161h-76z" />
    <glyph glyph-name="uni02C8" unicode="&#x2c8;" 
d="M-54 482v178h73v-178h-73z" />
    <glyph glyph-name="uni02C9" unicode="&#x2c9;" 
d="M99 563v71h298v-71h-298z" />
    <glyph glyph-name="uni02CA" unicode="&#x2ca;" 
d="M-102 522l76 177h95l-83 -177h-88z" />
    <glyph glyph-name="uni02CB" unicode="&#x2cb;" 
d="M-23 522l-83 177h95l76 -177h-88z" />
    <glyph glyph-name="uni02CC" unicode="&#x2cc;" 
d="M-54 -219v178h73v-178h-73z" />
    <glyph glyph-name="breve" unicode="&#x2d8;" horiz-adv-x="310" 
d="M153 537q-66 0 -103.5 38.5t-37.5 103.5h74q0 -35 17.5 -56t49.5 -21q34 0 52 21t18 56h74q0 -65 -38.5 -103.5t-105.5 -38.5z" />
    <glyph glyph-name="dotaccent" unicode="&#x2d9;" horiz-adv-x="145" 
d="M26 558v88h92v-88h-92z" />
    <glyph glyph-name="ring" unicode="&#x2da;" horiz-adv-x="293" 
d="M148 526q-49 0 -82 31.5t-33 79.5q0 47 33 79.5t82 32.5q50 0 82.5 -32.5t32.5 -79.5q0 -48 -32.5 -79.5t-82.5 -31.5zM148 583q23 0 38.5 16t15.5 38q0 23 -15.5 38.5t-38.5 15.5t-39 -15.5t-16 -38.5q0 -22 16 -38t39 -16z" />
    <glyph glyph-name="ogonek" unicode="&#x2db;" horiz-adv-x="237" 
d="M136 -220q-43 0 -75 21.5t-32 67.5q0 38 20 73t54 58h82q-33 -25 -51.5 -53.5t-18.5 -58.5q0 -23 13 -31.5t35 -8.5q13 0 26.5 3t22.5 8v-66q-13 -6 -34 -9.5t-42 -3.5z" />
    <glyph glyph-name="tilde" unicode="&#x2dc;" horiz-adv-x="370" 
d="M264 564q-27 0 -53.5 10t-51 19.5t-47.5 9.5q-26 0 -48 -8t-39 -28v80q13 14 36.5 22t48.5 8q29 0 54 -9.5t49 -19.5t50 -10q52 0 80 37v-80q-10 -13 -31 -22t-48 -9z" />
    <glyph glyph-name="hungarumlaut" unicode="&#x2dd;" horiz-adv-x="407" 
d="M226 533l75 164h99l-87 -164h-87zM9 533l75 164h99l-87 -164h-87z" />
    <glyph glyph-name="gravecomb" unicode="&#x300;" 
d="M-375 522l-83 177h95l76 -177h-88z" />
    <glyph glyph-name="acutecomb" unicode="&#x301;" 
d="M-402 522l75 177h96l-84 -177h-87z" />
    <glyph glyph-name="uni0302" unicode="&#x302;" 
d="M-192 534l125 161h76l125 -161h-87l-76 101l-74 -101h-89z" />
    <glyph glyph-name="tildecomb" unicode="&#x303;" 
d="M-248 564q-27 0 -53.5 10t-51 19.5t-47.5 9.5q-26 0 -48 -8t-39 -28v80q13 14 36.5 22t48.5 8q29 0 54 -9.5t49 -19.5t50 -10q52 0 80 37v-80q-10 -13 -31 -22t-48 -9z" />
    <glyph glyph-name="uni0304" unicode="&#x304;" 
d="M-175 563v71h298v-71h-298z" />
    <glyph glyph-name="uni0306" unicode="&#x306;" 
d="M-18 538q-66 0 -103.5 38.5t-37.5 102.5h74q0 -34 17.5 -55t49.5 -21q34 0 52 21t18 55h74q0 -64 -38.5 -102.5t-105.5 -38.5z" />
    <glyph glyph-name="uni0307" unicode="&#x307;" 
d="M-63 558v88h92v-88h-92z" />
    <glyph glyph-name="uni0308" unicode="&#x308;" 
d="M39 559v86h92v-86h-92zM-147 559v86h92v-86h-92z" />
    <glyph glyph-name="hookabovecomb" unicode="&#x309;" 
d="M-365 508v82q57 3 74.5 14t17.5 36q0 42 -74 42q-15 0 -33 -3.5t-31 -8.5v59q17 6 42.5 9.5t50.5 3.5q62 0 94 -25t32 -68q0 -41 -19.5 -63.5t-68.5 -30.5v-47h-85z" />
    <glyph glyph-name="uni030A" unicode="&#x30a;" 
d="M-18 521q-52 0 -84 33t-32 80q0 48 32 81t84 33q54 0 86 -33t32 -81q0 -47 -32 -80t-86 -33zM-18 575q28 0 44.5 17t16.5 42t-16.5 42t-44.5 17q-26 0 -42.5 -17t-16.5 -42t16.5 -42t42.5 -17z" />
    <glyph glyph-name="uni030B" unicode="&#x30b;" 
d="M-9 533l75 164h99l-86 -164h-88zM-226 533l75 164h99l-86 -164h-88z" />
    <glyph glyph-name="uni030C" unicode="&#x30c;" 
d="M-67 534l-125 161h89l74 -101l76 101h87l-125 -161h-76z" />
    <glyph glyph-name="uni031B" unicode="&#x31b;" 
d="M-118 523v77q42 0 64.5 9t31 33t8.5 67h84q0 -72 -20 -112.5t-61.5 -56.5t-106.5 -17z" />
    <glyph glyph-name="dotbelowcomb" unicode="&#x323;" 
d="M-364 -173v88h94v-88h-94z" />
    <glyph glyph-name="uni0324" unicode="&#x324;" 
d="M-155 -172v87h93v-87h-93zM38 -172v87h92v-87h-92z" />
    <glyph glyph-name="uni0326" unicode="&#x326;" 
d="M46 -226l29 189h90l-46 -189h-73z" />
    <glyph glyph-name="uni0327" unicode="&#x327;" 
d="M-32 -240q-16 0 -39 2.5t-34 5.5v59q29 -8 62 -8q45 0 65 8.5t20 36.5t-21 34.5t-60 6.5h-40l29 95h73l-16 -47q54 0 81.5 -24t27.5 -66q0 -49 -35.5 -76t-112.5 -27z" />
    <glyph glyph-name="uni0328" unicode="&#x328;" 
d="M-2 -220q-43 0 -75 21.5t-32 67.5q0 38 20 73t54 58h82q-32 -25 -50.5 -53.5t-18.5 -58.5q0 -23 12.5 -31.5t34.5 -8.5q13 0 27 3t23 8v-66q-13 -6 -34 -9.5t-43 -3.5z" />
    <glyph glyph-name="uni032E" unicode="&#x32e;" 
d="M-18 -207q-66 0 -103.5 38.5t-37.5 103.5h74q0 -35 17.5 -56t49.5 -21q34 0 52 21t18 56h74q0 -65 -38.5 -103.5t-105.5 -38.5z" />
    <glyph glyph-name="uni0331" unicode="&#x331;" 
d="M-175 -143v71h298v-71h-298z" />
    <glyph glyph-name="uni0394" unicode="&#x394;" horiz-adv-x="649" 
d="M43 0v60l230 584h100l232 -585v-59h-562zM148 84h350l-175 444z" />
    <glyph glyph-name="uni03A9" unicode="&#x3a9;" horiz-adv-x="764" 
d="M50 0v82h144q-69 44 -110 114.5t-41 167.5t40 171.5t116 117t183 42.5t182.5 -42.5t115.5 -117t40 -171.5t-40 -168t-110 -114h143v-82h-275v84q89 48 130.5 118t41.5 158q0 72 -28 126.5t-79 85t-121 30.5q-69 0 -120.5 -30.5t-80 -85t-28.5 -126.5q0 -88 42 -158
t130 -118v-84h-275z" />
    <glyph glyph-name="uni03BC" unicode="&#x3bc;" horiz-adv-x="583" 
d="M63 -143v617h109v-299q0 -53 26 -78t80 -25q40 0 74 15t59 40v347h108v-474h-99l-5 49q-32 -25 -76 -42t-100 -17q-40 0 -67 15v-148h-109z" />
    <glyph glyph-name="pi" unicode="&#x3c0;" horiz-adv-x="672" 
d="M545 -10q-74 0 -111.5 41.5t-37.5 111.5v247h-188v-390h-108v390h-67v84h538v-84h-66v-243q0 -41 18 -56.5t60 -15.5q27 0 58 10v-79q-41 -16 -96 -16z" />
    <glyph glyph-name="uni0E01" unicode="&#xe01;" horiz-adv-x="613" 
d="M72 0v195q0 44 17 77.5t62 46.5l-108 27v112q40 35 105.5 63.5t153.5 28.5q119 0 183 -49.5t64 -165.5v-335h-109v338q0 69 -32.5 96.5t-109.5 27.5q-50 0 -93 -14t-68 -37v-18l114 -29v-72q-39 -10 -55 -32t-16 -66v-194h-108z" />
    <glyph glyph-name="uni0E02" unicode="&#xe02;" horiz-adv-x="581" 
d="M285 -10q-114 0 -173 53t-59 149v53q0 32 13.5 59t31 49.5t31 42t13.5 36.5q0 16 -7 21t-25 5h-69l9 82h126q76 0 76 -73q0 -34 -13.5 -61t-32 -52t-32 -51.5t-13.5 -58.5v-61q0 -55 33 -80.5t91 -25.5q59 0 91 26t32 83v354h109v-347q0 -96 -61.5 -149.5t-170.5 -53.5z
" />
    <glyph glyph-name="uni0E03" unicode="&#xe03;" horiz-adv-x="577" 
d="M283 -10q-113 0 -171.5 50.5t-58.5 145.5v36q0 32 17.5 63.5t40 59.5t40 52t17.5 41q0 22 -20 22q-18 0 -33 -15v-40h-74v135h76v-28q14 11 31.5 19.5t44.5 8.5q76 0 76 -77q0 -34 -16 -63.5t-37.5 -57.5t-37.5 -56.5t-16 -60.5v-42q0 -55 31.5 -80.5t89.5 -25.5
q59 0 90 26t31 83v354h109v-347q0 -96 -60 -149.5t-170 -53.5z" />
    <glyph glyph-name="uni0E04" unicode="&#xe04;" horiz-adv-x="615" 
d="M63 0v342q0 98 59 153t186 55q128 0 185.5 -55t57.5 -153v-342h-109v352q0 57 -35 83.5t-99 26.5q-67 0 -101.5 -26.5t-34.5 -83.5v-111q44 36 105 36h65l4 -87h-72q-61 0 -102 -34v-156h-109z" />
    <glyph glyph-name="uni0E05" unicode="&#xe05;" horiz-adv-x="615" 
d="M63 0v395q0 74 33 114.5t99 40.5q32 0 61.5 -12t50.5 -40q21 28 54 40t64 12q71 0 98.5 -38.5t27.5 -117.5v-394h-108v396q0 28 -9 44.5t-37 16.5q-22 0 -37 -11t-27 -30h-52q-9 19 -20.5 30t-31.5 11q-30 0 -44 -16.5t-14 -44.5v-155q44 36 105 36h66l4 -87h-72
q-60 0 -103 -34v-156h-108z" />
    <glyph glyph-name="uni0E06" unicode="&#xe06;" horiz-adv-x="601" 
d="M353 -10q-61 0 -106.5 19t-82.5 50l-6 -59h-99v209q0 32 17.5 65.5t40 64t40 56.5t17.5 43q0 22 -20 22q-18 0 -33 -15v-40h-74v135h76v-28q14 11 31.5 19.5t44.5 8.5q76 0 76 -77q0 -34 -16 -65.5t-37.5 -62t-37.5 -61t-16 -62.5v-70q26 -28 65 -46.5t84 -18.5
q56 0 84 26.5t28 87.5v349h108v-354q0 -94 -49 -145t-135 -51z" />
    <glyph glyph-name="uni0E07" unicode="&#xe07;" horiz-adv-x="564" 
d="M275 -10q-23 0 -51 3t-49 10l-152 370h106l123 -300q86 -4 125 49.5t39 164.5q0 65 -12 102.5t-40.5 53t-78.5 15.5h-38v82h52q116 0 169 -62t53 -190q0 -106 -32 -171.5t-87.5 -96t-126.5 -30.5z" />
    <glyph glyph-name="uni0E08" unicode="&#xe08;" horiz-adv-x="569" 
d="M278 -10q-19 0 -44.5 3.5t-41.5 9.5l-80 213h-69l5 82h133l83 -222q45 -2 80.5 17t56 63.5t20.5 118.5q0 70 -18.5 111t-61 58.5t-115.5 17.5q-40 0 -85 -6t-86 -20v84q40 13 91.5 21.5t108.5 8.5q143 0 207 -71t64 -204q0 -93 -34.5 -156.5t-90.5 -96t-123 -32.5z" />
    <glyph glyph-name="uni0E09" unicode="&#xe09;" horiz-adv-x="583" 
d="M223 -10q-84 0 -128.5 47t-44.5 140v123h108v-113q0 -58 23 -84t84 -26q45 0 81.5 18t63.5 48v187q0 51 -16.5 79.5t-54 40.5t-101.5 12q-27 0 -62 -3.5t-70 -10.5t-63 -16v84q44 15 104 24.5t119 9.5q132 0 192.5 -54.5t60.5 -166.5v-329h-99l-6 59q-34 -30 -80 -49.5
t-111 -19.5z" />
    <glyph glyph-name="uni0E0A" unicode="&#xe0a;" horiz-adv-x="582" 
d="M285 -10q-114 0 -172.5 53t-58.5 149v53q0 32 13.5 59t31 49.5t31 42t13.5 36.5q0 16 -7 21t-25 5h-69l9 82h126q76 0 76 -73q0 -34 -13.5 -61t-32 -52t-32 -51.5t-13.5 -58.5v-61q0 -55 32.5 -80.5t90.5 -25.5q59 0 91.5 26t32.5 83v66q0 47 -15 65.5t-56 18.5h-28l5 79
h20q42 0 58 20.5t16 63.5v51h109v-49q0 -47 -14 -77.5t-58 -47.5q46 -19 59 -50t13 -77v-56q0 -96 -62 -149.5t-171 -53.5z" />
    <glyph glyph-name="uni0E0B" unicode="&#xe0b;" horiz-adv-x="582" 
d="M285 -10q-113 0 -172 51t-59 144v40q0 32 17.5 63t40 58.5t40 51t17.5 40.5q0 22 -20 22q-18 0 -33 -15v-40h-74v135h76v-28q14 11 31.5 19.5t44.5 8.5q76 0 76 -77q0 -34 -16 -63.5t-37.5 -57.5t-37.5 -56.5t-16 -60.5v-42q0 -55 32 -80.5t90 -25.5q59 0 92 26t33 83v66
q0 47 -15.5 65.5t-56.5 18.5h-28l5 79h20q42 0 58.5 20.5t16.5 63.5v51h108v-49q0 -47 -14 -77.5t-57 -47.5q45 -19 58 -50t13 -77v-56q0 -96 -61.5 -149.5t-171.5 -53.5z" />
    <glyph glyph-name="uni0E0C" unicode="&#xe0c;" horiz-adv-x="957" 
d="M714 -10q-60 0 -103 19t-80 50l-6 -59h-96v338q0 69 -30.5 96.5t-103.5 27.5q-49 0 -91 -14t-67 -37v-18l114 -29v-72q-39 -10 -55 -32t-16 -66v-65q0 -23 10 -33t32 -10h55v-86h-108q-45 0 -71 28t-26 73v94q0 44 17 77.5t62 46.5l-108 27v112q40 35 105 63.5t151 28.5
q115 0 175.5 -49.5t60.5 -165.5v-193q26 -28 63 -46.5t80 -18.5q56 0 81.5 26.5t25.5 87.5v349h108v-354q0 -94 -46.5 -145t-132.5 -51z" />
    <glyph glyph-name="uni0E0D" unicode="&#xe0d;" horiz-adv-x="970" 
d="M670 -61q-49 0 -104 10t-97 33v87q29 -15 64.5 -24.5t71 -14t63.5 -4.5q70 0 107 16t37 42q0 19 -14 33q-24 -14 -57 -23t-75 -9q-237 0 -237 220v33q0 69 -30.5 96.5t-103.5 27.5q-49 0 -91 -14t-67 -37v-18l114 -29v-72q-39 -10 -55 -32t-16 -66v-65q0 -23 10 -33
t32 -10h55v-86h-108q-45 0 -71 28t-26 73v94q0 44 17 77.5t62 46.5l-108 27v112q40 35 105 63.5t151 28.5q115 0 175.5 -49.5t60.5 -165.5v-34q0 -67 31.5 -98t99.5 -31t99.5 31t31.5 98v239h108v-235q0 -84 -37 -134q17 -16 27.5 -40t10.5 -53q0 -67 -61.5 -103t-174.5 -36
z" />
    <glyph glyph-name="uni0E0E" unicode="&#xe0e;" horiz-adv-x="647" 
d="M168 -197v87q37 17 79 26.5t91 9.5q42 0 77.5 -7.5t59.5 -21.5v441q0 69 -31 96.5t-105 27.5q-51 0 -94 -14t-67 -37v-18l117 -29v-72q-38 -11 -50 -32t-12 -66v-72q0 -64 -30.5 -93t-87.5 -29h-67v86h37q21 0 29.5 9.5t8.5 32.5v67q0 44 14 76t57 48l-110 27v112
q39 35 105 63.5t153 28.5q116 0 178.5 -50.5t62.5 -164.5v-529h-108q-31 17 -66 25t-82 8q-41 0 -83 -9.5t-76 -26.5z" />
    <glyph glyph-name="uni0E0F" unicode="&#xe0f;" horiz-adv-x="647" 
d="M436 -195q-36 0 -66 13t-46 33q-11 -20 -33 -32.5t-58 -12.5h-97l6 87h71q29 0 45.5 9.5t27.5 33.5h71q8 -22 22.5 -34.5t40.5 -12.5q30 0 42.5 15t12.5 46v388q0 69 -31 96.5t-105 27.5q-51 0 -94 -14t-67 -37v-18l117 -29v-72q-38 -11 -50 -32t-12 -66v-72
q0 -64 -30.5 -93t-87.5 -29h-67v86h37q21 0 29.5 9.5t8.5 32.5v67q0 44 14 76t57 48l-110 27v112q39 35 105 63.5t153 28.5q116 0 178.5 -50.5t62.5 -164.5v-391q0 -66 -39.5 -102.5t-107.5 -36.5z" />
    <glyph glyph-name="uni0E10" unicode="&#xe10;" horiz-adv-x="604" 
d="M273 -10q-19 0 -44.5 3.5t-41.5 9.5l-80 213h-69l5 82h133l83 -222q45 -2 80.5 17t56 63.5t20.5 118.5q0 70 -18.5 111t-61 58.5t-115.5 17.5q-40 0 -85 -6t-86 -20v84q40 13 91.5 21.5t108.5 8.5q27 0 50.5 -2.5t45.5 -7.5h223l-5 -85h-93q26 -33 38 -78.5t12 -101.5
q0 -93 -34.5 -156.5t-90.5 -96t-123 -32.5zM356 -195q-36 0 -66 13t-46 33q-11 -20 -33 -32.5t-58 -12.5h-97l6 87h71q29 0 45.5 9.5t27.5 33.5h71q8 -22 22.5 -34.5t40.5 -12.5q30 0 42.5 15t12.5 46v9h108v-15q0 -66 -39.5 -102.5t-107.5 -36.5z" />
    <glyph glyph-name="uni0E11" unicode="&#xe11;" horiz-adv-x="601" 
d="M81 0v213q0 32 13.5 63.5t30.5 60.5t30.5 55t13.5 46q0 22 -20 22q-18 0 -33 -15v-40h-74v135h76v-28q14 11 30.5 19.5t43.5 8.5q40 0 59 -30q23 17 55.5 28.5t68.5 11.5q86 0 124 -46.5t38 -139.5v-364h-108v363q0 53 -16.5 76t-66.5 23q-19 0 -43 -8t-38 -22
q0 -28 -11.5 -53.5t-26 -51.5t-26 -54.5t-11.5 -63.5v-209h-109z" />
    <glyph glyph-name="uni0E12" unicode="&#xe12;" horiz-adv-x="989" 
d="M264 -10q-63 0 -113 28t-79 88.5t-29 155.5q0 140 45.5 214t125.5 74q41 0 65 -14.5t42 -37.5q21 23 53.5 37.5t67.5 14.5q65 0 94.5 -38.5t29.5 -106.5v-263q26 -28 63.5 -46.5t80.5 -18.5q55 0 80.5 26.5t25.5 87.5v349h109v-354q0 -94 -46.5 -145t-132.5 -51
q-60 0 -103.5 19t-80.5 50l-5 -59h-96v389q0 38 -9 55.5t-41 17.5q-20 0 -36.5 -11t-24.5 -35h-60q-12 24 -24.5 35t-36.5 11q-49 0 -65 -55t-16 -145q0 -103 35 -144t100 -41q19 0 37.5 2t31.5 6v-83q-17 -6 -38 -9t-50 -3z" />
    <glyph glyph-name="uni0E13" unicode="&#xe13;" horiz-adv-x="960" 
d="M608 -10q-85 0 -132 51t-47 145v152q0 69 -30.5 96.5t-103.5 27.5q-49 0 -91 -14t-67 -37v-18l114 -29v-72q-39 -10 -55 -32t-16 -66v-65q0 -23 10 -33t32 -10h55v-86h-108q-45 0 -71 28t-26 73v94q0 44 17 77.5t62 46.5l-108 27v112q40 35 105 63.5t151 28.5
q115 0 175.5 -49.5t60.5 -165.5v-144q0 -61 27 -87.5t82 -26.5q44 0 80.5 18.5t62.5 46.5v398h109v-540h-99l-6 59q-36 -33 -79.5 -51t-103.5 -18z" />
    <glyph glyph-name="uni0E14" unicode="&#xe14;" horiz-adv-x="643" 
d="M264 -10q-63 0 -113 28t-79 88.5t-29 155.5q0 135 69 211.5t207 76.5q93 0 150 -31.5t83.5 -81.5t26.5 -107v-330h-109v325q0 40 -14 71t-47.5 48.5t-91.5 17.5q-88 0 -128.5 -51t-40.5 -149q0 -103 35 -144t100 -41q19 0 37.5 2t31.5 6v-83q-17 -6 -38 -9t-50 -3z" />
    <glyph glyph-name="uni0E15" unicode="&#xe15;" horiz-adv-x="646" 
d="M264 -10q-63 0 -113 28t-79 88.5t-29 155.5q0 140 47 214t131 74q41 0 65.5 -14.5t42.5 -37.5q21 23 55 37.5t69 14.5q65 0 97 -38.5t32 -106.5v-405h-109v389q0 38 -10.5 55.5t-42.5 17.5q-20 0 -37 -11t-25 -35h-60q-12 24 -25 35t-37 11q-52 0 -70 -55t-18 -145
q0 -103 35 -144t100 -41q19 0 37.5 2t31.5 6v-83q-17 -6 -38 -9t-50 -3z" />
    <glyph glyph-name="uni0E16" unicode="&#xe16;" horiz-adv-x="613" 
d="M169 0q-45 0 -71 28t-26 73v94q0 44 17 77.5t62 46.5l-108 27v112q40 35 105.5 63.5t153.5 28.5q119 0 183 -49.5t64 -165.5v-335h-109v338q0 69 -32.5 96.5t-109.5 27.5q-50 0 -93 -14t-68 -37v-18l114 -29v-72q-39 -10 -55 -32t-16 -66v-65q0 -23 10 -33t32 -10h55v-86
h-108z" />
    <glyph glyph-name="uni0E17" unicode="&#xe17;" horiz-adv-x="605" 
d="M63 0v540h99l6 -59q37 32 84 50.5t108 18.5q86 0 133.5 -51t47.5 -143v-356h-108v351q0 59 -28 85t-84 26q-45 0 -84 -18.5t-65 -46.5v-397h-109z" />
    <glyph glyph-name="uni0E18" unicode="&#xe18;" horiz-adv-x="526" 
d="M271 -10q-65 0 -122.5 12t-95.5 28v203h100v-138q49 -18 111 -18q59 0 91 17.5t32 66.5q0 37 -19 55.5t-56 29t-91 22.5q-46 11 -86.5 25t-66 41t-25.5 74q0 71 60.5 106.5t171.5 35.5q55 0 107.5 -7.5t81.5 -18.5v-90q-33 13 -81 20.5t-93 7.5q-36 0 -69 -3.5t-54 -14
t-21 -33.5q0 -26 22.5 -38.5t61.5 -20.5t86 -21q52 -14 91.5 -31.5t61.5 -49t22 -89.5q0 -85 -59.5 -128t-160.5 -43z" />
    <glyph glyph-name="uni0E19" unicode="&#xe19;" horiz-adv-x="605" 
d="M247 -10q-87 0 -135.5 51t-48.5 145v354h109v-349q0 -61 27 -87.5t84 -26.5q44 0 84 18.5t66 46.5v398h108v-540h-99l-5 59q-37 -31 -83.5 -50t-106.5 -19z" />
    <glyph glyph-name="uni0E1A" unicode="&#xe1a;" horiz-adv-x="621" 
d="M310 -10q-116 0 -181.5 55t-65.5 165v330h109v-334q0 -67 35.5 -98t102.5 -31q68 0 103.5 31t35.5 98v334h108v-330q0 -110 -65 -165t-182 -55z" />
    <glyph glyph-name="uni0E1B" unicode="&#xe1b;" horiz-adv-x="621" 
d="M310 -10q-116 0 -181.5 55t-65.5 165v330h109v-334q0 -67 35.5 -98t102.5 -31q68 0 103.5 31t35.5 98v494h108v-490q0 -110 -65 -165t-182 -55z" />
    <glyph glyph-name="uni0E1C" unicode="&#xe1c;" horiz-adv-x="644" 
d="M63 0v439q0 44 24.5 72.5t70.5 28.5h103l5 -84h-52q-25 0 -35.5 -11.5t-10.5 -37.5v-261l132 229h44l132 -229v394h104v-540h-107l-151 267l-152 -267h-107z" />
    <glyph glyph-name="uni0E1D" unicode="&#xe1d;" horiz-adv-x="644" 
d="M63 0v439q0 44 24.5 72.5t70.5 28.5h103l5 -84h-52q-25 0 -35.5 -11.5t-10.5 -37.5v-261l132 229h44l132 -229v554h104v-700h-107l-151 267l-152 -267h-107z" />
    <glyph glyph-name="uni0E1E" unicode="&#xe1e;" horiz-adv-x="726" 
d="M160 0l-125 540h107l80 -386l98 309v77h78l109 -386l78 386h106l-124 -540h-100l-100 344l-108 -344h-99z" />
    <glyph glyph-name="uni0E1F" unicode="&#xe1f;" horiz-adv-x="726" 
d="M160 0l-125 540h107l80 -386l98 309v77h78l109 -386l109 546h106l-155 -700h-100l-100 344l-108 -344h-99z" />
    <glyph glyph-name="uni0E20" unicode="&#xe20;" horiz-adv-x="647" 
d="M48 0v86h37q21 0 29.5 9.5t8.5 32.5v67q0 44 14 76t57 48l-110 27v112q39 35 105 63.5t153 28.5q116 0 178.5 -50.5t62.5 -164.5v-335h-108v338q0 69 -31 96.5t-105 27.5q-51 0 -94 -14t-67 -37v-18l117 -29v-72q-38 -11 -50 -32t-12 -66v-72q0 -64 -30.5 -93t-87.5 -29
h-67z" />
    <glyph glyph-name="uni0E21" unicode="&#xe21;" horiz-adv-x="605" 
d="M357 -10q-61 0 -106.5 19t-82.5 50l-6 -59h-99v540h109v-398q26 -28 65 -46.5t84 -18.5q56 0 84 26.5t28 87.5v349h108v-354q0 -94 -49 -145t-135 -51z" />
    <glyph glyph-name="uni0E22" unicode="&#xe22;" horiz-adv-x="597" 
d="M289 -10q-72 0 -128 17t-88.5 54t-32.5 98q0 41 19 72.5t56 49.5q-31 12 -51.5 41t-20.5 72q0 77 47.5 116.5t121.5 39.5q29 0 50 -3.5t38 -9.5v-83q-29 8 -68 8q-40 0 -62 -16t-22 -52q0 -38 25 -54.5t69 -16.5h57l5 -81h-64q-95 0 -95 -83q0 -41 34 -61.5t105 -20.5
q141 0 141 115v348h108v-335q0 -109 -61 -162t-183 -53z" />
    <glyph glyph-name="uni0E23" unicode="&#xe23;" horiz-adv-x="504" 
d="M240 -10q-53 0 -102.5 7t-81.5 20v91q38 -15 82.5 -23t81.5 -8q69 0 102 12.5t33 52.5q0 29 -17 44t-50 26.5t-82 27.5q-46 16 -83 35t-58.5 48t-21.5 73q0 71 54 112.5t163 41.5q46 0 91 -7t74 -17v-90q-33 13 -73.5 19.5t-75.5 6.5q-58 0 -93 -12.5t-35 -50.5
q0 -25 18 -39.5t51.5 -26t80.5 -27.5q53 -17 89 -37.5t54.5 -50t18.5 -76.5q0 -79 -59.5 -115.5t-160.5 -36.5z" />
    <glyph glyph-name="uni0E24" unicode="&#xe24;" horiz-adv-x="613" 
d="M440 -160v498q0 69 -32.5 96.5t-109.5 27.5q-50 0 -93 -14t-68 -37v-18l114 -29v-72q-39 -10 -55 -32t-16 -66v-65q0 -23 10 -33t32 -10h55v-86h-108q-45 0 -71 28t-26 73v94q0 44 17 77.5t62 46.5l-108 27v112q40 35 105.5 63.5t153.5 28.5q119 0 183 -49.5t64 -165.5
v-495h-109z" />
    <glyph glyph-name="uni0E25" unicode="&#xe25;" horiz-adv-x="594" 
d="M230 -10q-51 0 -92.5 16.5t-66.5 53t-25 95.5q0 79 53.5 123t156.5 44h165v34q0 59 -29.5 82.5t-109.5 23.5q-47 0 -90.5 -6t-85.5 -20v84q39 13 90.5 21.5t103.5 8.5q118 0 174 -49.5t56 -154.5v-346h-109v238h-158q-56 0 -84.5 -18.5t-28.5 -64.5q0 -44 25.5 -61
t83.5 -17q40 0 69 8v-83q-19 -5 -44 -8.5t-54 -3.5z" />
    <glyph glyph-name="uni0E26" unicode="&#xe26;" horiz-adv-x="647" 
d="M475 -160v498q0 69 -31 96.5t-105 27.5q-51 0 -94 -14t-67 -37v-18l117 -29v-72q-38 -11 -50 -32t-12 -66v-72q0 -64 -30.5 -93t-87.5 -29h-67v86h37q21 0 29.5 9.5t8.5 32.5v67q0 44 14 76t57 48l-110 27v112q39 35 105 63.5t153 28.5q116 0 178.5 -50.5t62.5 -164.5
v-495h-108z" />
    <glyph glyph-name="uni0E27" unicode="&#xe27;" horiz-adv-x="497" 
d="M197 -10q-93 0 -162 30v86q30 -13 65.5 -21t70.5 -8q68 0 108 19t57.5 61.5t17.5 112.5q0 104 -42.5 148t-141.5 44q-36 0 -70 -7.5t-65 -21.5v87q34 14 73.5 22t85.5 8q134 0 199.5 -71.5t65.5 -208.5q0 -136 -62.5 -208t-199.5 -72z" />
    <glyph glyph-name="uni0E28" unicode="&#xe28;" horiz-adv-x="636" 
d="M63 0v342q0 98 59 153t186 55q26 0 50 -2.5t44 -7.5h199l-5 -85h-75q18 -24 24 -52t6 -61v-342h-109v352q0 57 -35 83.5t-99 26.5q-67 0 -101.5 -26.5t-34.5 -83.5v-111q44 36 105 36h65l4 -87h-72q-61 0 -102 -34v-156h-109z" />
    <glyph glyph-name="uni0E29" unicode="&#xe29;" horiz-adv-x="635" 
d="M310 -10q-117 0 -182 55t-65 165v330h108v-334q0 -67 35.5 -98t103.5 -31t103 31t35 98v71h-129v83h129v180h109v-180h59l-8 -83h-51v-67q0 -110 -65.5 -165t-181.5 -55z" />
    <glyph glyph-name="uni0E2A" unicode="&#xe2a;" horiz-adv-x="609" 
d="M230 -10q-51 0 -93 16.5t-66.5 53t-24.5 95.5q0 79 53 123t157 44h165v34q0 59 -30 82.5t-110 23.5q-46 0 -90 -6t-86 -20v84q39 13 91 21.5t104 8.5q26 0 49.5 -2.5t43.5 -7.5h181l-6 -85h-63q14 -22 19 -49.5t5 -59.5v-346h-108v238h-159q-55 0 -83.5 -18.5
t-28.5 -64.5q0 -44 25.5 -61t83.5 -17q18 0 36.5 2t31.5 6v-83q-18 -5 -43 -8.5t-54 -3.5z" />
    <glyph glyph-name="uni0E2B" unicode="&#xe2b;" horiz-adv-x="604" 
d="M63 0v540h109v-170h156q59 0 81.5 25.5t22.5 74.5v70h108v-67q0 -50 -17.5 -88t-63.5 -55q46 -16 61 -50.5t15 -80.5v-199h-108v186q0 58 -22 79.5t-81 21.5h-152v-287h-109z" />
    <glyph glyph-name="uni0E2C" unicode="&#xe2c;" horiz-adv-x="726" 
d="M160 0l-125 540h107l81 -386l97 269v77h77l108 -346l62 282q10 48 -2.5 67t-47.5 19h-40l13 81h44q38 0 56.5 13.5t25.5 47.5l8 36h97l-10 -49q-8 -42 -27 -63t-51 -28q52 -28 32 -117l-99 -443h-99l-100 312l-108 -312h-99z" />
    <glyph glyph-name="uni0E2D" unicode="&#xe2d;" horiz-adv-x="575" 
d="M265 -10q-64 0 -120.5 12t-94.5 28v278h214l5 -83h-114v-131q23 -8 52.5 -12.5t57.5 -4.5q89 0 125.5 42.5t36.5 148.5q0 74 -18 116.5t-59.5 60t-112.5 17.5q-43 0 -90 -6t-89 -20v84q42 14 96.5 22t109.5 8q142 0 205 -71.5t63 -210.5q0 -136 -63 -207t-204 -71z" />
    <glyph glyph-name="uni0E2E" unicode="&#xe2e;" horiz-adv-x="603" 
d="M265 -10q-64 0 -120.5 12t-94.5 28v278h214l5 -83h-114v-131q23 -8 52.5 -12.5t57.5 -4.5q89 0 125.5 42.5t36.5 148.5q0 74 -18 116.5t-59.5 60t-112.5 17.5q-43 0 -90 -6t-89 -20v84q42 14 96.5 22t109.5 8q26 0 49.5 -2.5t44.5 -7.5h210l-5 -85h-80q26 -34 37.5 -81
t11.5 -106q0 -136 -63 -207t-204 -71z" />
    <glyph glyph-name="uni0E2F" unicode="&#xe2f;" horiz-adv-x="556" 
d="M383 0v278q-26 -16 -62 -26.5t-76 -10.5q-88 0 -141.5 45t-53.5 127q0 35 7.5 66t20.5 61h107q-15 -30 -22.5 -59t-7.5 -63q0 -92 103 -92q77 0 125 36v178h109v-540h-109z" />
    <glyph glyph-name="uni0E30" unicode="&#xe30;" horiz-adv-x="324" 
d="M43 331v130h93v-49h147l-4 -81h-236zM43 59v130h93v-50h147l-4 -80h-236z" />
    <glyph glyph-name="uni0E31" unicode="&#xe31;" 
d="M-301 622v146h90v-70h259l-5 -76h-344z" />
    <glyph glyph-name="uni0E32" unicode="&#xe32;" horiz-adv-x="440" 
d="M267 0v340q0 41 -9 68t-34 40.5t-74 13.5q-32 0 -69.5 -7t-67.5 -19v84q30 13 72.5 21.5t85.5 8.5q108 0 156.5 -47t48.5 -149v-354h-109z" />
    <glyph glyph-name="uni0E33" unicode="&#xe33;" horiz-adv-x="440" 
d="M-119 598q-47 0 -80 31t-33 77q0 47 33 78t80 31t79.5 -31t32.5 -78q0 -46 -32.5 -77t-79.5 -31zM-119 660q19 0 32.5 14t13.5 32q0 20 -13.5 34t-32.5 14t-33.5 -14t-14.5 -34q0 -18 14.5 -32t33.5 -14zM267 0v340q0 41 -9 68t-34 40.5t-74 13.5q-32 0 -69.5 -7
t-67.5 -19v84q30 13 72.5 21.5t85.5 8.5q108 0 156.5 -47t48.5 -149v-354h-109z" />
    <glyph glyph-name="uni0E34" unicode="&#xe34;" 
d="M-481 622l5 76h412v-76h-417z" />
    <glyph glyph-name="uni0E35" unicode="&#xe35;" 
d="M-481 622l5 76h322v83h90v-159h-417z" />
    <glyph glyph-name="uni0E36" unicode="&#xe36;" 
d="M-481 622l5 76h248q-1 4 -1.5 9.5t-0.5 12.5q0 29 23 53t66 24q48 0 69.5 -26.5t21.5 -58.5q0 -37 -24 -63.5t-71 -26.5h-336zM-140 673q18 0 28.5 11t10.5 27q0 17 -11 28.5t-28 11.5q-16 0 -27.5 -11t-11.5 -29q0 -16 11 -27t28 -11z" />
    <glyph glyph-name="uni0E37" unicode="&#xe37;" 
d="M-481 622l5 76h194v83h79v-83h60v83h79v-159h-417z" />
    <glyph glyph-name="uni0E38" unicode="&#xe38;" 
d="M-157 -252v124h-63l5 71h151v-195h-93z" />
    <glyph glyph-name="uni0E39" unicode="&#xe39;" 
d="M-185 -261q-55 0 -86.5 24.5t-31.5 60.5v51h-54l4 68h128v-101q0 -33 40 -33q41 0 41 33v101h79v-108q0 -39 -30 -67.5t-90 -28.5z" />
    <glyph glyph-name="uni0E3A" unicode="&#xe3a;" 
d="M-116 -165q-25 0 -42 16.5t-17 41.5t17 41.5t42 16.5t42 -16.5t17 -41.5t-17 -41.5t-42 -16.5z" />
    <glyph glyph-name="uni0E3F" unicode="&#xe3f;" horiz-adv-x="631" 
d="M264 -86v86h-201v644h201v86h81v-86h30q96 0 142 -45t46 -127q0 -52 -21 -87.5t-56 -53.5q47 -13 74.5 -46.5t27.5 -98.5q0 -94 -50.5 -140t-148.5 -46h-44v-86h-81zM172 369h92v193h-92v-193zM345 369h15q55 0 78.5 25.5t23.5 68.5q0 50 -24 74.5t-90 24.5h-3v-193z
M172 80h92v209h-92v-209zM345 80h21q58 0 85 24.5t27 85.5q0 50 -26.5 74.5t-96.5 24.5h-10v-209z" />
    <glyph glyph-name="uni0E40" unicode="&#xe40;" horiz-adv-x="307" 
d="M170 0q-55 0 -80 27t-25 77v436h108v-409q0 -45 44 -45h46v-86h-93z" />
    <glyph glyph-name="uni0E41" unicode="&#xe41;" horiz-adv-x="542" 
d="M411 0q-55 0 -80 27t-25 77v436h108v-409q0 -45 44 -45h41v-86h-88zM168 0q-54 0 -79.5 27t-25.5 77v436h109v-409q0 -45 44 -45h40v-86h-88z" />
    <glyph glyph-name="uni0E42" unicode="&#xe42;" horiz-adv-x="315" 
d="M206 0q-64 0 -84.5 34.5t-20.5 92.5v435q0 65 -25 97.5t-78 51.5v83h307v-86h-170q40 -22 57 -57.5t17 -98.5v-421q0 -26 8.5 -35.5t35.5 -9.5h46v-86h-93z" />
    <glyph glyph-name="uni0E43" unicode="&#xe43;" horiz-adv-x="294" 
d="M155 0q-55 0 -80 27t-25 77v331q0 50 18 84t41 57.5t41 43t18 41.5q0 29 -16.5 39t-49.5 10q-54 0 -109 -30v80q30 18 69.5 27.5t76.5 9.5q71 0 106 -30t35 -85q0 -32 -12.5 -55.5t-30.5 -43.5t-36 -41t-30.5 -47t-12.5 -63v-301q0 -26 8.5 -35.5t35.5 -9.5h46v-86h-93z
" />
    <glyph glyph-name="uni0E44" unicode="&#xe44;" horiz-adv-x="301" 
d="M184 0q-55 0 -80 27t-25 77v445q0 59 21 98t55 61h-167v86h299v-82q-55 -22 -77.5 -64.5t-22.5 -114.5v-402q0 -26 8.5 -35.5t35.5 -9.5h46v-86h-93z" />
    <glyph glyph-name="uni0E45" unicode="&#xe45;" horiz-adv-x="440" 
d="M267 -160v500q0 41 -9 68t-34 40.5t-74 13.5q-32 0 -69.5 -7t-67.5 -19v84q30 13 72.5 21.5t85.5 8.5q108 0 156.5 -47t48.5 -149v-514h-109z" />
    <glyph glyph-name="uni0E46" unicode="&#xe46;" horiz-adv-x="595" 
d="M422 0v407q0 23 -7.5 39t-33.5 16q-20 0 -34.5 -12.5t-24.5 -35.5h-51q-9 23 -18.5 35.5t-31.5 12.5q-58 0 -58 -96q0 -48 22 -68.5t65 -20.5q19 0 37.5 2t31.5 6v-84q-18 -6 -39 -9t-50 -3q-84 0 -132 45t-48 132q0 49 17 90.5t49.5 67.5t80.5 26q35 0 58 -11.5
t42 -38.5q23 27 51.5 38.5t60.5 11.5q64 0 93 -37t29 -113v-400h-109z" />
    <glyph glyph-name="uni0E47" unicode="&#xe47;" 
d="M-357 621q-58 0 -92 30t-34 85t34.5 88t98.5 33h246l-5 -64h-231q-34 0 -50.5 -13t-16.5 -44q0 -53 57 -53q29 0 41 11.5t12 30.5v21h67v-21q0 -22 11.5 -30.5t34.5 -8.5h63v-63h-70q-24 0 -44.5 7.5t-28.5 23.5q-10 -16 -38.5 -24.5t-54.5 -8.5z" />
    <glyph glyph-name="uni0E48" unicode="&#xe48;" 
d="M-173 623v164h109v-164h-109z" />
    <glyph glyph-name="uni0E49" unicode="&#xe49;" 
d="M-293 622v92h-79v75h154v-91h216l-4 -76h-287z" />
    <glyph glyph-name="uni0E4A" unicode="&#xe4a;" 
d="M-347 613q-52 0 -82.5 25.5t-30.5 79.5q0 51 26.5 78.5t68.5 27.5q51 0 67 -39h1q8 19 26.5 29t42.5 10q47 0 67.5 -22.5t20.5 -57.5v-67h11q13 0 18 6.5t5 22.5v113h63v-118q0 -35 -21.5 -57t-59.5 -22h-80v103q0 21 -6 30.5t-26 9.5q-22 0 -28 -12t-6 -31v-13h-53v13
q0 19 -6 31t-27 12q-20 0 -28.5 -11.5t-8.5 -37.5q0 -28 13 -38.5t42 -10.5h28v-54h-37z" />
    <glyph glyph-name="uni0E4B" unicode="&#xe4b;" 
d="M-230 622v43h-65v80h65v49h100v-49h66v-80h-66v-43h-100z" />
    <glyph glyph-name="uni0E4C" unicode="&#xe4c;" 
d="M-301 622v146h294l-4 -76h-200v-70h-90z" />
    <glyph glyph-name="uni0E4D" unicode="&#xe4d;" 
d="M-119 598q-47 0 -80 31t-33 77q0 47 33 78t80 31t79.5 -31t32.5 -78q0 -46 -32.5 -77t-79.5 -31zM-119 660q19 0 32.5 14t13.5 32q0 20 -13.5 34t-32.5 14t-33.5 -14t-14.5 -34q0 -18 14.5 -32t33.5 -14z" />
    <glyph glyph-name="uni0E4E" unicode="&#xe4e;" 
d="M-181 622q-53 0 -81.5 18.5t-28.5 55.5q0 38 24.5 58t55.5 24q-15 15 -15 41q0 27 25.5 45t74.5 18q16 0 32 -3t26 -8v-49q-10 5 -24.5 8.5t-25.5 3.5q-42 0 -42 -24q0 -12 9.5 -18t31.5 -11v-48q-9 5 -21 6.5t-21 1.5q-25 0 -41 -7.5t-16 -27.5q0 -30 50 -30
q17 0 33 3.5t28 11.5v-53q-13 -9 -33 -12.5t-41 -3.5z" />
    <glyph glyph-name="uni0E4F" unicode="&#xe4f;" horiz-adv-x="604" 
d="M302 -10q-71 0 -130 34.5t-94 93t-35 130.5q0 71 35 129.5t94 93.5t130 35t129.5 -35t93.5 -93.5t35 -129.5q0 -72 -35 -130.5t-93.5 -93t-129.5 -34.5zM302 65q50 0 91.5 24.5t66.5 66.5t25 92t-25 91.5t-66.5 66.5t-91.5 25q-51 0 -92.5 -25t-66 -66.5t-24.5 -91.5
t24.5 -92t66 -66.5t92.5 -24.5zM302 120q-35 0 -64.5 17t-46.5 46.5t-17 64.5t17 64t46.5 46t64.5 17t64 -17t46 -46t17 -64t-17 -64.5t-46 -46.5t-64 -17zM302 183q27 0 45.5 19t18.5 46q0 26 -18.5 45t-45.5 19q-28 0 -46 -19t-18 -45q0 -27 18 -46t46 -19z" />
    <glyph glyph-name="uni0E50" unicode="&#xe50;" horiz-adv-x="612" 
d="M306 -10q-118 0 -190.5 61t-72.5 186q0 83 33.5 137.5t92.5 82t137 27.5t137 -27.5t92 -82t33 -137.5q0 -125 -72 -186t-190 -61zM306 77q77 0 117 37.5t40 122.5q0 84 -40 121.5t-117 37.5q-76 0 -117 -37.5t-41 -121.5q0 -85 41 -122.5t117 -37.5z" />
    <glyph glyph-name="uni0E51" unicode="&#xe51;" horiz-adv-x="637" 
d="M297 -105v92q101 24 146.5 80.5t45.5 152.5q0 85 -39.5 130.5t-131.5 45.5q-88 0 -129 -34.5t-41 -107.5q0 -62 29 -89.5t87 -27.5q23 0 49 6t42 16v-83q-20 -12 -48 -19t-66 -7q-95 0 -146.5 53.5t-51.5 150.5q0 110 70 170t205 60q140 0 208 -69.5t68 -197.5
q0 -118 -74 -204.5t-223 -117.5z" />
    <glyph glyph-name="uni0E52" unicode="&#xe52;" horiz-adv-x="703" 
d="M360 -10q-90 0 -156.5 27.5t-103.5 81.5t-37 135v306h98v-304q0 -79 49 -120.5t150 -41.5q83 0 132 34t49 107v131q0 30 -9 44.5t-33 14.5q-23 0 -34.5 -16t-16.5 -38h-62q-7 22 -16 38t-33 16q-28 0 -39 -21.5t-11 -70.5q0 -43 20 -59t61 -16q36 0 61 9v-68
q-16 -6 -35 -9.5t-43 -3.5q-65 0 -106 35.5t-41 111.5q0 91 32 131t86 40q33 0 55 -11.5t40 -37.5q21 27 48.5 38t57.5 11q59 0 87.5 -34.5t28.5 -93.5v-132q0 -113 -76 -173.5t-203 -60.5z" />
    <glyph glyph-name="uni0E53" unicode="&#xe53;" horiz-adv-x="641" 
d="M258 -10q-65 0 -113.5 22t-75 73.5t-26.5 139.5q0 134 47 196.5t124 62.5q73 0 112 -54q23 28 53.5 41t62.5 13q59 0 98.5 -33t39.5 -97v-354h-106v335q0 35 -12.5 48t-41.5 13q-23 0 -38.5 -13.5t-15.5 -39.5v-86l-83 1v86q0 26 -16.5 39t-38.5 13q-46 0 -64 -41
t-18 -131q0 -60 15 -92t44.5 -43.5t72.5 -11.5q19 0 37.5 2t31.5 6v-83q-17 -6 -38.5 -9t-50.5 -3z" />
    <glyph glyph-name="uni0E54" unicode="&#xe54;" horiz-adv-x="629" 
d="M276 -10q-106 0 -169.5 58.5t-63.5 174.5q0 125 84 193t238 68q77 0 128.5 8t93.5 34v-88q-38 -23 -92.5 -31.5t-125.5 -8.5q-114 0 -168.5 -41.5t-54.5 -133.5q0 -79 37.5 -113t101.5 -34q11 0 22.5 2t22.5 7q-16 29 -16 73q0 65 43.5 101t113.5 36q62 0 99 -19v-75
q-15 8 -33.5 12t-37.5 4q-43 0 -66 -13t-23 -48t19 -49.5t53.5 -17t79.5 -2.5h43v-87h-76q-79 0 -129 22q-28 -17 -59 -24.5t-65 -7.5z" />
    <glyph glyph-name="uni0E55" unicode="&#xe55;" horiz-adv-x="626" 
d="M276 -10q-106 0 -169.5 55t-63.5 171q0 79 45 139t122 84q-18 3 -36 10t-27 12v82q17 -14 55 -28t82.5 -22.5t80.5 -8.5q78 0 129 8t93 34v-88q-38 -23 -92.5 -31.5t-125.5 -8.5q-99 0 -161 -45t-62 -137q0 -79 37.5 -109.5t101.5 -30.5q11 0 22.5 2t22.5 7
q-16 29 -16 73q0 65 43.5 101t113.5 36q62 0 99 -19v-75q-15 8 -33.5 12t-37.5 4q-43 0 -66 -13t-23 -48t19 -49.5t53.5 -17t79.5 -2.5h43v-87h-76q-79 0 -129 22q-28 -17 -59 -24.5t-65 -7.5z" />
    <glyph glyph-name="uni0E56" unicode="&#xe56;" horiz-adv-x="646" 
d="M334 -10q-54 0 -102.5 12.5t-87.5 39.5v87q44 -29 89 -40.5t93 -11.5q85 0 128.5 38.5t43.5 120.5q0 81 -34.5 120.5t-112.5 39.5q-125 0 -158 -127h-77l-93 271h96l52 -158q27 48 78 75t118 27q84 0 136 -32t75.5 -88t23.5 -128q0 -115 -71.5 -180.5t-196.5 -65.5z" />
    <glyph glyph-name="uni0E57" unicode="&#xe57;" horiz-adv-x="852" 
d="M258 -10q-66 0 -114.5 22.5t-74.5 74t-26 138.5q0 134 44.5 196.5t120.5 62.5q41 0 66.5 -13.5t44.5 -40.5q23 28 53 41t64 13q133 0 133 -132v-271h17q59 0 82 24.5t23 88.5v346h97v-327q0 -112 -47.5 -162.5t-165.5 -50.5h-101v335q0 35 -12 48.5t-44 13.5
q-21 0 -38.5 -13.5t-17.5 -39.5v-86h-90v85q0 27 -15 40.5t-37 13.5q-47 0 -61.5 -46t-14.5 -127q0 -64 16 -96t46.5 -43t73.5 -11q17 0 36.5 2t32.5 6v-80q-34 -12 -91 -12z" />
    <glyph glyph-name="uni0E58" unicode="&#xe58;" horiz-adv-x="628" 
d="M213 -10q-80 0 -125 58t-45 179q0 131 78.5 194t224.5 63q81 0 138 7.5t101 34.5v-88q-39 -23 -99.5 -31.5t-137.5 -8.5q-103 0 -152.5 -36.5t-49.5 -134.5q0 -88 21 -119.5t62 -31.5q26 0 45 13.5t19 39.5v77h77v-78q0 -27 21.5 -39.5t43.5 -12.5t35 4t26 14v132h-65
l6 68h147v-258q-26 -22 -56 -34t-76 -12q-37 0 -68.5 12.5t-51.5 39.5q-38 -52 -119 -52z" />
    <glyph glyph-name="uni0E59" unicode="&#xe59;" horiz-adv-x="744" 
d="M231 -10q-54 0 -96.5 24.5t-67 77t-24.5 134.5q0 132 45 195t130 63q44 0 68.5 -14t38.5 -40q17 26 47 40t67 14q51 0 88.5 -27t37.5 -77v-17h6q37 0 51 16t14 65v76h85v-54q0 -69 -16.5 -108.5t-53.5 -56t-99 -16.5h-62v42q0 38 -11.5 54t-43.5 16q-30 0 -44 -16.5
t-5 -46.5l98 -334h-94l-102 345q-7 26 -20.5 39t-45.5 13q-42 0 -59.5 -41.5t-17.5 -132.5q0 -86 27 -117.5t77 -31.5q15 0 29 2t27 6v-85q-29 -7 -74 -7z" />
    <glyph glyph-name="uni0E5A" unicode="&#xe5a;" horiz-adv-x="880" 
d="M383 0v278q-26 -16 -62 -26.5t-76 -10.5q-88 0 -141.5 45t-53.5 127q0 35 7.5 66t20.5 61h107q-15 -30 -22.5 -59t-7.5 -63q0 -92 103 -92q77 0 125 36v178h109v-180q14 -16 38 -25t52 -9q77 0 125 36v178h109v-540h-109v278q-26 -16 -62 -26.5t-76 -10.5q-22 0 -42.5 5
t-34.5 15v-261h-109z" />
    <glyph glyph-name="uni0E5B" unicode="&#xe5b;" horiz-adv-x="1175" 
d="M318 22q-127 0 -201 70.5t-74 197.5q0 75 27 133.5t78.5 92.5t125.5 34q105 0 155.5 -51t50.5 -135q0 -72 -38.5 -119t-109.5 -70v81q39 20 52.5 45t13.5 61q0 54 -28 84.5t-93 30.5q-73 0 -109 -51t-36 -132q0 -98 48.5 -146.5t137.5 -48.5q113 0 168.5 64.5t55.5 174.5
q0 38 -2.5 68.5t-8.5 61.5h94q24 -40 44 -90.5t30 -96.5h2q8 22 15 53t11.5 62t3.5 53h70q13 -26 30 -70.5t27 -86.5h2q9 26 18 67.5t11 74.5h60q9 -16 18.5 -40.5t17.5 -49.5t12 -43h2q8 22 13.5 52t5.5 60h55q1 -16 0.5 -32t-2.5 -27h60l-4 -60h-70q-5 -22 -13 -41
t-21 -42h-55q-2 14 -8.5 36.5t-14.5 45.5t-16 37h-2q-1 -14 -6.5 -41.5t-12.5 -55t-14 -44.5h-71q-5 35 -19 78.5t-30 74.5h-2q-2 -22 -8 -53.5t-14.5 -63.5t-17.5 -58h-70q-1 28 -8.5 61.5t-17.5 65.5t-21 56h-2q5 -99 -28.5 -172.5t-101 -114.5t-165.5 -41z" />
    <glyph glyph-name="uni1E0C" unicode="&#x1e0c;" horiz-adv-x="649" 
d="M63 0v644h261q143 0 212 -75.5t69 -250.5q0 -165 -68 -241.5t-213 -76.5h-261zM172 84h135q63 0 105 18.5t63 69.5t21 146t-19 147t-60.5 73t-109.5 21h-135v-475zM271 -173v88h94v-88h-94z" />
    <glyph glyph-name="uni1E0D" unicode="&#x1e0d;" horiz-adv-x="582" 
d="M259 -10q-64 0 -113 22t-76 73t-27 137q0 85 29 143.5t80.5 88.5t116.5 30q43 0 76.5 -10t64.5 -31v231h109v-674h-93l-7 47q-32 -29 -70 -43t-90 -14zM288 72q73 0 122 50v237q-47 42 -118 42q-69 0 -104 -46t-35 -134q0 -85 32.5 -117t102.5 -32zM249 -173v88h94v-88
h-94z" />
    <glyph glyph-name="uni1E0E" unicode="&#x1e0e;" horiz-adv-x="649" 
d="M63 0v644h261q143 0 212 -75.5t69 -250.5q0 -165 -68 -241.5t-213 -76.5h-261zM172 84h135q63 0 105 18.5t63 69.5t21 146t-19 147t-60.5 73t-109.5 21h-135v-475zM131 -164v71h298v-71h-298z" />
    <glyph glyph-name="uni1E0F" unicode="&#x1e0f;" horiz-adv-x="582" 
d="M259 -10q-64 0 -113 22t-76 73t-27 137q0 85 29 143.5t80.5 88.5t116.5 30q43 0 76.5 -10t64.5 -31v231h109v-674h-93l-7 47q-32 -29 -70 -43t-90 -14zM288 72q73 0 122 50v237q-47 42 -118 42q-69 0 -104 -46t-35 -134q0 -85 32.5 -117t102.5 -32zM151 -164v71h298v-71
h-298z" />
    <glyph glyph-name="uni1E20" unicode="&#x1e20;" horiz-adv-x="641" 
d="M212 717v71h298v-71h-298zM363 -10q-159 0 -239.5 86t-80.5 233q0 106 35 183.5t106.5 119.5t181.5 42q57 0 103.5 -7.5t87.5 -21.5v-94q-82 30 -182 30q-123 0 -172.5 -65t-49.5 -187q0 -111 52 -169t161 -58q86 0 139 20v180h-161v71h254v-310q-31 -20 -88.5 -36.5
t-146.5 -16.5z" />
    <glyph glyph-name="uni1E21" unicode="&#x1e21;" horiz-adv-x="554" 
d="M131 551v71h298v-71h-298zM255 -176q-53 0 -106 6.5t-90 19.5v84q40 -13 92 -20t99 -7q72 0 105 8t33 36q0 21 -16 29.5t-61 8.5h-128q-129 0 -129 91q0 29 17 54t54 38q-41 20 -60.5 55t-19.5 84q0 91 54.5 132t163.5 41q23 0 48 -3.5t39 -6.5h174l-3 -71h-80
q19 -16 28 -40t9 -52q0 -76 -46 -119.5t-139 -43.5q-16 0 -29.5 1.5t-29.5 3.5q-30 -3 -54 -16t-24 -35q0 -15 12 -21.5t40 -6.5h133q71 0 109.5 -30.5t38.5 -88.5q0 -70 -60.5 -100.5t-173.5 -30.5zM263 217q65 0 90.5 22t25.5 75t-25.5 77t-90.5 24q-61 0 -89 -23t-28 -78
q0 -51 26.5 -74t90.5 -23z" />
    <glyph glyph-name="uni1E24" unicode="&#x1e24;" horiz-adv-x="654" 
d="M63 0v644h109v-280h310v280h109v-644h-109v280h-310v-280h-109zM280 -173v88h94v-88h-94z" />
    <glyph glyph-name="uni1E25" unicode="&#x1e25;" horiz-adv-x="578" 
d="M63 0v674h109v-246q31 25 74 40.5t97 15.5q90 0 133 -43t43 -134v-307h-108v302q0 55 -23.5 77t-81.5 22q-36 0 -73 -15.5t-61 -40.5v-345h-109zM248 -173v88h94v-88h-94z" />
    <glyph glyph-name="uni1E2A" unicode="&#x1e2a;" horiz-adv-x="654" 
d="M63 0v644h109v-280h310v280h109v-644h-109v280h-310v-280h-109zM325 -207q-66 0 -103.5 38.5t-37.5 103.5h74q0 -35 17.5 -56t49.5 -21q34 0 52 21t18 56h74q0 -65 -38.5 -103.5t-105.5 -38.5z" />
    <glyph glyph-name="uni1E2B" unicode="&#x1e2b;" horiz-adv-x="578" 
d="M63 0v674h109v-246q31 25 74 40.5t97 15.5q90 0 133 -43t43 -134v-307h-108v302q0 55 -23.5 77t-81.5 22q-36 0 -73 -15.5t-61 -40.5v-345h-109zM297 -207q-66 0 -103.5 38.5t-37.5 103.5h74q0 -35 17.5 -56t49.5 -21q34 0 52 21t18 56h74q0 -65 -38.5 -103.5
t-105.5 -38.5z" />
    <glyph glyph-name="uni1E36" unicode="&#x1e36;" horiz-adv-x="525" 
d="M63 0v644h109v-560h330v-84h-439zM228 -173v88h94v-88h-94z" />
    <glyph glyph-name="uni1E37" unicode="&#x1e37;" horiz-adv-x="280" 
d="M181 -10q-58 0 -88 28.5t-30 94.5v561h109v-551q0 -28 10 -38t30 -10q24 0 46 6v-79q-19 -7 -36.5 -9.5t-40.5 -2.5zM99 -173v88h94v-88h-94z" />
    <glyph glyph-name="uni1E38" unicode="&#x1e38;" horiz-adv-x="525" 
d="M-13 717v71h298v-71h-298zM63 0v644h109v-560h330v-84h-439zM228 -173v88h94v-88h-94z" />
    <glyph glyph-name="uni1E39" unicode="&#x1e39;" horiz-adv-x="280" 
d="M-31 722v71h298v-71h-298zM181 -10q-58 0 -88 28.5t-30 94.5v561h109v-551q0 -28 10 -38t30 -10q24 0 46 6v-79q-19 -7 -36.5 -9.5t-40.5 -2.5zM99 -173v88h94v-88h-94z" />
    <glyph glyph-name="uni1E3A" unicode="&#x1e3a;" horiz-adv-x="525" 
d="M63 0v644h109v-560h330v-84h-439zM122 -146v71h298v-71h-298z" />
    <glyph glyph-name="uni1E3B" unicode="&#x1e3b;" horiz-adv-x="280" 
d="M181 -10q-58 0 -88 28.5t-30 94.5v561h109v-551q0 -28 10 -38t30 -10q24 0 46 6v-79q-19 -7 -36.5 -9.5t-40.5 -2.5zM-5 -146v71h298v-71h-298z" />
    <glyph glyph-name="uni1E42" unicode="&#x1e42;" horiz-adv-x="757" 
d="M63 0v644h112l204 -417l203 417h112v-644h-108v467l-174 -356h-66l-175 356v-467h-108zM333 -173v88h94v-88h-94z" />
    <glyph glyph-name="uni1E43" unicode="&#x1e43;" horiz-adv-x="856" 
d="M63 0v474h100l5 -50q35 28 77 44t90 16q51 0 79.5 -16.5t43.5 -45.5q33 27 76 44.5t103 17.5q82 0 121 -42t39 -129v-313h-107v302q0 55 -23 77t-75 22q-34 0 -64.5 -12t-52.5 -36q3 -11 4 -23t1 -26v-304h-101v301q0 52 -18 76t-68 24q-35 0 -66.5 -16.5t-56.5 -39.5
v-345h-107zM380 -173v88h94v-88h-94z" />
    <glyph glyph-name="uni1E44" unicode="&#x1e44;" horiz-adv-x="667" 
d="M298 711v88h92v-88h-92zM63 0v644h96l336 -474v474h108v-644h-96l-335 473v-473h-109z" />
    <glyph glyph-name="uni1E45" unicode="&#x1e45;" horiz-adv-x="578" 
d="M243 545v88h92v-88h-92zM63 0v474h100l5 -50q32 25 76.5 42.5t98.5 17.5q92 0 134 -43t42 -134v-307h-108v302q0 55 -22.5 77t-84.5 22q-37 0 -72.5 -15t-59.5 -39v-347h-109z" />
    <glyph glyph-name="uni1E46" unicode="&#x1e46;" horiz-adv-x="667" 
d="M63 0v644h96l336 -474v474h108v-644h-96l-335 473v-473h-109zM287 -173v88h94v-88h-94z" />
    <glyph glyph-name="uni1E47" unicode="&#x1e47;" horiz-adv-x="578" 
d="M63 0v474h100l5 -50q32 25 76.5 42.5t98.5 17.5q92 0 134 -43t42 -134v-307h-108v302q0 55 -22.5 77t-84.5 22q-37 0 -72.5 -15t-59.5 -39v-347h-109zM247 -173v88h94v-88h-94z" />
    <glyph glyph-name="uni1E48" unicode="&#x1e48;" horiz-adv-x="667" 
d="M63 0v644h96l336 -474v474h108v-644h-96l-335 473v-473h-109zM188 -143v71h298v-71h-298z" />
    <glyph glyph-name="uni1E49" unicode="&#x1e49;" horiz-adv-x="578" 
d="M63 0v474h100l5 -50q32 25 76.5 42.5t98.5 17.5q92 0 134 -43t42 -134v-307h-108v302q0 55 -22.5 77t-84.5 22q-37 0 -72.5 -15t-59.5 -39v-347h-109zM143 -143v71h298v-71h-298z" />
    <glyph glyph-name="uni1E5A" unicode="&#x1e5a;" horiz-adv-x="610" 
d="M63 0v644h296q108 0 157.5 -55.5t49.5 -150.5q0 -68 -34 -116t-98 -67q18 -13 28 -28t20 -40l81 -187h-112l-79 180q-11 26 -26.5 37t-52.5 11h-121v-228h-109zM172 316h158q59 0 93 29t34 93q0 121 -117 121h-168v-243zM259 -173v88h94v-88h-94z" />
    <glyph glyph-name="uni1E5B" unicode="&#x1e5b;" horiz-adv-x="367" 
d="M63 0v474h100l6 -55q34 22 81 40t93 25v-83q-28 -5 -60.5 -14.5t-61.5 -21t-49 -23.5v-342h-109zM69 -173v88h94v-88h-94z" />
    <glyph glyph-name="uni1E5C" unicode="&#x1e5c;" horiz-adv-x="610" 
d="M144 717v71h298v-71h-298zM63 0v644h296q108 0 157.5 -55.5t49.5 -150.5q0 -68 -34 -116t-98 -67q18 -13 28 -28t20 -40l81 -187h-112l-79 180q-11 26 -26.5 37t-52.5 11h-121v-228h-109zM172 316h158q59 0 93 29t34 93q0 121 -117 121h-168v-243zM259 -173v88h94v-88
h-94z" />
    <glyph glyph-name="uni1E5D" unicode="&#x1e5d;" horiz-adv-x="371" 
d="M11 551v71h298v-71h-298zM67 0v474h100l6 -55q34 22 81 40t93 25v-83q-28 -5 -60.5 -14.5t-61.5 -21t-49 -23.5v-342h-109zM74 -173v88h94v-88h-94z" />
    <glyph glyph-name="uni1E5E" unicode="&#x1e5e;" horiz-adv-x="610" 
d="M63 0v644h296q108 0 157.5 -55.5t49.5 -150.5q0 -68 -34 -116t-98 -67q18 -13 28 -28t20 -40l81 -187h-112l-79 180q-11 26 -26.5 37t-52.5 11h-121v-228h-109zM172 316h158q59 0 93 29t34 93q0 121 -117 121h-168v-243zM145 -143v71h298v-71h-298z" />
    <glyph glyph-name="uni1E5F" unicode="&#x1e5f;" horiz-adv-x="367" 
d="M63 0v474h100l6 -55q34 22 81 40t93 25v-83q-28 -5 -60.5 -14.5t-61.5 -21t-49 -23.5v-342h-109zM-23 -143v71h298v-71h-298z" />
    <glyph glyph-name="uni1E60" unicode="&#x1e60;" horiz-adv-x="555" 
d="M229 711v88h92v-88h-92zM258 -10q-125 0 -201 32v96q43 -16 92.5 -26t98.5 -10q77 0 115.5 18t38.5 72q0 33 -16 53t-53 34.5t-102 30.5q-104 27 -146 68.5t-42 114.5q0 85 62 133t185 48q56 0 105.5 -8t77.5 -18v-96q-76 29 -168 29q-72 0 -112 -19t-40 -69
q0 -29 14 -47t48.5 -31t95.5 -29q79 -20 122.5 -47.5t61 -64t17.5 -82.5q0 -85 -63 -133.5t-191 -48.5z" />
    <glyph glyph-name="uni1E61" unicode="&#x1e61;" horiz-adv-x="464" 
d="M189 545v88h92v-88h-92zM221 -10q-49 0 -93.5 7t-73.5 17v92q34 -13 75 -20t78 -7q56 0 80 10t24 39q0 21 -14.5 33t-43 22t-72.5 24q-42 14 -73 30.5t-48 42.5t-17 68q0 65 47 100.5t151 35.5q41 0 78 -6t63 -15v-91q-28 11 -61.5 17t-62.5 6q-52 0 -78.5 -9t-26.5 -36
q0 -28 27.5 -39.5t88.5 -31.5q56 -17 89 -36t47.5 -45.5t14.5 -68.5q0 -70 -51 -104.5t-148 -34.5z" />
    <glyph glyph-name="uni1E62" unicode="&#x1e62;" horiz-adv-x="555" 
d="M258 -10q-125 0 -201 32v96q43 -16 92.5 -26t98.5 -10q77 0 115.5 18t38.5 72q0 33 -16 53t-53 34.5t-102 30.5q-104 27 -146 68.5t-42 114.5q0 85 62 133t185 48q56 0 105.5 -8t77.5 -18v-96q-76 29 -168 29q-72 0 -112 -19t-40 -69q0 -29 14 -47t48.5 -31t95.5 -29
q79 -20 122.5 -47.5t61 -64t17.5 -82.5q0 -85 -63 -133.5t-191 -48.5zM222 -173v88h94v-88h-94z" />
    <glyph glyph-name="uni1E63" unicode="&#x1e63;" horiz-adv-x="464" 
d="M221 -10q-49 0 -93.5 7t-73.5 17v92q34 -13 75 -20t78 -7q56 0 80 10t24 39q0 21 -14.5 33t-43 22t-72.5 24q-42 14 -73 30.5t-48 42.5t-17 68q0 65 47 100.5t151 35.5q41 0 78 -6t63 -15v-91q-28 11 -61.5 17t-62.5 6q-52 0 -78.5 -9t-26.5 -36q0 -28 27.5 -39.5
t88.5 -31.5q56 -17 89 -36t47.5 -45.5t14.5 -68.5q0 -70 -51 -104.5t-148 -34.5zM193 -173v88h94v-88h-94z" />
    <glyph glyph-name="uni1E6C" unicode="&#x1e6c;" horiz-adv-x="568" 
d="M230 0v559h-206v85h520v-85h-205v-559h-109zM237 -166v88h94v-88h-94z" />
    <glyph glyph-name="uni1E6D" unicode="&#x1e6d;" horiz-adv-x="363" 
d="M244 -10q-76 0 -113.5 40.5t-37.5 110.5v248h-70v85h70v109l108 33v-142h126l-7 -85h-119v-242q0 -41 19 -57.5t62 -16.5q27 0 57 10v-77q-39 -16 -95 -16zM178 -166v88h94v-88h-94z" />
    <glyph glyph-name="uni1E6E" unicode="&#x1e6e;" horiz-adv-x="568" 
d="M230 0v559h-206v85h520v-85h-205v-559h-109zM135 -136v71h298v-71h-298z" />
    <glyph glyph-name="uni1E6F" unicode="&#x1e6f;" horiz-adv-x="363" 
d="M244 -10q-76 0 -113.5 40.5t-37.5 110.5v248h-70v85h70v109l108 33v-142h126l-7 -85h-119v-242q0 -41 19 -57.5t62 -16.5q27 0 57 10v-77q-39 -16 -95 -16zM51 -136v71h298v-71h-298z" />
    <glyph glyph-name="Wgrave" unicode="&#x1e80;" horiz-adv-x="869" 
d="M376 688l-83 177h95l76 -177h-88zM194 0l-150 644h107l109 -483l122 405v78h89l137 -483l111 483h106l-149 -644h-107l-129 451l-137 -451h-109z" />
    <glyph glyph-name="wgrave" unicode="&#x1e81;" horiz-adv-x="746" 
d="M322 522l-83 177h95l76 -177h-88zM168 0l-125 474h109l82 -345l93 287v58h83l103 -345l82 345h108l-124 -474h-103l-101 310l-103 -310h-104z" />
    <glyph glyph-name="Wacute" unicode="&#x1e82;" horiz-adv-x="869" 
d="M388 688l75 177h96l-84 -177h-87zM194 0l-150 644h107l109 -483l122 405v78h89l137 -483l111 483h106l-149 -644h-107l-129 451l-137 -451h-109z" />
    <glyph glyph-name="wacute" unicode="&#x1e83;" horiz-adv-x="746" 
d="M324 522l75 177h96l-84 -177h-87zM168 0l-125 474h109l82 -345l93 287v58h83l103 -345l82 345h108l-124 -474h-103l-101 310l-103 -310h-104z" />
    <glyph glyph-name="Wdieresis" unicode="&#x1e84;" horiz-adv-x="869" 
d="M301 710v86h92v-86h-92zM487 710v86h92v-86h-92zM194 0l-150 644h107l109 -483l122 405v78h89l137 -483l111 483h106l-149 -644h-107l-129 451l-137 -451h-109z" />
    <glyph glyph-name="wdieresis" unicode="&#x1e85;" horiz-adv-x="746" 
d="M236 544v86h92v-86h-92zM422 544v86h92v-86h-92zM168 0l-125 474h109l82 -345l93 287v58h83l103 -345l82 345h108l-124 -474h-103l-101 310l-103 -310h-104z" />
    <glyph glyph-name="uni1E8E" unicode="&#x1e8e;" horiz-adv-x="656" 
d="M282 711v88h92v-88h-92zM274 0v239l-231 405h113l172 -313l172 313h113l-231 -405v-239h-108z" />
    <glyph glyph-name="uni1E8F" unicode="&#x1e8f;" horiz-adv-x="598" 
d="M262 545v88h92v-88h-92zM170 -176q-54 0 -92 14v81q17 -6 31.5 -8t29.5 -2q31 0 50 10t33.5 31.5t31.5 55.5l-211 468h113l152 -352l154 352h112l-193 -447q-25 -60 -53.5 -105.5t-66 -71.5t-91.5 -26z" />
    <glyph glyph-name="uni1E92" unicode="&#x1e92;" horiz-adv-x="575" 
d="M43 0v58l346 497h-329v89h469v-67l-343 -493h348v-84h-491zM256 -173v88h94v-88h-94z" />
    <glyph glyph-name="uni1E93" unicode="&#x1e93;" horiz-adv-x="487" 
d="M43 0v57l259 328h-247v89h381v-67l-254 -323h261v-84h-400zM195 -173v88h94v-88h-94z" />
    <glyph glyph-name="uni1E97" unicode="&#x1e97;" horiz-adv-x="363" 
d="M24 643v86h92v-86h-92zM210 643v86h92v-86h-92zM244 -10q-76 0 -113.5 40.5t-37.5 110.5v248h-70v85h70v109l108 33v-142h126l-7 -85h-119v-242q0 -41 19 -57.5t62 -16.5q27 0 57 10v-77q-39 -16 -95 -16z" />
    <glyph glyph-name="uni1E9E" unicode="&#x1e9e;" horiz-adv-x="625" 
d="M385 -10q-40 0 -77 5.5t-67 16.5v92q26 -11 59.5 -16.5t64.5 -5.5q112 0 112 102q0 47 -26.5 66t-79.5 19h-96v92l178 111q0 38 -33.5 65t-108.5 27q-76 0 -112 -33.5t-36 -101.5v-429h-105v426q0 109 65.5 168.5t187.5 59.5q87 0 141 -28.5t79 -76t25 -105.5l-170 -103
h36q73 0 116 -43.5t43 -114.5q0 -85 -52 -139t-144 -54z" />
    <glyph glyph-name="uni1EA0" unicode="&#x1ea0;" horiz-adv-x="700" 
d="M44 0l246 644h122l244 -644h-112l-64 166h-259l-64 -166h-113zM238 250h224l-112 295zM303 -173v88h94v-88h-94z" />
    <glyph glyph-name="uni1EA1" unicode="&#x1ea1;" horiz-adv-x="547" 
d="M211 -10q-45 0 -83.5 16t-61.5 48.5t-23 80.5q0 68 46.5 109.5t143.5 41.5h152v21q0 34 -10.5 54t-38 29t-80.5 9q-84 0 -157 -25v81q32 13 78 21t99 8q104 0 158.5 -42t54.5 -137v-305h-93l-7 48q-29 -28 -71.5 -43t-106.5 -15zM240 68q49 0 85.5 16.5t59.5 44.5v83
h-150q-48 0 -69.5 -18.5t-21.5 -56.5q0 -37 25 -53t71 -16zM241 -173v88h94v-88h-94z" />
    <glyph glyph-name="uni1EA2" unicode="&#x1ea2;" horiz-adv-x="700" 
d="M308 688v82q57 3 74.5 14t17.5 36q0 42 -74 42q-15 0 -33 -3.5t-31 -8.5v59q17 6 42.5 9.5t50.5 3.5q62 0 94 -25t32 -68q0 -41 -19.5 -63.5t-68.5 -30.5v-47h-85zM44 0l246 644h122l244 -644h-112l-64 166h-259l-64 -166h-113zM238 250h224l-112 295z" />
    <glyph glyph-name="uni1EA3" unicode="&#x1ea3;" horiz-adv-x="547" 
d="M234 521v82q57 3 74.5 14t17.5 36q0 42 -74 42q-15 0 -33 -3.5t-31 -8.5v59q17 6 42.5 9.5t50.5 3.5q62 0 94 -25t32 -68q0 -41 -19.5 -63.5t-68.5 -30.5v-47h-85zM211 -10q-45 0 -83.5 16t-61.5 48.5t-23 80.5q0 68 46.5 109.5t143.5 41.5h152v21q0 34 -10.5 54t-38 29
t-80.5 9q-84 0 -157 -25v81q32 13 78 21t99 8q104 0 158.5 -42t54.5 -137v-305h-93l-7 48q-29 -28 -71.5 -43t-106.5 -15zM240 68q49 0 85.5 16.5t59.5 44.5v83h-150q-48 0 -69.5 -18.5t-21.5 -56.5q0 -37 25 -53t71 -16z" />
    <glyph glyph-name="uni1EA4" unicode="&#x1ea4;" horiz-adv-x="700" 
d="M436 800l64 133h83l-70 -133h-77zM184 687l119 127h84l119 -127h-89l-72 82l-70 -82h-91zM44 0l246 644h122l244 -644h-112l-64 166h-259l-64 -166h-113zM238 250h224l-112 295z" />
    <glyph glyph-name="uni1EA5" unicode="&#x1ea5;" horiz-adv-x="547" 
d="M378 634l64 133h83l-70 -133h-77zM126 521l119 127h84l119 -127h-89l-72 82l-70 -82h-91zM211 -10q-45 0 -83.5 16t-61.5 48.5t-23 80.5q0 68 46.5 109.5t143.5 41.5h152v21q0 34 -10.5 54t-38 29t-80.5 9q-84 0 -157 -25v81q32 13 78 21t99 8q104 0 158.5 -42t54.5 -137
v-305h-93l-7 48q-29 -28 -71.5 -43t-106.5 -15zM240 68q49 0 85.5 16.5t59.5 44.5v83h-150q-48 0 -69.5 -18.5t-21.5 -56.5q0 -37 25 -53t71 -16z" />
    <glyph glyph-name="uni1EA6" unicode="&#x1ea6;" horiz-adv-x="700" 
d="M180 800l-71 133h84l64 -133h-77zM187 687l118 127h85l118 -127h-90l-71 82l-71 -82h-89zM44 0l246 644h122l244 -644h-112l-64 166h-259l-64 -166h-113zM238 250h224l-112 295z" />
    <glyph glyph-name="uni1EA7" unicode="&#x1ea7;" horiz-adv-x="547" 
d="M109 634l-71 133h84l64 -133h-77zM116 521l118 127h85l118 -127h-90l-71 82l-71 -82h-89zM211 -10q-45 0 -83.5 16t-61.5 48.5t-23 80.5q0 68 46.5 109.5t143.5 41.5h152v21q0 34 -10.5 54t-38 29t-80.5 9q-84 0 -157 -25v81q32 13 78 21t99 8q104 0 158.5 -42t54.5 -137
v-305h-93l-7 48q-29 -28 -71.5 -43t-106.5 -15zM240 68q49 0 85.5 16.5t59.5 44.5v83h-150q-48 0 -69.5 -18.5t-21.5 -56.5q0 -37 25 -53t71 -16z" />
    <glyph glyph-name="uni1EA8" unicode="&#x1ea8;" horiz-adv-x="700" 
d="M448 779v66q48 2 62.5 11.5t14.5 27.5q0 31 -47 31q-16 0 -30 -3.5t-26 -8.5v53q15 5 33.5 8.5t43.5 3.5q49 0 76 -21.5t27 -56.5q0 -33 -18 -52t-59 -25v-34h-77zM188 687l118 127h85l118 -127h-89l-71 82l-71 -82h-90zM44 0l246 644h122l244 -644h-112l-64 166h-259
l-64 -166h-113zM238 250h224l-112 295z" />
    <glyph glyph-name="uni1EA9" unicode="&#x1ea9;" horiz-adv-x="547" 
d="M379 612v66q48 2 62.5 11.5t14.5 27.5q0 31 -47 31q-16 0 -30 -3.5t-26 -8.5v53q15 5 33.5 8.5t43.5 3.5q49 0 76 -21.5t27 -56.5q0 -33 -18 -52t-59 -25v-34h-77zM119 520l118 127h85l118 -127h-89l-71 82l-71 -82h-90zM211 -10q-45 0 -83.5 16t-61.5 48.5t-23 80.5
q0 68 46.5 109.5t143.5 41.5h152v21q0 34 -10.5 54t-38 29t-80.5 9q-84 0 -157 -25v81q32 13 78 21t99 8q104 0 158.5 -42t54.5 -137v-305h-93l-7 48q-29 -28 -71.5 -43t-106.5 -15zM240 68q49 0 85.5 16.5t59.5 44.5v83h-150q-48 0 -69.5 -18.5t-21.5 -56.5q0 -37 25 -53
t71 -16z" />
    <glyph glyph-name="uni1EAA" unicode="&#x1eaa;" horiz-adv-x="700" 
d="M432 822q-26 0 -51.5 9.5t-49 19t-46.5 9.5q-25 0 -45.5 -8t-37.5 -27v71q13 13 35.5 21t46.5 8q28 0 52 -9t47 -18.5t48 -9.5q51 0 77 35v-71q-10 -13 -30 -21.5t-46 -8.5zM189 687l118 127h85l118 -127h-89l-71 82l-71 -82h-90zM44 0l246 644h122l244 -644h-112
l-64 166h-259l-64 -166h-113zM238 250h224l-112 295z" />
    <glyph glyph-name="uni1EAB" unicode="&#x1eab;" horiz-adv-x="547" 
d="M367 656q-26 0 -51.5 9.5t-49 19t-46.5 9.5q-25 0 -45.5 -8t-37.5 -27v71q13 13 35.5 21t46.5 8q28 0 52 -9t47 -18.5t48 -9.5q51 0 77 35v-71q-10 -13 -30 -21.5t-46 -8.5zM124 521l118 127h85l118 -127h-89l-71 82l-71 -82h-90zM211 -10q-45 0 -83.5 16t-61.5 48.5
t-23 80.5q0 68 46.5 109.5t143.5 41.5h152v21q0 34 -10.5 54t-38 29t-80.5 9q-84 0 -157 -25v81q32 13 78 21t99 8q104 0 158.5 -42t54.5 -137v-305h-93l-7 48q-29 -28 -71.5 -43t-106.5 -15zM240 68q49 0 85.5 16.5t59.5 44.5v83h-150q-48 0 -69.5 -18.5t-21.5 -56.5
q0 -37 25 -53t71 -16z" />
    <glyph glyph-name="uni1EAC" unicode="&#x1eac;" horiz-adv-x="700" 
d="M186 687l125 161h76l125 -161h-87l-76 101l-74 -101h-89zM44 0l246 644h122l244 -644h-112l-64 166h-259l-64 -166h-113zM238 250h224l-112 295zM303 -173v88h94v-88h-94z" />
    <glyph glyph-name="uni1EAD" unicode="&#x1ead;" horiz-adv-x="547" 
d="M120 521l125 161h76l125 -161h-87l-76 101l-74 -101h-89zM211 -10q-45 0 -83.5 16t-61.5 48.5t-23 80.5q0 68 46.5 109.5t143.5 41.5h152v21q0 34 -10.5 54t-38 29t-80.5 9q-84 0 -157 -25v81q32 13 78 21t99 8q104 0 158.5 -42t54.5 -137v-305h-93l-7 48
q-29 -28 -71.5 -43t-106.5 -15zM240 68q49 0 85.5 16.5t59.5 44.5v83h-150q-48 0 -69.5 -18.5t-21.5 -56.5q0 -37 25 -53t71 -16zM236 -173v88h94v-88h-94z" />
    <glyph glyph-name="uni1EAE" unicode="&#x1eae;" horiz-adv-x="700" 
d="M303 805l64 133h84l-71 -133h-77zM350 688q-43 0 -78.5 14.5t-56.5 47.5t-21 86h66q0 -44 24.5 -66.5t65.5 -22.5t65.5 22.5t24.5 66.5h66q0 -53 -21 -86t-56 -47.5t-79 -14.5zM44 0l246 644h122l244 -644h-112l-64 166h-259l-64 -166h-113zM238 250h224l-112 295z" />
    <glyph glyph-name="uni1EAF" unicode="&#x1eaf;" horiz-adv-x="547" 
d="M247 639l64 133h84l-71 -133h-77zM294 522q-43 0 -78.5 14.5t-56.5 47.5t-21 86h66q0 -44 24.5 -66.5t65.5 -22.5t65.5 22.5t24.5 66.5h66q0 -53 -21 -86t-56 -47.5t-79 -14.5zM211 -10q-45 0 -83.5 16t-61.5 48.5t-23 80.5q0 68 46.5 109.5t143.5 41.5h152v21
q0 34 -10.5 54t-38 29t-80.5 9q-84 0 -157 -25v81q32 13 78 21t99 8q104 0 158.5 -42t54.5 -137v-305h-93l-7 48q-29 -28 -71.5 -43t-106.5 -15zM240 68q49 0 85.5 16.5t59.5 44.5v83h-150q-48 0 -69.5 -18.5t-21.5 -56.5q0 -37 25 -53t71 -16z" />
    <glyph glyph-name="uni1EB0" unicode="&#x1eb0;" horiz-adv-x="700" 
d="M320 805l-71 133h84l64 -133h-77zM350 688q-43 0 -78.5 14.5t-56.5 47.5t-21 86h66q0 -44 24.5 -66.5t65.5 -22.5t65.5 22.5t24.5 66.5h66q0 -53 -21 -86t-56 -47.5t-79 -14.5zM44 0l246 644h122l244 -644h-112l-64 166h-259l-64 -166h-113zM238 250h224l-112 295z" />
    <glyph glyph-name="uni1EB1" unicode="&#x1eb1;" horiz-adv-x="547" 
d="M248 639l-71 133h84l64 -133h-77zM278 522q-43 0 -78.5 14.5t-56.5 47.5t-21 86h66q0 -44 24.5 -66.5t65.5 -22.5t65.5 22.5t24.5 66.5h66q0 -53 -21 -86t-56 -47.5t-79 -14.5zM211 -10q-45 0 -83.5 16t-61.5 48.5t-23 80.5q0 68 46.5 109.5t143.5 41.5h152v21
q0 34 -10.5 54t-38 29t-80.5 9q-84 0 -157 -25v81q32 13 78 21t99 8q104 0 158.5 -42t54.5 -137v-305h-93l-7 48q-29 -28 -71.5 -43t-106.5 -15zM240 68q49 0 85.5 16.5t59.5 44.5v83h-150q-48 0 -69.5 -18.5t-21.5 -56.5q0 -37 25 -53t71 -16z" />
    <glyph glyph-name="uni1EB2" unicode="&#x1eb2;" horiz-adv-x="700" 
d="M306 810v59q48 2 64.5 13t16.5 30q0 20 -13 26.5t-39 6.5q-16 0 -29.5 -3.5t-25.5 -8.5v51q15 5 36.5 8.5t44.5 3.5q47 0 73 -21t26 -56q0 -33 -18 -50.5t-60 -25.5v-33h-76zM350 688q-43 0 -78.5 14.5t-56.5 47.5t-21 86h66q0 -44 24.5 -66.5t65.5 -22.5t65.5 22.5
t24.5 66.5h66q0 -53 -21 -86t-56 -47.5t-79 -14.5zM44 0l246 644h122l244 -644h-112l-64 166h-259l-64 -166h-113zM238 250h224l-112 295z" />
    <glyph glyph-name="uni1EB3" unicode="&#x1eb3;" horiz-adv-x="547" 
d="M234 644v59q48 2 64.5 13t16.5 30q0 20 -13 26.5t-39 6.5q-16 0 -29.5 -3.5t-25.5 -8.5v51q15 5 36.5 8.5t44.5 3.5q47 0 73 -21t26 -56q0 -33 -18 -50.5t-60 -25.5v-33h-76zM278 522q-43 0 -78.5 14.5t-56.5 47.5t-21 86h66q0 -44 24.5 -66.5t65.5 -22.5t65.5 22.5
t24.5 66.5h66q0 -53 -21 -86t-56 -47.5t-79 -14.5zM211 -10q-45 0 -83.5 16t-61.5 48.5t-23 80.5q0 68 46.5 109.5t143.5 41.5h152v21q0 34 -10.5 54t-38 29t-80.5 9q-84 0 -157 -25v81q32 13 78 21t99 8q104 0 158.5 -42t54.5 -137v-305h-93l-7 48q-29 -28 -71.5 -43
t-106.5 -15zM240 68q49 0 85.5 16.5t59.5 44.5v83h-150q-48 0 -69.5 -18.5t-21.5 -56.5q0 -37 25 -53t71 -16z" />
    <glyph glyph-name="uni1EB4" unicode="&#x1eb4;" horiz-adv-x="700" 
d="M428 857q-26 0 -51.5 9.5t-49 18.5t-46.5 9q-25 0 -45.5 -8t-37.5 -26v71q13 13 35.5 21t46.5 8q28 0 52 -9.5t47 -19t48 -9.5q52 0 77 36v-72q-10 -13 -30 -21t-46 -8zM350 688q-43 0 -78.5 14.5t-56.5 47.5t-21 86h66q0 -44 24.5 -66.5t65.5 -22.5t65.5 22.5t24.5 66.5
h66q0 -53 -21 -86t-56 -47.5t-79 -14.5zM44 0l246 644h122l244 -644h-112l-64 166h-259l-64 -166h-113zM238 250h224l-112 295z" />
    <glyph glyph-name="uni1EB5" unicode="&#x1eb5;" horiz-adv-x="547" 
d="M357 691q-26 0 -51.5 9.5t-49 18.5t-46.5 9q-25 0 -45.5 -8t-37.5 -26v71q13 13 35.5 21t46.5 8q28 0 52 -9.5t47 -19t48 -9.5q52 0 77 36v-72q-10 -13 -30 -21t-46 -8zM279 522q-43 0 -78.5 14.5t-56.5 47.5t-21 86h66q0 -44 24.5 -66.5t65.5 -22.5t65.5 22.5t24.5 66.5
h66q0 -53 -21 -86t-56 -47.5t-79 -14.5zM211 -10q-45 0 -83.5 16t-61.5 48.5t-23 80.5q0 68 46.5 109.5t143.5 41.5h152v21q0 34 -10.5 54t-38 29t-80.5 9q-84 0 -157 -25v81q32 13 78 21t99 8q104 0 158.5 -42t54.5 -137v-305h-93l-7 48q-29 -28 -71.5 -43t-106.5 -15z
M240 68q49 0 85.5 16.5t59.5 44.5v83h-150q-48 0 -69.5 -18.5t-21.5 -56.5q0 -37 25 -53t71 -16z" />
    <glyph glyph-name="uni1EB6" unicode="&#x1eb6;" horiz-adv-x="700" 
d="M348 688q-66 0 -103.5 38.5t-37.5 102.5h74q0 -34 17.5 -55t49.5 -21q34 0 52 21t18 55h74q0 -64 -38.5 -102.5t-105.5 -38.5zM44 0l246 644h122l244 -644h-112l-64 166h-259l-64 -166h-113zM238 250h224l-112 295zM303 -173v88h94v-88h-94z" />
    <glyph glyph-name="uni1EB7" unicode="&#x1eb7;" horiz-adv-x="547" 
d="M289 522q-66 0 -103.5 38.5t-37.5 102.5h74q0 -34 17.5 -55t49.5 -21q34 0 52 21t18 55h74q0 -64 -38.5 -102.5t-105.5 -38.5zM211 -10q-45 0 -83.5 16t-61.5 48.5t-23 80.5q0 68 46.5 109.5t143.5 41.5h152v21q0 34 -10.5 54t-38 29t-80.5 9q-84 0 -157 -25v81
q32 13 78 21t99 8q104 0 158.5 -42t54.5 -137v-305h-93l-7 48q-29 -28 -71.5 -43t-106.5 -15zM240 68q49 0 85.5 16.5t59.5 44.5v83h-150q-48 0 -69.5 -18.5t-21.5 -56.5q0 -37 25 -53t71 -16zM243 -173v88h94v-88h-94z" />
    <glyph glyph-name="uni1EB8" unicode="&#x1eb8;" horiz-adv-x="550" 
d="M63 0v644h449v-85h-340v-195h303v-84h-303v-196h340v-84h-449zM233 -173v88h94v-88h-94z" />
    <glyph glyph-name="uni1EB9" unicode="&#x1eb9;" horiz-adv-x="537" 
d="M303 -10q-124 0 -192 61t-68 187q0 114 58 180t176 66q108 0 162.5 -56.5t54.5 -145.5v-88h-347q8 -69 50 -95t128 -26q36 0 74 7t66 18v-80q-32 -14 -73.5 -21t-88.5 -7zM147 265h251v33q0 49 -27 76.5t-91 27.5q-76 0 -104.5 -33t-28.5 -104zM228 -173v88h94v-88h-94z
" />
    <glyph glyph-name="uni1EBA" unicode="&#x1eba;" horiz-adv-x="550" 
d="M237 687v82q57 3 74.5 14t17.5 36q0 42 -74 42q-15 0 -33 -3.5t-31 -8.5v59q17 6 42.5 9.5t50.5 3.5q62 0 94 -25t32 -68q0 -41 -19.5 -63.5t-68.5 -30.5v-47h-85zM63 0v644h449v-85h-340v-195h303v-84h-303v-196h340v-84h-449z" />
    <glyph glyph-name="uni1EBB" unicode="&#x1ebb;" horiz-adv-x="537" 
d="M233 521v82q57 3 74.5 14t17.5 36q0 42 -74 42q-15 0 -33 -3.5t-31 -8.5v59q17 6 42.5 9.5t50.5 3.5q62 0 94 -25t32 -68q0 -41 -19.5 -63.5t-68.5 -30.5v-47h-85zM303 -10q-124 0 -192 61t-68 187q0 114 58 180t176 66q108 0 162.5 -56.5t54.5 -145.5v-88h-347
q8 -69 50 -95t128 -26q36 0 74 7t66 18v-80q-32 -14 -73.5 -21t-88.5 -7zM147 265h251v33q0 49 -27 76.5t-91 27.5q-76 0 -104.5 -33t-28.5 -104z" />
    <glyph glyph-name="uni1EBC" unicode="&#x1ebc;" horiz-adv-x="550" 
d="M362 703q-27 0 -53.5 10t-51 19.5t-47.5 9.5q-26 0 -48 -8t-39 -28v80q13 14 36.5 22t48.5 8q29 0 54 -9.5t49 -19.5t50 -10q52 0 80 37v-80q-10 -13 -31 -22t-48 -9zM63 0v644h449v-85h-340v-195h303v-84h-303v-196h340v-84h-449z" />
    <glyph glyph-name="uni1EBD" unicode="&#x1ebd;" horiz-adv-x="537" 
d="M355 537q-27 0 -53.5 10t-51 19.5t-47.5 9.5q-26 0 -48 -8t-39 -28v80q13 14 36.5 22t48.5 8q29 0 54 -9.5t49 -19.5t50 -10q52 0 80 37v-80q-10 -13 -31 -22t-48 -9zM303 -10q-124 0 -192 61t-68 187q0 114 58 180t176 66q108 0 162.5 -56.5t54.5 -145.5v-88h-347
q8 -69 50 -95t128 -26q36 0 74 7t66 18v-80q-32 -14 -73.5 -21t-88.5 -7zM147 265h251v33q0 49 -27 76.5t-91 27.5q-76 0 -104.5 -33t-28.5 -104z" />
    <glyph glyph-name="uni1EBE" unicode="&#x1ebe;" horiz-adv-x="550" 
d="M373 799l64 133h83l-70 -133h-77zM121 686l119 127h84l119 -127h-89l-72 82l-70 -82h-91zM63 0v644h449v-85h-340v-195h303v-84h-303v-196h340v-84h-449z" />
    <glyph glyph-name="uni1EBF" unicode="&#x1ebf;" horiz-adv-x="537" 
d="M368 633l64 133h83l-70 -133h-77zM116 520l119 127h84l119 -127h-89l-72 82l-70 -82h-91zM303 -10q-124 0 -192 61t-68 187q0 114 58 180t176 66q108 0 162.5 -56.5t54.5 -145.5v-88h-347q8 -69 50 -95t128 -26q36 0 74 7t66 18v-80q-32 -14 -73.5 -21t-88.5 -7zM147 265
h251v33q0 49 -27 76.5t-91 27.5q-76 0 -104.5 -33t-28.5 -104z" />
    <glyph glyph-name="uni1EC0" unicode="&#x1ec0;" horiz-adv-x="550" 
d="M124 799l-71 133h84l64 -133h-77zM131 686l118 127h85l118 -127h-90l-71 82l-71 -82h-89zM63 0v644h449v-85h-340v-195h303v-84h-303v-196h340v-84h-449z" />
    <glyph glyph-name="uni1EC1" unicode="&#x1ec1;" horiz-adv-x="537" 
d="M116 646l-71 133h84l64 -133h-77zM123 533l118 127h85l118 -127h-90l-71 82l-71 -82h-89zM303 -10q-124 0 -192 61t-68 187q0 114 58 180t176 66q108 0 162.5 -56.5t54.5 -145.5v-88h-347q8 -69 50 -95t128 -26q36 0 74 7t66 18v-80q-32 -14 -73.5 -21t-88.5 -7zM147 265
h251v33q0 49 -27 76.5t-91 27.5q-76 0 -104.5 -33t-28.5 -104z" />
    <glyph glyph-name="uni1EC2" unicode="&#x1ec2;" horiz-adv-x="550" 
d="M384 778v66q48 2 62.5 11.5t14.5 27.5q0 31 -47 31q-16 0 -30 -3.5t-26 -8.5v53q15 5 33.5 8.5t43.5 3.5q49 0 76 -21.5t27 -56.5q0 -33 -18 -52t-59 -25v-34h-77zM124 686l118 127h85l118 -127h-89l-71 82l-71 -82h-90zM63 0v644h449v-85h-340v-195h303v-84h-303v-196
h340v-84h-449z" />
    <glyph glyph-name="uni1EC3" unicode="&#x1ec3;" horiz-adv-x="537" 
d="M372 612v66q48 2 62.5 11.5t14.5 27.5q0 31 -47 31q-16 0 -30 -3.5t-26 -8.5v53q15 5 33.5 8.5t43.5 3.5q49 0 76 -21.5t27 -56.5q0 -33 -18 -52t-59 -25v-34h-77zM112 520l118 127h85l118 -127h-89l-71 82l-71 -82h-90zM303 -10q-124 0 -192 61t-68 187q0 114 58 180
t176 66q108 0 162.5 -56.5t54.5 -145.5v-88h-347q8 -69 50 -95t128 -26q36 0 74 7t66 18v-80q-32 -14 -73.5 -21t-88.5 -7zM147 265h251v33q0 49 -27 76.5t-91 27.5q-76 0 -104.5 -33t-28.5 -104z" />
    <glyph glyph-name="uni1EC4" unicode="&#x1ec4;" horiz-adv-x="550" 
d="M368 822q-26 0 -51.5 9.5t-49 19t-46.5 9.5q-25 0 -45.5 -8t-37.5 -27v71q13 13 35.5 21t46.5 8q28 0 52 -9t47 -18.5t48 -9.5q51 0 77 35v-71q-10 -13 -30 -21.5t-46 -8.5zM125 687l118 127h85l118 -127h-89l-71 82l-71 -82h-90zM63 0v644h449v-85h-340v-195h303v-84
h-303v-196h340v-84h-449z" />
    <glyph glyph-name="uni1EC5" unicode="&#x1ec5;" horiz-adv-x="537" 
d="M359 656q-26 0 -51.5 9.5t-49 19t-46.5 9.5q-25 0 -45.5 -8t-37.5 -27v71q13 13 35.5 21t46.5 8q28 0 52 -9t47 -18.5t48 -9.5q51 0 77 35v-71q-10 -13 -30 -21.5t-46 -8.5zM116 521l118 127h85l118 -127h-89l-71 82l-71 -82h-90zM303 -10q-124 0 -192 61t-68 187
q0 114 58 180t176 66q108 0 162.5 -56.5t54.5 -145.5v-88h-347q8 -69 50 -95t128 -26q36 0 74 7t66 18v-80q-32 -14 -73.5 -21t-88.5 -7zM147 265h251v33q0 49 -27 76.5t-91 27.5q-76 0 -104.5 -33t-28.5 -104z" />
    <glyph glyph-name="uni1EC6" unicode="&#x1ec6;" horiz-adv-x="550" 
d="M113 687l125 161h76l125 -161h-87l-76 101l-74 -101h-89zM63 0v644h449v-85h-340v-195h303v-84h-303v-196h340v-84h-449zM229 -173v88h94v-88h-94z" />
    <glyph glyph-name="uni1EC7" unicode="&#x1ec7;" horiz-adv-x="537" 
d="M111 521l125 161h76l125 -161h-87l-76 101l-74 -101h-89zM303 -10q-124 0 -192 61t-68 187q0 114 58 180t176 66q108 0 162.5 -56.5t54.5 -145.5v-88h-347q8 -69 50 -95t128 -26q36 0 74 7t66 18v-80q-32 -14 -73.5 -21t-88.5 -7zM147 265h251v33q0 49 -27 76.5t-91 27.5
q-76 0 -104.5 -33t-28.5 -104zM228 -173v88h94v-88h-94z" />
    <glyph glyph-name="uni1EC8" unicode="&#x1ec8;" horiz-adv-x="235" 
d="M74 687v82q57 3 74.5 14t17.5 36q0 42 -74 42q-15 0 -33 -3.5t-31 -8.5v59q17 6 42.5 9.5t50.5 3.5q62 0 94 -25t32 -68q0 -41 -19.5 -63.5t-68.5 -30.5v-47h-85zM63 0v644h109v-644h-109z" />
    <glyph glyph-name="uni1EC9" unicode="&#x1ec9;" horiz-adv-x="308" 
d="M118 521v82q57 3 74.5 14t17.5 36q0 42 -74 42q-15 0 -33 -3.5t-31 -8.5v59q17 6 42.5 9.5t50.5 3.5q62 0 94 -25t32 -68q0 -41 -19.5 -63.5t-68.5 -30.5v-47h-85zM135 0v391h-72l10 83h171v-474h-109z" />
    <glyph glyph-name="uni1ECA" unicode="&#x1eca;" horiz-adv-x="235" 
d="M63 0v644h109v-644h-109zM70 -173v88h94v-88h-94z" />
    <glyph glyph-name="uni1ECB" unicode="&#x1ecb;" horiz-adv-x="308" 
d="M126 573v90h119v-90h-119zM135 0v391h-72l10 83h171v-474h-109zM143 -173v88h94v-88h-94z" />
    <glyph glyph-name="uni1ECC" unicode="&#x1ecc;" horiz-adv-x="697" 
d="M348 -10q-153 0 -229 80.5t-76 249.5q0 176 76 255t229 79q154 0 229.5 -79t75.5 -255q0 -169 -75.5 -249.5t-229.5 -80.5zM348 82q101 0 148.5 55.5t47.5 182.5q0 134 -47.5 187.5t-148.5 53.5q-100 0 -147.5 -53.5t-47.5 -187.5q0 -127 47.5 -182.5t147.5 -55.5z
M301 -173v88h94v-88h-94z" />
    <glyph glyph-name="uni1ECD" unicode="&#x1ecd;" horiz-adv-x="581" 
d="M290 -10q-128 0 -187.5 64t-59.5 183t60 183t187 64q128 0 188 -64t60 -183t-59.5 -183t-188.5 -64zM290 82q75 0 106.5 36.5t31.5 118.5t-31.5 118t-106.5 36q-74 0 -105.5 -36t-31.5 -118t31.5 -118.5t105.5 -36.5zM243 -173v88h94v-88h-94z" />
    <glyph glyph-name="uni1ECE" unicode="&#x1ece;" horiz-adv-x="697" 
d="M307 687v82q57 3 74.5 14t17.5 36q0 42 -74 42q-15 0 -33 -3.5t-31 -8.5v59q17 6 42.5 9.5t50.5 3.5q62 0 94 -25t32 -68q0 -41 -19.5 -63.5t-68.5 -30.5v-47h-85zM348 -10q-153 0 -229 80.5t-76 249.5q0 176 76 255t229 79q154 0 229.5 -79t75.5 -255
q0 -169 -75.5 -249.5t-229.5 -80.5zM348 82q101 0 148.5 55.5t47.5 182.5q0 134 -47.5 187.5t-148.5 53.5q-100 0 -147.5 -53.5t-47.5 -187.5q0 -127 47.5 -182.5t147.5 -55.5z" />
    <glyph glyph-name="uni1ECF" unicode="&#x1ecf;" horiz-adv-x="581" 
d="M249 521v82q57 3 74.5 14t17.5 36q0 42 -74 42q-15 0 -33 -3.5t-31 -8.5v59q17 6 42.5 9.5t50.5 3.5q62 0 94 -25t32 -68q0 -41 -19.5 -63.5t-68.5 -30.5v-47h-85zM290 -10q-128 0 -187.5 64t-59.5 183t60 183t187 64q128 0 188 -64t60 -183t-59.5 -183t-188.5 -64z
M290 82q75 0 106.5 36.5t31.5 118.5t-31.5 118t-106.5 36q-74 0 -105.5 -36t-31.5 -118t31.5 -118.5t105.5 -36.5z" />
    <glyph glyph-name="uni1ED0" unicode="&#x1ed0;" horiz-adv-x="697" 
d="M442 800l64 133h83l-70 -133h-77zM190 687l119 127h84l119 -127h-89l-72 82l-70 -82h-91zM348 -10q-153 0 -229 80.5t-76 249.5q0 176 76 255t229 79q154 0 229.5 -79t75.5 -255q0 -169 -75.5 -249.5t-229.5 -80.5zM348 82q101 0 148.5 55.5t47.5 182.5
q0 134 -47.5 187.5t-148.5 53.5q-100 0 -147.5 -53.5t-47.5 -187.5q0 -127 47.5 -182.5t147.5 -55.5z" />
    <glyph glyph-name="uni1ED1" unicode="&#x1ed1;" horiz-adv-x="581" 
d="M381 634l64 133h83l-70 -133h-77zM129 521l119 127h84l119 -127h-89l-72 82l-70 -82h-91zM290 -10q-128 0 -187.5 64t-59.5 183t60 183t187 64q128 0 188 -64t60 -183t-59.5 -183t-188.5 -64zM290 82q75 0 106.5 36.5t31.5 118.5t-31.5 118t-106.5 36q-74 0 -105.5 -36
t-31.5 -118t31.5 -118.5t105.5 -36.5z" />
    <glyph glyph-name="uni1ED2" unicode="&#x1ed2;" horiz-adv-x="697" 
d="M180 800l-71 133h84l64 -133h-77zM187 687l118 127h85l118 -127h-90l-71 82l-71 -82h-89zM348 -10q-153 0 -229 80.5t-76 249.5q0 176 76 255t229 79q154 0 229.5 -79t75.5 -255q0 -169 -75.5 -249.5t-229.5 -80.5zM348 82q101 0 148.5 55.5t47.5 182.5
q0 134 -47.5 187.5t-148.5 53.5q-100 0 -147.5 -53.5t-47.5 -187.5q0 -127 47.5 -182.5t147.5 -55.5z" />
    <glyph glyph-name="uni1ED3" unicode="&#x1ed3;" horiz-adv-x="581" 
d="M123 634l-71 133h84l64 -133h-77zM131 521l118 127h85l118 -127h-90l-71 82l-71 -82h-89zM290 -10q-128 0 -187.5 64t-59.5 183t60 183t187 64q128 0 188 -64t60 -183t-59.5 -183t-188.5 -64zM290 82q75 0 106.5 36.5t31.5 118.5t-31.5 118t-106.5 36q-74 0 -105.5 -36
t-31.5 -118t31.5 -118.5t105.5 -36.5z" />
    <glyph glyph-name="uni1ED4" unicode="&#x1ed4;" horiz-adv-x="697" 
d="M445 779v66q48 2 62.5 11.5t14.5 27.5q0 31 -47 31q-16 0 -30 -3.5t-26 -8.5v53q15 5 33.5 8.5t43.5 3.5q49 0 76 -21.5t27 -56.5q0 -33 -18 -52t-59 -25v-34h-77zM185 687l118 127h85l118 -127h-89l-71 82l-71 -82h-90zM348 -10q-153 0 -229 80.5t-76 249.5
q0 176 76 255t229 79q154 0 229.5 -79t75.5 -255q0 -169 -75.5 -249.5t-229.5 -80.5zM348 82q101 0 148.5 55.5t47.5 182.5q0 134 -47.5 187.5t-148.5 53.5q-100 0 -147.5 -53.5t-47.5 -187.5q0 -127 47.5 -182.5t147.5 -55.5z" />
    <glyph glyph-name="uni1ED5" unicode="&#x1ed5;" horiz-adv-x="581" 
d="M389 613v66q48 2 62.5 11.5t14.5 27.5q0 31 -47 31q-16 0 -30 -3.5t-26 -8.5v53q15 5 33.5 8.5t43.5 3.5q49 0 76 -21.5t27 -56.5q0 -33 -18 -52t-59 -25v-34h-77zM129 521l118 127h85l118 -127h-89l-71 82l-71 -82h-90zM290 -10q-128 0 -187.5 64t-59.5 183t60 183
t187 64q128 0 188 -64t60 -183t-59.5 -183t-188.5 -64zM290 82q75 0 106.5 36.5t31.5 118.5t-31.5 118t-106.5 36q-74 0 -105.5 -36t-31.5 -118t31.5 -118.5t105.5 -36.5z" />
    <glyph glyph-name="uni1ED6" unicode="&#x1ed6;" horiz-adv-x="697" 
d="M425 822q-26 0 -51.5 9.5t-49 19t-46.5 9.5q-25 0 -45.5 -8t-37.5 -27v71q13 13 35.5 21t46.5 8q28 0 52 -9t47 -18.5t48 -9.5q51 0 77 35v-71q-10 -13 -30 -21.5t-46 -8.5zM187 687l118 127h85l118 -127h-89l-71 82l-71 -82h-90zM348 -10q-153 0 -229 80.5t-76 249.5
q0 176 76 255t229 79q154 0 229.5 -79t75.5 -255q0 -169 -75.5 -249.5t-229.5 -80.5zM348 82q101 0 148.5 55.5t47.5 182.5q0 134 -47.5 187.5t-148.5 53.5q-100 0 -147.5 -53.5t-47.5 -187.5q0 -127 47.5 -182.5t147.5 -55.5z" />
    <glyph glyph-name="uni1ED7" unicode="&#x1ed7;" horiz-adv-x="581" 
d="M368 656q-26 0 -51.5 9.5t-49 19t-46.5 9.5q-25 0 -45.5 -8t-37.5 -27v71q13 13 35.5 21t46.5 8q28 0 52 -9t47 -18.5t48 -9.5q51 0 77 35v-71q-10 -13 -30 -21.5t-46 -8.5zM129 521l118 127h85l118 -127h-89l-71 82l-71 -82h-90zM290 -10q-128 0 -187.5 64t-59.5 183
t60 183t187 64q128 0 188 -64t60 -183t-59.5 -183t-188.5 -64zM290 82q75 0 106.5 36.5t31.5 118.5t-31.5 118t-106.5 36q-74 0 -105.5 -36t-31.5 -118t31.5 -118.5t105.5 -36.5z" />
    <glyph glyph-name="uni1ED8" unicode="&#x1ed8;" horiz-adv-x="697" 
d="M185 692l125 161h76l125 -161h-87l-76 101l-74 -101h-89zM348 -10q-153 0 -229 80.5t-76 249.5q0 176 76 255t229 79q154 0 229.5 -79t75.5 -255q0 -169 -75.5 -249.5t-229.5 -80.5zM348 82q101 0 148.5 55.5t47.5 182.5q0 134 -47.5 187.5t-148.5 53.5
q-100 0 -147.5 -53.5t-47.5 -187.5q0 -127 47.5 -182.5t147.5 -55.5zM301 -173v88h94v-88h-94z" />
    <glyph glyph-name="uni1ED9" unicode="&#x1ed9;" horiz-adv-x="581" 
d="M128 521l125 161h76l125 -161h-87l-76 101l-74 -101h-89zM290 -10q-128 0 -187.5 64t-59.5 183t60 183t187 64q128 0 188 -64t60 -183t-59.5 -183t-188.5 -64zM290 82q75 0 106.5 36.5t31.5 118.5t-31.5 118t-106.5 36q-74 0 -105.5 -36t-31.5 -118t31.5 -118.5
t105.5 -36.5zM243 -173v88h94v-88h-94z" />
    <glyph glyph-name="uni1EDA" unicode="&#x1eda;" horiz-adv-x="770" 
d="M315 688l75 177h96l-84 -177h-87zM348 -10q-153 0 -229 80.5t-76 249.5q0 176 76 255t229 79q151 0 225 -77q55 1 75.5 24.5t20.5 86.5h84q0 -92 -33 -133.5t-98 -51.5q31 -71 31 -183q0 -169 -75.5 -249.5t-229.5 -80.5zM348 82q101 0 148.5 55.5t47.5 182.5
q0 134 -47.5 187.5t-148.5 53.5q-100 0 -147.5 -53.5t-47.5 -187.5q0 -127 47.5 -182.5t147.5 -55.5z" />
    <glyph glyph-name="uni1EDB" unicode="&#x1edb;" horiz-adv-x="676" 
d="M253 522l75 177h96l-84 -177h-87zM290 -10q-128 0 -187.5 64t-59.5 183t60 183t187 64q65 0 111 -16.5t77 -48.5q57 1 77 27t20 90h84q0 -94 -34.5 -137t-103.5 -53q17 -48 17 -109q0 -119 -59.5 -183t-188.5 -64zM290 82q75 0 106.5 36.5t31.5 118.5t-31.5 118
t-106.5 36q-74 0 -105.5 -36t-31.5 -118t31.5 -118.5t105.5 -36.5z" />
    <glyph glyph-name="uni1EDC" unicode="&#x1edc;" horiz-adv-x="770" 
d="M325 688l-83 177h95l76 -177h-88zM348 -10q-153 0 -229 80.5t-76 249.5q0 176 76 255t229 79q151 0 225 -77q55 1 75.5 24.5t20.5 86.5h84q0 -92 -33 -133.5t-98 -51.5q31 -71 31 -183q0 -169 -75.5 -249.5t-229.5 -80.5zM348 82q101 0 148.5 55.5t47.5 182.5
q0 134 -47.5 187.5t-148.5 53.5q-100 0 -147.5 -53.5t-47.5 -187.5q0 -127 47.5 -182.5t147.5 -55.5z" />
    <glyph glyph-name="uni1EDD" unicode="&#x1edd;" horiz-adv-x="676" 
d="M261 522l-83 177h95l76 -177h-88zM290 -10q-128 0 -187.5 64t-59.5 183t60 183t187 64q65 0 111 -16.5t77 -48.5q57 1 77 27t20 90h84q0 -94 -34.5 -137t-103.5 -53q17 -48 17 -109q0 -119 -59.5 -183t-188.5 -64zM290 82q75 0 106.5 36.5t31.5 118.5t-31.5 118
t-106.5 36q-74 0 -105.5 -36t-31.5 -118t31.5 -118.5t105.5 -36.5z" />
    <glyph glyph-name="uni1EDE" unicode="&#x1ede;" horiz-adv-x="770" 
d="M312 687v82q57 3 74.5 14t17.5 36q0 42 -74 42q-15 0 -33 -3.5t-31 -8.5v59q17 6 42.5 9.5t50.5 3.5q62 0 94 -25t32 -68q0 -41 -19.5 -63.5t-68.5 -30.5v-47h-85zM348 -10q-153 0 -229 80.5t-76 249.5q0 176 76 255t229 79q151 0 225 -77q55 1 75.5 24.5t20.5 86.5h84
q0 -92 -33 -133.5t-98 -51.5q31 -71 31 -183q0 -169 -75.5 -249.5t-229.5 -80.5zM348 82q101 0 148.5 55.5t47.5 182.5q0 134 -47.5 187.5t-148.5 53.5q-100 0 -147.5 -53.5t-47.5 -187.5q0 -127 47.5 -182.5t147.5 -55.5z" />
    <glyph glyph-name="uni1EDF" unicode="&#x1edf;" horiz-adv-x="676" 
d="M246 521v82q57 3 74.5 14t17.5 36q0 42 -74 42q-15 0 -33 -3.5t-31 -8.5v59q17 6 42.5 9.5t50.5 3.5q62 0 94 -25t32 -68q0 -41 -19.5 -63.5t-68.5 -30.5v-47h-85zM290 -10q-128 0 -187.5 64t-59.5 183t60 183t187 64q65 0 111 -16.5t77 -48.5q57 1 77 27t20 90h84
q0 -94 -34.5 -137t-103.5 -53q17 -48 17 -109q0 -119 -59.5 -183t-188.5 -64zM290 82q75 0 106.5 36.5t31.5 118.5t-31.5 118t-106.5 36q-74 0 -105.5 -36t-31.5 -118t31.5 -118.5t105.5 -36.5z" />
    <glyph glyph-name="uni1EE0" unicode="&#x1ee0;" horiz-adv-x="770" 
d="M442 701q-27 0 -53.5 10t-51 19.5t-47.5 9.5q-26 0 -48 -8t-39 -28v80q13 14 36.5 22t48.5 8q29 0 54 -9.5t49 -19.5t50 -10q52 0 80 37v-80q-10 -13 -31 -22t-48 -9zM348 -10q-153 0 -229 80.5t-76 249.5q0 176 76 255t229 79q151 0 225 -77q55 1 75.5 24.5t20.5 86.5
h84q0 -92 -33 -133.5t-98 -51.5q31 -71 31 -183q0 -169 -75.5 -249.5t-229.5 -80.5zM348 82q101 0 148.5 55.5t47.5 182.5q0 134 -47.5 187.5t-148.5 53.5q-100 0 -147.5 -53.5t-47.5 -187.5q0 -127 47.5 -182.5t147.5 -55.5z" />
    <glyph glyph-name="uni1EE1" unicode="&#x1ee1;" horiz-adv-x="676" 
d="M376 535q-27 0 -53.5 10t-51 19.5t-47.5 9.5q-26 0 -48 -8t-39 -28v80q13 14 36.5 22t48.5 8q29 0 54 -9.5t49 -19.5t50 -10q52 0 80 37v-80q-10 -13 -31 -22t-48 -9zM290 -10q-128 0 -187.5 64t-59.5 183t60 183t187 64q65 0 111 -16.5t77 -48.5q57 1 77 27t20 90h84
q0 -94 -34.5 -137t-103.5 -53q17 -48 17 -109q0 -119 -59.5 -183t-188.5 -64zM290 82q75 0 106.5 36.5t31.5 118.5t-31.5 118t-106.5 36q-74 0 -105.5 -36t-31.5 -118t31.5 -118.5t105.5 -36.5z" />
    <glyph glyph-name="uni1EE2" unicode="&#x1ee2;" horiz-adv-x="770" 
d="M348 -10q-153 0 -229 80.5t-76 249.5q0 176 76 255t229 79q151 0 225 -77q55 1 75.5 24.5t20.5 86.5h84q0 -92 -33 -133.5t-98 -51.5q31 -71 31 -183q0 -169 -75.5 -249.5t-229.5 -80.5zM348 82q101 0 148.5 55.5t47.5 182.5q0 134 -47.5 187.5t-148.5 53.5
q-100 0 -147.5 -53.5t-47.5 -187.5q0 -127 47.5 -182.5t147.5 -55.5zM305 -173v88h94v-88h-94z" />
    <glyph glyph-name="uni1EE3" unicode="&#x1ee3;" horiz-adv-x="676" 
d="M290 -10q-128 0 -187.5 64t-59.5 183t60 183t187 64q65 0 111 -16.5t77 -48.5q57 1 77 27t20 90h84q0 -94 -34.5 -137t-103.5 -53q17 -48 17 -109q0 -119 -59.5 -183t-188.5 -64zM290 82q75 0 106.5 36.5t31.5 118.5t-31.5 118t-106.5 36q-74 0 -105.5 -36t-31.5 -118
t31.5 -118.5t105.5 -36.5zM248 -173v88h94v-88h-94z" />
    <glyph glyph-name="uni1EE4" unicode="&#x1ee4;" horiz-adv-x="674" 
d="M338 -10q-133 0 -206.5 64t-73.5 185v405h109v-401q0 -81 44.5 -121t126.5 -40q81 0 125.5 40t44.5 121v401h108v-405q0 -121 -73 -185t-205 -64zM290 -173v88h94v-88h-94z" />
    <glyph glyph-name="uni1EE5" unicode="&#x1ee5;" horiz-adv-x="578" 
d="M234 -10q-85 0 -130.5 47t-45.5 138v299h109v-299q0 -53 26 -78t80 -25q40 0 74 15t59 40v347h108v-474h-99l-5 49q-32 -25 -76 -42t-100 -17zM233 -173v88h94v-88h-94z" />
    <glyph glyph-name="uni1EE6" unicode="&#x1ee6;" horiz-adv-x="674" 
d="M292 687v82q57 3 74.5 14t17.5 36q0 42 -74 42q-15 0 -33 -3.5t-31 -8.5v59q17 6 42.5 9.5t50.5 3.5q62 0 94 -25t32 -68q0 -41 -19.5 -63.5t-68.5 -30.5v-47h-85zM338 -10q-133 0 -206.5 64t-73.5 185v405h109v-401q0 -81 44.5 -121t126.5 -40q81 0 125.5 40t44.5 121
v401h108v-405q0 -121 -73 -185t-205 -64z" />
    <glyph glyph-name="uni1EE7" unicode="&#x1ee7;" horiz-adv-x="578" 
d="M242 521v82q57 3 74.5 14t17.5 36q0 42 -74 42q-15 0 -33 -3.5t-31 -8.5v59q17 6 42.5 9.5t50.5 3.5q62 0 94 -25t32 -68q0 -41 -19.5 -63.5t-68.5 -30.5v-47h-85zM234 -10q-85 0 -130.5 47t-45.5 138v299h109v-299q0 -53 26 -78t80 -25q40 0 74 15t59 40v347h108v-474
h-99l-5 49q-32 -25 -76 -42t-100 -17z" />
    <glyph glyph-name="uni1EE8" unicode="&#x1ee8;" horiz-adv-x="781" 
d="M301 688l75 177h96l-84 -177h-87zM338 -10q-133 0 -206.5 64t-73.5 185v405h109v-401q0 -81 44.5 -121t126.5 -40q81 0 125.5 40t44.5 121v401h108v-70q55 2 76 26t21 88h84q0 -107 -44 -148t-137 -43v-258q0 -121 -73 -185t-205 -64z" />
    <glyph glyph-name="uni1EE9" unicode="&#x1ee9;" horiz-adv-x="702" 
d="M247 522l75 177h96l-84 -177h-87zM234 -10q-85 0 -130.5 47t-45.5 138v299h109v-299q0 -53 26 -78t80 -25q40 0 74 15t59 40v347h108v-55q48 4 65 31t17 86h84q0 -100 -41 -144.5t-125 -47.5v-344h-99l-5 49q-32 -25 -76 -42t-100 -17z" />
    <glyph glyph-name="uni1EEA" unicode="&#x1eea;" horiz-adv-x="781" 
d="M303 688l-83 177h95l76 -177h-88zM338 -10q-133 0 -206.5 64t-73.5 185v405h109v-401q0 -81 44.5 -121t126.5 -40q81 0 125.5 40t44.5 121v401h108v-70q55 2 76 26t21 88h84q0 -107 -44 -148t-137 -43v-258q0 -121 -73 -185t-205 -64z" />
    <glyph glyph-name="uni1EEB" unicode="&#x1eeb;" horiz-adv-x="702" 
d="M254 522l-83 177h95l76 -177h-88zM234 -10q-85 0 -130.5 47t-45.5 138v299h109v-299q0 -53 26 -78t80 -25q40 0 74 15t59 40v347h108v-55q48 4 65 31t17 86h84q0 -100 -41 -144.5t-125 -47.5v-344h-99l-5 49q-32 -25 -76 -42t-100 -17z" />
    <glyph glyph-name="uni1EEC" unicode="&#x1eec;" horiz-adv-x="781" 
d="M300 687v82q57 3 74.5 14t17.5 36q0 42 -74 42q-15 0 -33 -3.5t-31 -8.5v59q17 6 42.5 9.5t50.5 3.5q62 0 94 -25t32 -68q0 -41 -19.5 -63.5t-68.5 -30.5v-47h-85zM338 -10q-133 0 -206.5 64t-73.5 185v405h109v-401q0 -81 44.5 -121t126.5 -40q81 0 125.5 40t44.5 121
v401h108v-70q55 2 76 26t21 88h84q0 -107 -44 -148t-137 -43v-258q0 -121 -73 -185t-205 -64z" />
    <glyph glyph-name="uni1EED" unicode="&#x1eed;" horiz-adv-x="702" 
d="M248 521v82q57 3 74.5 14t17.5 36q0 42 -74 42q-15 0 -33 -3.5t-31 -8.5v59q17 6 42.5 9.5t50.5 3.5q62 0 94 -25t32 -68q0 -41 -19.5 -63.5t-68.5 -30.5v-47h-85zM234 -10q-85 0 -130.5 47t-45.5 138v299h109v-299q0 -53 26 -78t80 -25q40 0 74 15t59 40v347h108v-55
q48 4 65 31t17 86h84q0 -100 -41 -144.5t-125 -47.5v-344h-99l-5 49q-32 -25 -76 -42t-100 -17z" />
    <glyph glyph-name="uni1EEE" unicode="&#x1eee;" horiz-adv-x="781" 
d="M417 701q-27 0 -53.5 10t-51 19.5t-47.5 9.5q-26 0 -48 -8t-39 -28v80q13 14 36.5 22t48.5 8q29 0 54 -9.5t49 -19.5t50 -10q52 0 80 37v-80q-10 -13 -31 -22t-48 -9zM338 -10q-133 0 -206.5 64t-73.5 185v405h109v-401q0 -81 44.5 -121t126.5 -40q81 0 125.5 40
t44.5 121v401h108v-70q55 2 76 26t21 88h84q0 -107 -44 -148t-137 -43v-258q0 -121 -73 -185t-205 -64z" />
    <glyph glyph-name="uni1EEF" unicode="&#x1eef;" horiz-adv-x="702" 
d="M374 535q-27 0 -53.5 10t-51 19.5t-47.5 9.5q-26 0 -48 -8t-39 -28v80q13 14 36.5 22t48.5 8q29 0 54 -9.5t49 -19.5t50 -10q52 0 80 37v-80q-10 -13 -31 -22t-48 -9zM234 -10q-85 0 -130.5 47t-45.5 138v299h109v-299q0 -53 26 -78t80 -25q40 0 74 15t59 40v347h108v-55
q48 4 65 31t17 86h84q0 -100 -41 -144.5t-125 -47.5v-344h-99l-5 49q-32 -25 -76 -42t-100 -17z" />
    <glyph glyph-name="uni1EF0" unicode="&#x1ef0;" horiz-adv-x="781" 
d="M338 -10q-133 0 -206.5 64t-73.5 185v405h109v-401q0 -81 44.5 -121t126.5 -40q81 0 125.5 40t44.5 121v401h108v-70q55 2 76 26t21 88h84q0 -107 -44 -148t-137 -43v-258q0 -121 -73 -185t-205 -64zM288 -173v88h94v-88h-94z" />
    <glyph glyph-name="uni1EF1" unicode="&#x1ef1;" horiz-adv-x="702" 
d="M234 -10q-85 0 -130.5 47t-45.5 138v299h109v-299q0 -53 26 -78t80 -25q40 0 74 15t59 40v347h108v-55q48 4 65 31t17 86h84q0 -100 -41 -144.5t-125 -47.5v-344h-99l-5 49q-32 -25 -76 -42t-100 -17zM238 -173v88h94v-88h-94z" />
    <glyph glyph-name="Ygrave" unicode="&#x1ef2;" horiz-adv-x="656" 
d="M295 688l-83 177h95l76 -177h-88zM274 0v239l-231 405h113l172 -313l172 313h113l-231 -405v-239h-108z" />
    <glyph glyph-name="ygrave" unicode="&#x1ef3;" horiz-adv-x="598" 
d="M269 522l-83 177h95l76 -177h-88zM170 -176q-54 0 -92 14v81q17 -6 31.5 -8t29.5 -2q31 0 50 10t33.5 31.5t31.5 55.5l-211 468h113l152 -352l154 352h112l-193 -447q-25 -60 -53.5 -105.5t-66 -71.5t-91.5 -26z" />
    <glyph glyph-name="uni1EF4" unicode="&#x1ef4;" horiz-adv-x="656" 
d="M274 0v239l-231 405h113l172 -313l172 313h113l-231 -405v-239h-108zM281 -161v88h94v-88h-94z" />
    <glyph glyph-name="uni1EF5" unicode="&#x1ef5;" horiz-adv-x="598" 
d="M170 -176q-54 0 -92 14v81q17 -6 31.5 -8t29.5 -2q31 0 50 10t33.5 31.5t31.5 55.5l-211 468h113l152 -352l154 352h112l-193 -447q-25 -60 -53.5 -105.5t-66 -71.5t-91.5 -26zM404 -161v88h94v-88h-94z" />
    <glyph glyph-name="uni1EF6" unicode="&#x1ef6;" horiz-adv-x="656" 
d="M278 687v82q57 3 74.5 14t17.5 36q0 42 -74 42q-15 0 -33 -3.5t-31 -8.5v59q17 6 42.5 9.5t50.5 3.5q62 0 94 -25t32 -68q0 -41 -19.5 -63.5t-68.5 -30.5v-47h-85zM274 0v239l-231 405h113l172 -313l172 313h113l-231 -405v-239h-108z" />
    <glyph glyph-name="uni1EF7" unicode="&#x1ef7;" horiz-adv-x="598" 
d="M267 521v82q57 3 74.5 14t17.5 36q0 42 -74 42q-15 0 -33 -3.5t-31 -8.5v59q17 6 42.5 9.5t50.5 3.5q62 0 94 -25t32 -68q0 -41 -19.5 -63.5t-68.5 -30.5v-47h-85zM170 -176q-54 0 -92 14v81q17 -6 31.5 -8t29.5 -2q31 0 50 10t33.5 31.5t31.5 55.5l-211 468h113
l152 -352l154 352h112l-193 -447q-25 -60 -53.5 -105.5t-66 -71.5t-91.5 -26z" />
    <glyph glyph-name="uni1EF8" unicode="&#x1ef8;" horiz-adv-x="656" 
d="M408 703q-27 0 -53.5 10t-51 19.5t-47.5 9.5q-26 0 -48 -8t-39 -28v80q13 14 36.5 22t48.5 8q29 0 54 -9.5t49 -19.5t50 -10q52 0 80 37v-80q-10 -13 -31 -22t-48 -9zM274 0v239l-231 405h113l172 -313l172 313h113l-231 -405v-239h-108z" />
    <glyph glyph-name="uni1EF9" unicode="&#x1ef9;" horiz-adv-x="598" 
d="M387 537q-27 0 -53.5 10t-51 19.5t-47.5 9.5q-26 0 -48 -8t-39 -28v80q13 14 36.5 22t48.5 8q29 0 54 -9.5t49 -19.5t50 -10q52 0 80 37v-80q-10 -13 -31 -22t-48 -9zM170 -176q-54 0 -92 14v81q17 -6 31.5 -8t29.5 -2q31 0 50 10t33.5 31.5t31.5 55.5l-211 468h113
l152 -352l154 352h112l-193 -447q-25 -60 -53.5 -105.5t-66 -71.5t-91.5 -26z" />
    <glyph glyph-name="uni2007" unicode="&#x2007;" horiz-adv-x="651" 
 />
    <glyph glyph-name="uni2010" unicode="&#x2010;" horiz-adv-x="503" 
d="M43 227v85h416v-85h-416z" />
    <glyph glyph-name="figuredash" unicode="&#x2012;" horiz-adv-x="603" 
d="M43 227v85h516v-85h-516z" />
    <glyph glyph-name="endash" unicode="&#x2013;" horiz-adv-x="575" 
d="M43 227v85h489v-85h-489z" />
    <glyph glyph-name="emdash" unicode="&#x2014;" horiz-adv-x="858" 
d="M43 227v85h771v-85h-771z" />
    <glyph glyph-name="uni2015" unicode="&#x2015;" horiz-adv-x="903" 
d="M43 227v85h817v-85h-817z" />
    <glyph glyph-name="quoteleft" unicode="&#x2018;" horiz-adv-x="235" 
d="M43 459l66 195h82l-52 -195h-96z" />
    <glyph glyph-name="quoteright" unicode="&#x2019;" horiz-adv-x="235" 
d="M43 459l53 195h95l-66 -195h-82z" />
    <glyph glyph-name="quotesinglbase" unicode="&#x201a;" horiz-adv-x="235" 
d="M43 -162l53 195h95l-66 -195h-82z" />
    <glyph glyph-name="quotedblleft" unicode="&#x201c;" horiz-adv-x="374" 
d="M43 459l66 195h75l-53 -195h-88zM190 459l66 195h74l-52 -195h-88z" />
    <glyph glyph-name="quotedblright" unicode="&#x201d;" horiz-adv-x="374" 
d="M43 459l53 195h88l-66 -195h-75zM190 459l52 195h88l-66 -195h-74z" />
    <glyph glyph-name="quotedblbase" unicode="&#x201e;" horiz-adv-x="374" 
d="M43 -115l53 195h88l-66 -195h-75zM190 -115l52 195h88l-66 -195h-74z" />
    <glyph glyph-name="dagger" unicode="&#x2020;" horiz-adv-x="555" 
d="M224 0l4 420l-185 -3v84l185 -3l-5 202h110l-5 -202l183 3v-84l-183 3l4 -420h-108z" />
    <glyph glyph-name="daggerdbl" unicode="&#x2021;" horiz-adv-x="555" 
d="M224 0l4 185l-185 -1v82l185 -2l-5 86l5 85l-185 -1v81l185 -2l-5 187h110l-5 -187l183 2v-81l-183 1l5 -85l-5 -86l183 2v-82l-183 1l4 -185h-108z" />
    <glyph glyph-name="bullet" unicode="&#x2022;" horiz-adv-x="334" 
d="M166 164q-34 0 -62 16.5t-44.5 44.5t-16.5 62t16.5 62t44.5 45t62 17q35 0 63 -17t44.5 -45t16.5 -62t-16.5 -62t-44.5 -44.5t-63 -16.5z" />
    <glyph glyph-name="ellipsis" unicode="&#x2026;" horiz-adv-x="572" 
d="M43 0v84h91v-84h-91zM241 0v84h90v-84h-90zM438 0v84h90v-84h-90z" />
    <glyph glyph-name="perthousand" unicode="&#x2030;" horiz-adv-x="1043" 
d="M185 360q-71 0 -106.5 39.5t-35.5 100.5q0 71 35.5 112.5t106.5 41.5t106 -41.5t35 -112.5q0 -61 -35 -100.5t-106 -39.5zM141 0l341 644h102l-341 -644h-102zM185 426q39 0 56 20t17 56q0 44 -17.5 64.5t-55.5 20.5t-55.5 -20.5t-17.5 -64.5q0 -36 17 -56t56 -20z
M543 -10q-71 0 -106.5 39.5t-35.5 100.5q0 71 35.5 112.5t106.5 41.5t106 -41.5t35 -112.5q0 -61 -35 -100.5t-106 -39.5zM858 -10q-71 0 -106.5 39.5t-35.5 100.5q0 71 35.5 112.5t106.5 41.5t106 -41.5t35 -112.5q0 -61 -35 -100.5t-106 -39.5zM543 56q39 0 56 20t17 56
q0 44 -17.5 64.5t-55.5 20.5t-55.5 -20.5t-17.5 -64.5q0 -36 17 -56t56 -20zM858 56q39 0 56 20t17 56q0 44 -17.5 64.5t-55.5 20.5t-55.5 -20.5t-17.5 -64.5q0 -36 17 -56t56 -20z" />
    <glyph glyph-name="minute" unicode="&#x2032;" horiz-adv-x="181" 
d="M43 455v189h94l-13 -189h-81z" />
    <glyph glyph-name="second" unicode="&#x2033;" horiz-adv-x="341" 
d="M203 455v189h94l-13 -189h-81zM43 455v189h94l-13 -189h-81z" />
    <glyph glyph-name="guilsinglleft" unicode="&#x2039;" horiz-adv-x="388" 
d="M301 73l-258 190v46l258 190l43 -62l-204 -152l204 -151z" />
    <glyph glyph-name="guilsinglright" unicode="&#x203a;" horiz-adv-x="388" 
d="M86 73l-43 61l204 151l-204 152l43 62l258 -190v-46z" />
    <glyph glyph-name="fraction" unicode="&#x2044;" horiz-adv-x="153" 
d="M-137 0l317 662h109l-315 -662h-111z" />
    <glyph glyph-name="uni2070" unicode="&#x2070;" horiz-adv-x="360" 
d="M180 362q-70 0 -104.5 38t-34.5 103q0 71 32.5 111t106.5 40t106 -40t32 -111q0 -65 -33.5 -103t-104.5 -38zM180 421q38 0 51.5 21t13.5 61q0 47 -13 69t-52 22q-38 0 -52 -22t-14 -69q0 -40 14.5 -61t51.5 -21z" />
    <glyph glyph-name="uni2074" unicode="&#x2074;" horiz-adv-x="297" 
d="M168 370v54h-145v52l140 178h79v-177h31v-53h-31v-54h-74zM96 478h88v114z" />
    <glyph glyph-name="uni2075" unicode="&#x2075;" horiz-adv-x="303" 
d="M130 362q-22 0 -47 3t-40 9v57q16 -7 35.5 -10t36.5 -3q37 0 53.5 8.5t16.5 29.5q0 22 -13 30t-47 8h-81v45l7 105h188l-4 -55h-119l-3 -46h44q102 0 102 -88q0 -41 -32 -67t-97 -26z" />
    <glyph glyph-name="uni2076" unicode="&#x2076;" horiz-adv-x="321" 
d="M163 362q-55 0 -87.5 26.5t-32.5 83.5v62q0 56 35 88t96 32q22 0 42.5 -3t33.5 -8v-55q-28 10 -72 10q-34 0 -52.5 -14.5t-18.5 -38.5v-12q16 12 34.5 17.5t36.5 5.5q55 0 77.5 -24.5t22.5 -72.5q0 -45 -27.5 -71t-87.5 -26zM161 414q29 0 39.5 11.5t10.5 33.5
q0 23 -9.5 33.5t-38.5 10.5q-15 0 -29.5 -6t-26.5 -15v-19q0 -49 54 -49z" />
    <glyph glyph-name="uni2077" unicode="&#x2077;" horiz-adv-x="289" 
d="M81 370l92 215h-140v59h222v-50l-96 -224h-78z" />
    <glyph glyph-name="uni2078" unicode="&#x2078;" horiz-adv-x="331" 
d="M166 362q-54 0 -88.5 20.5t-34.5 60.5q0 48 47 68q-22 11 -30.5 27t-8.5 36q0 38 31 59t84 21t83.5 -21t30.5 -59q0 -20 -8 -36.5t-32 -29.5q27 -10 37.5 -26t10.5 -39q0 -40 -34 -60.5t-88 -20.5zM176 530q23 8 30 16t7 26t-12.5 26.5t-34.5 8.5q-48 0 -48 -35
q0 -14 6.5 -23t24.5 -13zM166 408q54 0 54 36q0 16 -8.5 24t-31.5 13l-29 7q-19 -6 -29 -14.5t-10 -28.5q0 -37 54 -37z" />
    <glyph glyph-name="uni2079" unicode="&#x2079;" horiz-adv-x="321" 
d="M147 362q-46 0 -76 10v56q13 -5 32.5 -7.5t39.5 -2.5q35 0 53 14t18 39v12q-30 -23 -69 -23q-55 0 -78.5 24t-23.5 73q0 44 27.5 70.5t87.5 26.5q58 0 89 -27t31 -83v-63q0 -55 -35 -87t-96 -32zM158 513q15 0 29.5 5.5t26.5 14.5v19q0 49 -54 49q-28 0 -39 -11t-11 -34
q0 -22 9.5 -32.5t38.5 -10.5z" />
    <glyph glyph-name="uni207D" unicode="&#x207d;" horiz-adv-x="220" 
d="M99 352q-28 29 -42 73.5t-14 88.5t14 88.5t42 73.5h77q-33 -33 -47.5 -75.5t-14.5 -86.5q0 -45 14.5 -87.5t47.5 -74.5h-77z" />
    <glyph glyph-name="uni207E" unicode="&#x207e;" horiz-adv-x="220" 
d="M43 352q34 32 48.5 74.5t14.5 87.5q0 44 -14.5 86.5t-48.5 75.5h78q28 -29 41.5 -73.5t13.5 -88.5t-13.5 -88.5t-41.5 -73.5h-78z" />
    <glyph glyph-name="uni207F" unicode="&#x207f;" horiz-adv-x="358" 
d="M48 386v262h64l2 -27q21 15 46 23.5t58 8.5q44 0 70 -23.5t26 -71.5v-172h-67v159q0 31 -12 43t-43 12q-20 0 -41 -8.5t-35 -21.5v-184h-68z" />
    <glyph glyph-name="uni2080" unicode="&#x2080;" horiz-adv-x="360" 
d="M180 -128q-70 0 -104.5 38t-34.5 103q0 71 32.5 111t106.5 40t106 -40t32 -111q0 -65 -33.5 -103t-104.5 -38zM180 -69q38 0 51.5 21t13.5 61q0 47 -13 69t-52 22q-38 0 -52 -22t-14 -69q0 -40 14.5 -61t51.5 -21z" />
    <glyph glyph-name="uni2081" unicode="&#x2081;" horiz-adv-x="214" 
d="M104 -120v211l-72 -15v59l147 29v-284h-75z" />
    <glyph glyph-name="uni2082" unicode="&#x2082;" horiz-adv-x="301" 
d="M43 -120v38q15 23 34 40.5t42 36.5q34 28 47 42.5t13 31.5q0 19 -12.5 27t-42.5 8q-17 0 -36.5 -4t-36.5 -11v59q16 5 42.5 10.5t54.5 5.5q52 0 79.5 -25t27.5 -60q0 -28 -12 -47t-40 -45q-16 -15 -27.5 -24t-25.5 -24h107v-59h-214z" />
    <glyph glyph-name="uni2083" unicode="&#x2083;" horiz-adv-x="304" 
d="M134 -128q-22 0 -49.5 3.5t-41.5 9.5v54q18 -7 36.5 -10.5t36.5 -3.5q36 0 51 8t15 27q0 35 -59 35h-39l4 48h32q56 0 56 37q0 17 -15 23t-44 6q-36 0 -69 -13v55q14 5 38.5 9t49.5 4q65 0 92 -22.5t27 -57.5q0 -21 -9.5 -39t-31.5 -26q25 -7 36 -23t11 -39
q0 -85 -127 -85z" />
    <glyph glyph-name="uni2084" unicode="&#x2084;" horiz-adv-x="297" 
d="M168 -120v54h-145v52l140 178h79v-177h31v-53h-31v-54h-74zM96 -12h88v114z" />
    <glyph glyph-name="uni2085" unicode="&#x2085;" horiz-adv-x="303" 
d="M130 -128q-22 0 -47 3t-40 9v57q16 -7 35.5 -10t36.5 -3q37 0 53.5 8.5t16.5 29.5q0 22 -13 30t-47 8h-81v45l7 105h188l-4 -55h-119l-3 -46h44q102 0 102 -88q0 -41 -32 -67t-97 -26z" />
    <glyph glyph-name="uni2086" unicode="&#x2086;" horiz-adv-x="321" 
d="M163 -128q-55 0 -87.5 26.5t-32.5 83.5v62q0 56 35 88t96 32q22 0 42.5 -3t33.5 -8v-55q-28 10 -72 10q-34 0 -52.5 -14.5t-18.5 -38.5v-12q16 12 34.5 17.5t36.5 5.5q55 0 77.5 -24.5t22.5 -72.5q0 -45 -27.5 -71t-87.5 -26zM161 -76q29 0 39.5 11.5t10.5 33.5
q0 23 -9.5 33.5t-38.5 10.5q-15 0 -29.5 -6t-26.5 -15v-19q0 -49 54 -49z" />
    <glyph glyph-name="uni2087" unicode="&#x2087;" horiz-adv-x="289" 
d="M81 -120l92 215h-140v59h222v-50l-96 -224h-78z" />
    <glyph glyph-name="uni2088" unicode="&#x2088;" horiz-adv-x="331" 
d="M166 -128q-54 0 -88.5 20.5t-34.5 60.5q0 48 47 68q-22 11 -30.5 27t-8.5 36q0 38 31 59t84 21t83.5 -21t30.5 -59q0 -20 -8 -36.5t-32 -29.5q27 -10 37.5 -26t10.5 -39q0 -40 -34 -60.5t-88 -20.5zM176 40q23 8 30 16t7 26t-12.5 26.5t-34.5 8.5q-48 0 -48 -35
q0 -14 6.5 -23t24.5 -13zM166 -82q54 0 54 36q0 16 -8.5 23.5t-31.5 13.5l-29 7q-19 -6 -29 -14.5t-10 -28.5q0 -37 54 -37z" />
    <glyph glyph-name="uni2089" unicode="&#x2089;" horiz-adv-x="321" 
d="M147 -128q-46 0 -76 10v56q13 -5 32.5 -7.5t39.5 -2.5q35 0 53 14t18 39v12q-30 -23 -69 -23q-55 0 -78.5 24t-23.5 73q0 44 27.5 70.5t87.5 26.5q58 0 89 -27t31 -83v-63q0 -55 -35 -87t-96 -32zM158 23q15 0 29.5 5.5t26.5 14.5v19q0 49 -54 49q-28 0 -39 -11t-11 -34
q0 -22 9.5 -32.5t38.5 -10.5z" />
    <glyph glyph-name="uni208D" unicode="&#x208d;" horiz-adv-x="220" 
d="M99 -146q-28 29 -42 73.5t-14 88.5t14 88.5t42 73.5h77q-33 -33 -47.5 -75.5t-14.5 -86.5q0 -45 14.5 -87.5t47.5 -74.5h-77z" />
    <glyph glyph-name="uni208E" unicode="&#x208e;" horiz-adv-x="220" 
d="M43 -146q34 32 48.5 74.5t14.5 87.5q0 44 -14.5 86.5t-48.5 75.5h78q27 -29 41 -73.5t14 -88.5t-14 -88.5t-41 -73.5h-78z" />
    <glyph glyph-name="colonmonetary" unicode="&#x20a1;" horiz-adv-x="573" 
d="M126 -31l27 107q-54 34 -82 92t-28 141q0 275 246 302l15 60h75l-15 -57q14 -1 27.5 -2t26.5 -3l16 62h74l-19 -76q10 -2 19.5 -5.5t19.5 -6.5v-95q-15 6 -30.5 10.5t-31.5 8.5l-98 -385q41 1 82 8.5t79 22.5v-96q-40 -13 -84 -20t-99 -7h-2l-15 -61h-74l17 66
q-14 2 -27 4.5t-25 6.5l-20 -77h-74zM295 126l100 393q-10 1 -20.5 1.5t-21.5 0.5h-12l-97 -381q11 -4 24 -8t27 -6zM182 190l81 318q-60 -19 -85 -69t-25 -130q0 -75 29 -119z" />
    <glyph glyph-name="lira" unicode="&#x20a4;" horiz-adv-x="498" 
d="M43 0v84h25q29 0 42.5 17.5t13.5 47.5v32h-68v80h68v55h-68v80h68v93q0 77 49 121t126 44q36 0 65.5 -5.5t51.5 -15.5v-78q-14 8 -38.5 11.5t-45.5 3.5q-50 0 -75 -20t-25 -67v-87h182l-3 -80h-179v-55h182l-3 -80h-179q0 -33 -3 -57.5t-22 -39.5h247v-84h-411z" />
    <glyph glyph-name="uni20A6" unicode="&#x20a6;" horiz-adv-x="662" 
d="M101 0v216h-58v77h58v59h-58v76h58v216h96l117 -216h138v216h109v-216h57v-76h-57v-59h57v-77h-57v-216h-97l-117 216h-137v-216h-109zM210 428h22l-22 41v-41zM210 293h95l-32 59h-63v-59zM387 293h65v59h-97zM452 173v43h-24z" />
    <glyph glyph-name="peseta" unicode="&#x20a7;" horiz-adv-x="1200" 
d="M63 0v644h195q74 0 121.5 -28t70.5 -76.5t23 -110.5q0 -96 -59 -154.5t-160 -58.5h-82v-216h-109zM172 303h65q65 0 98 34t33 92q0 62 -31.5 95t-94.5 33h-70v-254zM958 -10q-49 0 -94 7t-74 17v90q35 -13 75.5 -19.5t77.5 -6.5q56 0 80 10.5t24 39.5q0 21 -14.5 33
t-43 22t-71.5 24q-42 14 -73 30.5t-48 42.5t-17 68q0 65 46.5 100.5t150.5 35.5q41 0 78 -6t64 -15v-89q-28 11 -61.5 17t-62.5 6q-52 0 -79 -10t-27 -37q0 -28 28 -39.5t89 -31.5q56 -17 89 -36t47.5 -45.5t14.5 -68.5q0 -70 -51 -104.5t-148 -34.5zM674 -10
q-76 0 -113 40.5t-37 110.5v109h-60v82h60v117l108 25v-142h126l-3 -82h-123v-105q0 -77 81 -77q27 0 57 10v-72q-39 -16 -96 -16z" />
    <glyph glyph-name="dong" unicode="&#x20ab;" horiz-adv-x="593" 
d="M259 -10q-97 0 -156.5 58t-59.5 187q0 128 61.5 188.5t159.5 60.5q86 0 146 -41v92h-156v78h156v61h109v-61h55v-78h-55v-535h-93l-7 47q-32 -29 -70 -43t-90 -14zM288 72q73 0 122 50v237q-47 42 -118 42q-69 0 -104 -39.5t-35 -127.5q0 -85 32.5 -123.5t102.5 -38.5z
M94 -134v83h432v-83h-432z" />
    <glyph glyph-name="Euro" unicode="&#x20ac;" horiz-adv-x="588" 
d="M383 -10q-127 0 -193 55.5t-87 150.5h-70v67h61q-1 11 -1.5 22t-0.5 23v22.5t1 22.5h-60v67h67q12 72 44.5 124.5t90.5 81t147 28.5q57 0 94.5 -8.5t77.5 -22.5v-94q-41 17 -77.5 24.5t-86.5 7.5q-87 0 -127 -36.5t-54 -104.5h218v-67h-225q-1 -11 -1 -22.5v-22.5v-23
t1 -22h225v-67h-214q16 -58 58.5 -86t121.5 -28q47 0 84 6.5t78 22.5v-94q-41 -13 -78 -20t-94 -7z" />
    <glyph glyph-name="uni20B1" unicode="&#x20b1;" horiz-adv-x="616" 
d="M61 0v337h-35v72h35v42h-35v72h35v121h265q80 0 129 -33t70 -88h56v-72h-41q1 -5 1 -11v-11v-10t-1 -10h41v-72h-57q-23 -56 -75.5 -88t-126.5 -32h-152v-217h-109zM167 523h238q-32 37 -96 37h-142v-37zM167 409h266q1 5 1.5 10t0.5 10t-0.5 11t-0.5 11h-267v-42z
M167 300h137q65 0 99 37h-236v-37z" />
    <glyph glyph-name="uni20B2" unicode="&#x20b2;" horiz-adv-x="641" 
d="M306 -120v113q-131 15 -197 99t-66 217q0 143 64.5 234t198.5 107v85h82v-81q50 -1 91 -8.5t78 -20.5v-94q-78 27 -169 30v-208h210v-310q-29 -19 -80.5 -34.5t-129.5 -17.5v-111h-82zM306 87v467q-84 -17 -118.5 -79.5t-34.5 -165.5q0 -94 37 -150.5t116 -71.5zM388 82
q32 2 62.5 8t54.5 15v177h-117v-200z" />
    <glyph glyph-name="uni20B5" unicode="&#x20b5;" horiz-adv-x="597" 
d="M306 -120v114q-130 16 -196.5 100.5t-66.5 217.5q0 143 64 232.5t199 105.5v85h82v-82q48 -1 88.5 -9t76.5 -21v-95q-37 14 -78.5 23t-86.5 10v-479q43 1 85.5 8.5t80.5 22.5v-96q-37 -11 -77.5 -18t-88.5 -9v-110h-82zM306 88v467q-83 -17 -118 -79t-35 -164
q0 -94 37.5 -150.5t115.5 -73.5z" />
    <glyph glyph-name="uni20B9" unicode="&#x20b9;" horiz-adv-x="451" 
d="M227 0l-77 180q-14 33 -35.5 46.5t-71.5 13.5v70h53q60 0 100.5 22.5t43.5 85.5h-196v70h194q-9 44 -43 65t-85 21h-67v70h365v-70h-115q23 -15 35.5 -36t17.5 -50h62v-70h-61q-4 -67 -42 -104.5t-106 -51.5q26 -16 37 -30.5t23 -42.5l80 -189h-112z" />
    <glyph glyph-name="uni20BA" unicode="&#x20ba;" horiz-adv-x="580" 
d="M129 0v297l-86 -28v65l86 28v70l-86 -28v66l86 28v146h104v-112l182 60v-65l-182 -60v-71l182 61v-65l-182 -60v-253q101 3 150 54t49 150v43h105v-39q0 -142 -83 -214.5t-239 -72.5h-86z" />
    <glyph glyph-name="uni20BD" unicode="&#x20bd;" horiz-adv-x="641" 
d="M102 0v90h-59v86h59v62h-59v86h59v320h279q111 0 163.5 -55t52.5 -149q0 -96 -61 -149t-162 -53h-164v-62h126v-86h-126v-90h-108zM210 324h147q65 0 98 27t33 85q0 122 -126 122h-152v-234z" />
    <glyph glyph-name="uni210A" unicode="&#x210a;" horiz-adv-x="583" 
d="M266 -176q-16 0 -40.5 1.5t-47 3.5t-36.5 5v87q22 -7 53.5 -10t52.5 -3q73 0 117.5 22t44.5 74v36q-59 -40 -147 -40q-102 0 -161 52.5t-59 174.5q0 82 28 139t77.5 87.5t111.5 30.5q52 0 89.5 -14t69.5 -43l7 47h93v-453q0 -87 -63.5 -142t-189.5 -55zM291 82
q38 0 67.5 11.5t51.5 30.5v227q-49 50 -121 50q-67 0 -101.5 -45.5t-34.5 -127.5q0 -58 15 -90t46 -44t77 -12z" />
    <glyph glyph-name="uni2113" unicode="&#x2113;" horiz-adv-x="406" 
d="M241 -10q-78 0 -112.5 44.5t-34.5 114.5v156q-13 -5 -32.5 -12t-42.5 -12v84q43 10 75 27v184q0 84 35 129t112 45q46 0 75.5 -21t43.5 -56.5t14 -78.5q0 -64 -23.5 -111t-62.5 -81.5t-88 -61.5v-201q0 -33 10 -52.5t38 -19.5q31 0 42 18.5t11 55.5h79q0 -41 -10.5 -75.5
t-40 -55t-88.5 -20.5zM186 430q54 35 78 71t24 85q0 32 -10.5 56t-39.5 24q-31 0 -41.5 -21.5t-10.5 -63.5v-151z" />
    <glyph glyph-name="uni2117" unicode="&#x2117;" horiz-adv-x="751" 
d="M375 -10q-69 0 -129 26t-105.5 71.5t-71.5 105.5t-26 129t26 129t71.5 105.5t105.5 71.5t129 26t129 -26t105.5 -71.5t71.5 -105.5t26 -129t-26 -129t-71.5 -105.5t-105.5 -71.5t-129 -26zM375 57q75 0 134.5 34t93.5 94t34 137q0 76 -34 135.5t-93.5 94t-134.5 34.5
q-74 0 -133 -34.5t-93 -94t-34 -135.5q0 -77 34 -137t93 -94t133 -34zM242 115v411h193q67 0 101.5 -36.5t34.5 -94.5t-36 -98t-101 -40h-123v-142h-69zM311 316h88q49 0 76.5 14.5t27.5 64.5q0 41 -20 56.5t-60 15.5h-112v-151z" />
    <glyph glyph-name="uni2120" unicode="&#x2120;" horiz-adv-x="653" 
d="M165 360q-63 0 -100 13v56q20 -8 43.5 -12t46.5 -4q25 0 41.5 5.5t16.5 22.5t-14.5 24t-46.5 18q-49 18 -71.5 36.5t-22.5 52.5q0 39 28.5 60.5t89.5 21.5q23 0 47.5 -3.5t40.5 -8.5v-55q-39 13 -73 13q-29 0 -45.5 -6t-16.5 -22q0 -14 14.5 -22t48.5 -19q23 -7 44 -17
t34 -27t13 -46q0 -31 -17 -48.5t-44 -25t-57 -7.5zM308 362v282h66l89 -167l88 167h66v-282h-70v170l-69 -148h-29l-72 148v-170h-69z" />
    <glyph glyph-name="trademark" unicode="&#x2122;" horiz-adv-x="679" 
d="M326 362v282h66l89 -167l88 167h66v-282h-70v170l-69 -148h-29l-72 148v-170h-69zM138 362v217h-95v65h259v-65h-93v-217h-71z" />
    <glyph glyph-name="uni2126" unicode="&#x2126;" horiz-adv-x="764" 
d="M50 0v82h144q-69 44 -110 114.5t-41 167.5t40 171.5t116 117t183 42.5t182.5 -42.5t115.5 -117t40 -171.5t-40 -168t-110 -114h143v-82h-275v84q89 48 130.5 118t41.5 158q0 72 -28 126.5t-79 85t-121 30.5q-69 0 -120.5 -30.5t-80 -85t-28.5 -126.5q0 -88 42 -158
t130 -118v-84h-275z" />
    <glyph glyph-name="estimated" unicode="&#x212e;" horiz-adv-x="776" 
d="M397 -13q-75 0 -139 26t-112.5 72.5t-75.5 108.5t-27 134q0 84 28 147.5t76.5 106.5t110.5 65t130 22t130 -23.5t110 -66.5t76 -102.5t28 -131.5v-17h-547v-222q28 -36 86 -60.5t126 -24.5q61 0 105.5 11t80.5 37.5t70 72.5h40q-56 -88 -127 -121.5t-169 -33.5zM185 362
h407v202q-29 31 -82 51.5t-122 20.5q-65 0 -115.5 -18t-87.5 -53v-203z" />
    <glyph glyph-name="uni2153" unicode="&#x2153;" horiz-adv-x="661" 
d="M115 370v211l-72 -15v59l147 29v-284h-75zM94 0l341 644h102l-341 -644h-102zM477 -9q-22 0 -49.5 4t-41.5 9v54q35 -13 73 -13q36 0 51 7.5t15 26.5q0 35 -59 35h-39l4 49h32q56 0 56 36q0 30 -59 30q-18 0 -36 -4t-33 -9v54q14 5 38.5 9t49.5 4q65 0 92 -22t27 -57
q0 -22 -9.5 -39.5t-31.5 -26.5q25 -6 36 -22.5t11 -39.5q0 -85 -127 -85z" />
    <glyph glyph-name="uni2154" unicode="&#x2154;" horiz-adv-x="684" 
d="M43 370v38q15 23 34 40.5t42 36.5q34 28 47 42.5t13 31.5q0 19 -12.5 27t-42.5 8q-17 0 -36.5 -4t-36.5 -11v59q16 5 42.5 10.5t54.5 5.5q52 0 79.5 -25t27.5 -60q0 -28 -12 -47t-40 -45q-16 -15 -27.5 -24t-25.5 -24h107v-59h-214zM98 0l341 644h103l-342 -644h-102z
M481 -9q-22 0 -49.5 4t-41.5 9v54q35 -13 73 -13q36 0 51 7.5t15 26.5q0 35 -59 35h-39l4 49h32q56 0 56 36q0 30 -59 30q-18 0 -36 -4t-33 -9v54q14 5 38.5 9t49.5 4q65 0 92 -22t27 -57q0 -22 -9.5 -39.5t-31.5 -26.5q25 -6 36 -22.5t11 -39.5q0 -85 -127 -85z" />
    <glyph glyph-name="oneeighth" unicode="&#x215b;" horiz-adv-x="665" 
d="M115 370v211l-72 -15v59l147 29v-284h-75zM94 0l341 644h102l-341 -644h-102zM488 -10q-54 0 -88.5 20.5t-34.5 60.5q0 48 47 68q-22 11 -30.5 27t-8.5 36q0 38 31 59t84 21t83.5 -21t30.5 -59q0 -20 -8 -36.5t-32 -29.5q27 -10 37.5 -26t10.5 -39q0 -40 -34 -60.5
t-88 -20.5zM498 158q23 8 30 16t7 26t-12.5 26.5t-34.5 8.5q-48 0 -48 -35q0 -14 6.5 -23t24.5 -13zM488 36q54 0 54 36q0 16 -8.5 24t-31.5 13l-29 7q-19 -6 -29 -14.5t-10 -28.5q0 -37 54 -37z" />
    <glyph glyph-name="threeeighths" unicode="&#x215c;" horiz-adv-x="672" 
d="M134 362q-22 0 -49.5 3.5t-41.5 9.5v54q18 -7 36.5 -10.5t36.5 -3.5q36 0 51 8t15 27q0 35 -59 35h-39l4 48h32q56 0 56 37q0 17 -15 23t-44 6q-36 0 -69 -13v55q14 5 38.5 9t49.5 4q65 0 92 -22.5t27 -57.5q0 -21 -9.5 -39t-31.5 -26q25 -7 36 -23t11 -39
q0 -85 -127 -85zM95 0l340 644h103l-341 -644h-102zM488 -10q-54 0 -88.5 20.5t-34.5 60.5q0 48 47 68q-22 11 -30.5 27t-8.5 36q0 38 31 59t84 21t83.5 -21t30.5 -59q0 -20 -8 -36.5t-32 -29.5q27 -10 37.5 -26t10.5 -39q0 -40 -34 -60.5t-88 -20.5zM498 158q23 8 30 16
t7 26t-12.5 26.5t-34.5 8.5q-48 0 -48 -35q0 -14 6.5 -23t24.5 -13zM488 36q54 0 54 36q0 16 -8.5 24t-31.5 13l-29 7q-19 -6 -29 -14.5t-10 -28.5q0 -37 54 -37z" />
    <glyph glyph-name="fiveeighths" unicode="&#x215d;" horiz-adv-x="657" 
d="M89 0l341 644h103l-342 -644h-102zM130 362q-22 0 -47 3t-40 9v57q16 -7 35.5 -10t36.5 -3q37 0 53.5 8.5t16.5 29.5q0 22 -13 30t-47 8h-81v45l7 105h188l-4 -55h-119l-3 -46h44q102 0 102 -88q0 -41 -32 -67t-97 -26zM483 -10q-54 0 -88.5 20.5t-34.5 60.5q0 48 47 68
q-22 11 -30.5 27t-8.5 36q0 38 31 59t84 21t83.5 -21t30.5 -59q0 -20 -8 -36.5t-32 -29.5q27 -10 37.5 -26t10.5 -39q0 -40 -34 -60.5t-88 -20.5zM493 158q23 8 30 16t7 26t-12.5 26.5t-34.5 8.5q-48 0 -48 -35q0 -14 6.5 -23t24.5 -13zM483 36q54 0 54 36q0 16 -8.5 24
t-31.5 13l-29 7q-19 -6 -29 -14.5t-10 -28.5q0 -37 54 -37z" />
    </font>
</defs>
</svg>
